{"glyphs":{"0":{"ha":708,"x_min":40,"x_max":689,"o":"m 447 874 q 689 608 689 874 q 640 289 689 431 q 500 67 592 147 q 285 -14 408 -14 q 106 56 171 -14 q 40 279 40 125 q 92 589 40 454 q 237 799 144 724 q 447 874 329 874 m 328 135 q 440 182 388 135 q 523 317 492 229 q 554 525 554 406 q 539 647 554 603 q 492 708 524 690 q 406 726 460 726 q 285 676 338 726 q 206 540 233 626 q 178 351 178 454 q 217 181 178 228 q 328 135 257 135 z "},"1":{"ha":708,"x_min":28,"x_max":632,"o":"m 632 68 l 619 0 l 28 0 l 40 68 l 251 107 l 361 733 l 143 733 l 156 800 l 558 860 l 426 106 l 632 68 z "},"2":{"ha":708,"x_min":-28,"x_max":678,"o":"m -28 97 l 328 407 q 447 539 415 483 q 479 656 479 594 q 447 728 479 700 q 360 756 415 756 q 274 747 310 756 q 189 718 238 738 q 174 712 182 714 q 161 707 167 710 l 125 794 q 188 824 133 799 q 309 861 243 849 q 451 874 375 874 q 678 688 678 874 q 649 557 678 617 q 563 440 619 497 q 407 304 506 382 l 150 104 l 479 122 l 554 233 l 636 233 l 576 0 l -12 0 l -28 97 z "},"3":{"ha":708,"x_min":13,"x_max":644,"o":"m 400 874 q 587 831 529 874 q 644 706 644 788 q 587 570 644 632 q 444 469 529 508 q 562 402 519 451 q 604 285 604 353 q 501 63 604 139 q 229 -12 399 -12 q 101 -10 142 -12 q 13 8 60 -7 l 29 99 q 194 86 119 86 q 353 134 292 86 q 415 281 415 182 q 360 380 415 356 q 213 404 306 404 l 213 483 q 402 558 343 504 q 461 685 461 611 q 435 745 461 728 q 356 763 410 763 q 268 749 322 763 q 150 710 214 736 l 126 790 q 264 849 189 825 q 400 874 339 874 z "},"4":{"ha":708,"x_min":-25,"x_max":664,"o":"m 329 0 l 363 188 l -15 188 l -25 256 l 513 865 l 651 851 l 551 285 l 664 285 l 647 188 l 535 188 l 501 0 l 329 0 m 142 285 l 379 285 l 439 625 l 142 285 z "},"5":{"ha":708,"x_min":6,"x_max":686,"o":"m 667 742 l 315 742 l 271 549 q 495 513 415 544 q 604 431 575 481 q 633 308 633 381 q 589 141 633 215 q 458 24 544 67 q 253 -18 372 -18 q 6 7 104 -18 l 29 111 q 115 92 74 97 q 231 88 156 88 q 384 143 322 88 q 446 299 446 199 q 419 386 446 354 q 325 433 392 418 q 138 447 258 447 l 121 489 l 217 853 l 686 853 l 667 742 z "},"6":{"ha":708,"x_min":47,"x_max":665,"o":"m 286 -19 q 100 49 153 -19 q 47 229 47 118 q 128 541 47 399 q 339 773 210 683 q 607 881 468 863 l 618 808 q 406 687 501 776 q 265 463 310 597 q 349 516 304 496 q 461 536 394 536 q 615 483 565 536 q 665 340 665 431 q 634 180 665 261 q 518 40 603 99 q 286 -19 433 -19 m 319 78 q 443 147 403 78 q 483 325 483 217 q 467 405 483 378 q 403 432 450 432 q 320 406 360 432 q 242 340 281 381 q 229 246 229 294 q 248 117 229 157 q 319 78 267 78 z "},"7":{"ha":708,"x_min":85,"x_max":713,"o":"m 136 853 l 690 853 l 713 792 l 240 -51 l 85 3 l 554 732 l 115 732 l 136 853 z "},"8":{"ha":708,"x_min":44,"x_max":688,"o":"m 289 -17 q 97 28 150 -17 q 44 154 44 72 q 107 310 44 229 q 250 433 169 390 q 176 514 203 465 q 149 624 149 563 q 184 746 149 689 q 292 838 219 803 q 471 874 365 874 q 632 829 576 874 q 688 706 688 785 q 489 463 688 581 q 624 247 624 369 q 585 119 624 179 q 472 21 547 58 q 289 -17 396 -17 m 408 517 q 512 599 478 556 q 546 694 546 643 q 443 786 546 786 q 343 753 383 786 q 303 665 303 721 q 324 594 303 625 q 408 517 344 563 m 313 74 q 419 108 376 74 q 463 206 463 143 q 429 290 463 251 q 324 381 396 329 q 231 283 261 338 q 201 179 201 228 q 228 98 201 122 q 313 74 256 74 z "},"9":{"ha":708,"x_min":63,"x_max":675,"o":"m 68 49 q 244 109 158 63 q 391 225 331 156 q 468 372 451 294 q 375 332 421 346 q 267 318 329 318 q 109 375 156 318 q 63 543 63 432 q 96 678 63 601 q 209 815 129 756 q 418 874 289 874 q 613 796 550 874 q 675 597 675 718 q 590 260 675 400 q 369 49 506 119 q 79 -24 232 -22 l 68 49 m 342 429 q 413 440 383 429 q 486 476 443 451 q 503 633 503 547 q 476 739 503 703 q 383 775 450 775 q 281 721 322 775 q 239 579 239 667 q 265 465 239 500 q 342 429 290 429 z "},"\u0000":{"ha":0,"x_min":0,"x_max":0,"o":""},"\r":{"ha":215,"x_min":0,"x_max":0,"o":""}," ":{"ha":215,"x_min":0,"x_max":0,"o":""},"A":{"ha":778,"x_min":-72,"x_max":758,"o":"m 460 213 l 206 213 l 143 94 l 226 63 l 214 0 l -72 0 l -60 61 l 36 96 l 436 853 l 543 871 l 671 96 l 758 63 l 746 0 l 375 0 l 388 63 l 479 90 l 460 213 m 249 294 l 447 294 l 403 588 l 249 294 z "},"Á":{"ha":778,"x_min":-72,"x_max":758,"o":"m 374 881 l 336 929 l 553 1111 l 690 1064 l 690 1032 l 374 881 m -72 0 l -60 61 l 36 96 l 436 853 l 543 871 l 671 96 l 758 63 l 746 0 l 375 0 l 388 63 l 479 90 l 460 213 l 206 213 l 143 94 l 226 63 l 214 0 l -72 0 m 249 294 l 447 294 l 403 588 l 249 294 z "},"Ă":{"ha":778,"x_min":-72,"x_max":758,"o":"m 478 904 q 368 938 401 904 q 335 1028 335 972 q 347 1094 335 1060 l 425 1094 q 422 1069 422 1081 q 436 1025 422 1040 q 494 1010 450 1010 q 576 1031 554 1010 q 608 1094 597 1053 l 683 1094 q 620 956 665 1007 q 478 904 575 904 m -72 0 l -60 61 l 36 96 l 436 853 l 543 871 l 671 96 l 758 63 l 746 0 l 375 0 l 388 63 l 479 90 l 460 213 l 206 213 l 143 94 l 226 63 l 214 0 l -72 0 m 249 294 l 447 294 l 403 588 l 249 294 z "},"Ắ":{"ha":778,"x_min":-72,"x_max":796,"o":"m 0 0 m 460 213 l 206 213 l 143 94 l 226 63 l 214 0 l -72 0 l -60 61 l 36 96 l 436 853 l 543 871 l 671 96 l 758 63 l 746 0 l 375 0 l 388 63 l 479 90 l 460 213 m 249 294 l 447 294 l 403 588 l 249 294 m 486 904 q 376 938 410 904 q 343 1028 343 972 q 356 1094 343 1060 l 433 1094 q 431 1069 431 1081 q 444 1025 431 1040 q 503 1010 458 1010 q 584 1031 563 1010 q 617 1094 606 1053 l 692 1094 q 628 956 674 1007 q 486 904 583 904 m 479 1083 l 442 1132 l 658 1314 l 796 1267 l 796 1235 l 479 1083 z "},"Ặ":{"ha":778,"x_min":-72,"x_max":758,"o":"m 0 0 m 460 213 l 206 213 l 143 94 l 226 63 l 214 0 l -72 0 l -60 61 l 36 96 l 436 853 l 543 871 l 671 96 l 758 63 l 746 0 l 375 0 l 388 63 l 479 90 l 460 213 m 249 294 l 447 294 l 403 588 l 249 294 m 290 -56 q 364 -87 332 -56 q 396 -160 396 -118 q 365 -232 396 -201 q 290 -262 333 -262 q 217 -232 249 -262 q 186 -160 186 -201 q 217 -86 186 -117 q 290 -56 249 -56 m 486 904 q 376 938 410 904 q 343 1028 343 972 q 356 1094 343 1060 l 433 1094 q 431 1069 431 1081 q 444 1025 431 1040 q 503 1010 458 1010 q 584 1031 563 1010 q 617 1094 606 1053 l 692 1094 q 628 956 674 1007 q 486 904 583 904 z "},"Ằ":{"ha":778,"x_min":-72,"x_max":758,"o":"m 0 0 m 460 213 l 206 213 l 143 94 l 226 63 l 214 0 l -72 0 l -60 61 l 36 96 l 436 853 l 543 871 l 671 96 l 758 63 l 746 0 l 375 0 l 388 63 l 479 90 l 460 213 m 249 294 l 447 294 l 403 588 l 249 294 m 486 904 q 376 938 410 904 q 343 1028 343 972 q 356 1094 343 1060 l 433 1094 q 431 1069 431 1081 q 444 1025 431 1040 q 503 1010 458 1010 q 584 1031 563 1010 q 617 1094 606 1053 l 692 1094 q 628 956 674 1007 q 486 904 583 904 m 576 1083 l 254 1235 l 260 1267 l 394 1314 l 608 1132 l 576 1083 z "},"Ẳ":{"ha":778,"x_min":-72,"x_max":758,"o":"m 0 0 m 460 213 l 206 213 l 143 94 l 226 63 l 214 0 l -72 0 l -60 61 l 36 96 l 436 853 l 543 871 l 671 96 l 758 63 l 746 0 l 375 0 l 388 63 l 479 90 l 460 213 m 249 294 l 447 294 l 403 588 l 249 294 m 486 904 q 376 938 410 904 q 343 1028 343 972 q 356 1094 343 1060 l 433 1094 q 431 1069 431 1081 q 444 1025 431 1040 q 503 1010 458 1010 q 584 1031 563 1010 q 617 1094 606 1053 l 692 1094 q 628 956 674 1007 q 486 904 583 904 m 499 1154 q 510 1178 499 1169 q 549 1197 522 1186 q 586 1215 574 1207 q 599 1238 599 1224 q 551 1263 599 1263 q 513 1260 543 1263 l 496 1222 l 440 1222 l 446 1296 q 576 1311 518 1311 q 671 1293 638 1311 q 704 1243 704 1275 q 687 1203 704 1219 q 643 1178 669 1186 q 615 1169 636 1176 q 581 1153 593 1163 q 568 1129 568 1143 l 500 1129 l 499 1154 z "},"Ẵ":{"ha":778,"x_min":-72,"x_max":786,"o":"m 0 0 m 460 213 l 206 213 l 143 94 l 226 63 l 214 0 l -72 0 l -60 61 l 36 96 l 436 853 l 543 871 l 671 96 l 758 63 l 746 0 l 375 0 l 388 63 l 479 90 l 460 213 m 249 294 l 447 294 l 403 588 l 249 294 m 486 904 q 376 938 410 904 q 343 1028 343 972 q 356 1094 343 1060 l 433 1094 q 431 1069 431 1081 q 444 1025 431 1040 q 503 1010 458 1010 q 584 1031 563 1010 q 617 1094 606 1053 l 692 1094 q 628 956 674 1007 q 486 904 583 904 m 786 1257 q 667 1113 726 1113 q 531 1140 628 1113 q 422 1164 449 1164 q 395 1154 407 1164 q 376 1134 383 1144 q 367 1121 368 1124 l 301 1147 q 356 1251 324 1210 q 422 1292 389 1292 q 557 1264 463 1292 q 667 1240 639 1240 q 695 1250 682 1240 q 716 1270 708 1260 q 725 1283 724 1281 l 786 1257 z "},"Ǎ":{"ha":778,"x_min":-72,"x_max":758,"o":"m 0 0 m 460 213 l 206 213 l 143 94 l 226 63 l 214 0 l -72 0 l -60 61 l 36 96 l 436 853 l 543 871 l 671 96 l 758 63 l 746 0 l 375 0 l 388 63 l 479 90 l 460 213 m 249 294 l 447 294 l 403 588 l 249 294 m 354 1104 l 504 1010 l 690 1104 l 722 1063 l 544 888 l 426 888 l 313 1068 l 354 1104 z "},"Â":{"ha":778,"x_min":-72,"x_max":758,"o":"m 649 888 l 499 982 l 313 888 l 281 929 l 458 1104 l 576 1104 l 690 924 l 649 888 m 460 213 l 206 213 l 143 94 l 226 63 l 214 0 l -72 0 l -60 61 l 36 96 l 436 853 l 543 871 l 671 96 l 758 63 l 746 0 l 375 0 l 388 63 l 479 90 l 460 213 m 249 294 l 447 294 l 403 588 l 249 294 z "},"Ấ":{"ha":778,"x_min":-72,"x_max":935,"o":"m 688 949 l 636 982 l 779 1228 l 925 1228 l 935 1197 l 688 949 m 622 888 l 472 982 l 286 888 l 254 929 l 432 1104 l 550 1104 l 664 924 l 622 888 m 460 213 l 206 213 l 143 94 l 226 63 l 214 0 l -72 0 l -60 61 l 36 96 l 436 853 l 543 871 l 671 96 l 758 63 l 746 0 l 375 0 l 388 63 l 479 90 l 460 213 m 249 294 l 447 294 l 403 588 l 249 294 z "},"Ậ":{"ha":778,"x_min":-72,"x_max":758,"o":"m 0 0 m 460 213 l 206 213 l 143 94 l 226 63 l 214 0 l -72 0 l -60 61 l 36 96 l 436 853 l 543 871 l 671 96 l 758 63 l 746 0 l 375 0 l 388 63 l 479 90 l 460 213 m 249 294 l 447 294 l 403 588 l 249 294 m 290 -56 q 364 -87 332 -56 q 396 -160 396 -118 q 365 -232 396 -201 q 290 -262 333 -262 q 217 -232 249 -262 q 186 -160 186 -201 q 217 -86 186 -117 q 290 -56 249 -56 m 664 888 l 514 982 l 328 888 l 296 929 l 474 1104 l 592 1104 l 706 924 l 664 888 z "},"Ầ":{"ha":778,"x_min":-72,"x_max":758,"o":"m 681 949 l 531 1204 l 554 1228 l 664 1228 l 736 972 l 681 949 m 622 888 l 472 982 l 286 888 l 254 929 l 432 1104 l 550 1104 l 664 924 l 622 888 m 460 213 l 206 213 l 143 94 l 226 63 l 214 0 l -72 0 l -60 61 l 36 96 l 436 853 l 543 871 l 671 96 l 758 63 l 746 0 l 375 0 l 388 63 l 479 90 l 460 213 m 249 294 l 447 294 l 403 588 l 249 294 z "},"Ẩ":{"ha":778,"x_min":-72,"x_max":893,"o":"m 0 0 m 460 213 l 206 213 l 143 94 l 226 63 l 214 0 l -72 0 l -60 61 l 36 96 l 436 853 l 543 871 l 671 96 l 758 63 l 746 0 l 375 0 l 388 63 l 479 90 l 460 213 m 249 294 l 447 294 l 403 588 l 249 294 m 664 888 l 514 982 l 328 888 l 296 929 l 474 1104 l 592 1104 l 706 924 l 664 888 m 688 1071 q 699 1094 688 1086 q 738 1114 711 1103 q 775 1132 763 1124 q 788 1154 788 1140 q 740 1179 788 1179 q 701 1176 732 1179 l 685 1139 l 629 1139 l 635 1213 q 765 1228 707 1228 q 860 1210 826 1228 q 893 1160 893 1192 q 876 1119 893 1136 q 832 1094 858 1103 q 803 1086 825 1093 q 769 1069 782 1079 q 757 1046 757 1060 l 689 1046 l 688 1071 z "},"Ẫ":{"ha":778,"x_min":-72,"x_max":797,"o":"m 0 0 m 460 213 l 206 213 l 143 94 l 226 63 l 214 0 l -72 0 l -60 61 l 36 96 l 436 853 l 543 871 l 671 96 l 758 63 l 746 0 l 375 0 l 388 63 l 479 90 l 460 213 m 249 294 l 447 294 l 403 588 l 249 294 m 664 888 l 514 982 l 328 888 l 296 929 l 474 1104 l 592 1104 l 706 924 l 664 888 m 797 1250 q 678 1106 738 1106 q 542 1133 639 1106 q 433 1157 460 1157 q 406 1147 418 1157 q 387 1127 394 1138 q 378 1114 379 1117 l 313 1140 q 367 1244 335 1203 q 433 1285 400 1285 q 568 1257 474 1285 q 678 1233 650 1233 q 706 1243 693 1233 q 727 1263 719 1253 q 736 1276 735 1274 l 797 1250 z "},"Ȁ":{"ha":778,"x_min":-72,"x_max":758,"o":"m 0 0 m 460 213 l 206 213 l 143 94 l 226 63 l 214 0 l -72 0 l -60 61 l 36 96 l 436 853 l 543 871 l 671 96 l 758 63 l 746 0 l 375 0 l 388 63 l 479 90 l 460 213 m 249 294 l 447 294 l 403 588 l 249 294 m 382 876 l 214 1100 l 219 1131 l 347 1131 l 432 908 l 382 876 m 606 876 l 438 1100 l 443 1131 l 571 1131 l 656 908 l 606 876 z "},"Ä":{"ha":778,"x_min":-72,"x_max":765,"o":"m 342 899 q 265 927 297 899 q 233 999 233 956 q 266 1070 233 1040 q 342 1100 299 1100 q 414 1070 383 1100 q 444 999 444 1040 q 415 927 444 956 q 342 899 385 899 m 664 899 q 588 927 619 899 q 557 999 557 956 q 588 1071 557 1042 q 664 1100 619 1100 q 735 1070 704 1100 q 765 999 765 1040 q 735 927 765 956 q 664 899 704 899 m -72 0 l -60 61 l 36 96 l 436 853 l 543 871 l 671 96 l 758 63 l 746 0 l 375 0 l 388 63 l 479 90 l 460 213 l 206 213 l 143 94 l 226 63 l 214 0 l -72 0 m 249 294 l 447 294 l 403 588 l 249 294 z "},"Ạ":{"ha":778,"x_min":-72,"x_max":758,"o":"m 0 0 m 460 213 l 206 213 l 143 94 l 226 63 l 214 0 l -72 0 l -60 61 l 36 96 l 436 853 l 543 871 l 671 96 l 758 63 l 746 0 l 375 0 l 388 63 l 479 90 l 460 213 m 249 294 l 447 294 l 403 588 l 249 294 m 290 -56 q 364 -87 332 -56 q 396 -160 396 -118 q 365 -232 396 -201 q 290 -262 333 -262 q 217 -232 249 -262 q 186 -160 186 -201 q 217 -86 186 -117 q 290 -56 249 -56 z "},"À":{"ha":778,"x_min":-72,"x_max":758,"o":"m 603 881 l 281 1032 l 286 1064 l 421 1111 l 635 929 l 603 881 m -72 0 l -60 61 l 36 96 l 436 853 l 543 871 l 671 96 l 758 63 l 746 0 l 375 0 l 388 63 l 479 90 l 460 213 l 206 213 l 143 94 l 226 63 l 214 0 l -72 0 m 249 294 l 447 294 l 403 588 l 249 294 z "},"Ả":{"ha":778,"x_min":-72,"x_max":758,"o":"m 0 0 m 460 213 l 206 213 l 143 94 l 226 63 l 214 0 l -72 0 l -60 61 l 36 96 l 436 853 l 543 871 l 671 96 l 758 63 l 746 0 l 375 0 l 388 63 l 479 90 l 460 213 m 249 294 l 447 294 l 403 588 l 249 294 m 472 951 q 484 975 472 967 q 522 994 496 983 q 560 1013 547 1004 q 572 1035 572 1021 q 525 1060 572 1060 q 486 1057 517 1060 l 469 1019 l 414 1019 l 419 1093 q 550 1108 492 1108 q 644 1090 611 1108 q 678 1040 678 1072 q 660 1000 678 1017 q 617 975 643 983 q 588 967 610 974 q 554 950 567 960 q 542 926 542 940 l 474 926 l 472 951 z "},"Ȃ":{"ha":778,"x_min":-72,"x_max":758,"o":"m 0 0 m 460 213 l 206 213 l 143 94 l 226 63 l 214 0 l -72 0 l -60 61 l 36 96 l 436 853 l 543 871 l 671 96 l 758 63 l 746 0 l 375 0 l 388 63 l 479 90 l 460 213 m 249 294 l 447 294 l 403 588 l 249 294 m 525 1108 q 635 1074 601 1108 q 668 985 668 1040 q 656 918 668 953 l 578 918 q 581 943 581 932 q 567 988 581 972 q 508 1003 553 1003 q 427 981 449 1003 q 394 918 406 960 l 319 918 q 383 1057 338 1006 q 525 1108 428 1108 z "},"Ā":{"ha":778,"x_min":-72,"x_max":758,"o":"m 304 943 l 319 1053 l 682 1053 l 667 943 l 304 943 m -72 0 l -60 61 l 36 96 l 436 853 l 543 871 l 671 96 l 758 63 l 746 0 l 375 0 l 388 63 l 479 90 l 460 213 l 206 213 l 143 94 l 226 63 l 214 0 l -72 0 m 249 294 l 447 294 l 403 588 l 249 294 z "},"Ą":{"ha":778,"x_min":-72,"x_max":758,"o":"m 406 -328 q 308 -298 338 -328 q 278 -222 278 -268 q 312 -116 278 -162 q 406 -17 346 -69 q 461 39 443 18 q 479 81 479 60 q 476 107 479 90 l 461 213 l 206 213 l 143 94 l 226 63 l 214 0 l -72 0 l -60 61 l 36 96 l 436 853 l 543 871 l 671 96 l 758 63 l 746 0 l 556 0 q 481 -30 517 0 q 422 -102 444 -60 q 400 -178 400 -144 q 413 -226 400 -211 q 453 -242 425 -242 q 542 -211 493 -242 l 569 -242 q 547 -267 569 -244 q 489 -308 525 -289 q 406 -328 453 -328 m 249 294 l 447 294 l 403 588 l 249 294 z "},"Å":{"ha":778,"x_min":-72,"x_max":758,"o":"m 482 871 q 383 897 418 871 q 347 969 347 922 q 394 1090 347 1042 q 535 1138 440 1138 q 631 1107 600 1138 q 664 1026 663 1076 q 613 914 664 957 q 482 871 561 871 m 493 936 q 547 963 532 936 q 563 1028 563 990 q 550 1059 563 1047 q 514 1071 538 1071 q 463 1044 478 1071 q 449 981 449 1018 q 457 947 449 958 q 493 936 465 936 m -72 0 l -60 61 l 36 96 l 436 853 l 543 871 l 671 96 l 758 63 l 746 0 l 375 0 l 388 63 l 479 90 l 460 213 l 206 213 l 143 94 l 226 63 l 214 0 l -72 0 m 249 294 l 447 294 l 403 588 l 249 294 z "},"Ǻ":{"ha":778,"x_min":-72,"x_max":821,"o":"m 821 1314 l 821 1282 l 515 1136 q 549 1138 525 1138 q 645 1107 614 1138 q 678 1026 676 1076 q 626 914 678 957 q 496 871 575 871 q 397 897 432 871 q 361 969 361 922 q 396 1076 361 1032 q 501 1133 431 1121 l 467 1179 l 683 1361 l 821 1314 m 576 1028 q 564 1059 576 1047 q 528 1071 551 1071 q 477 1044 492 1071 q 463 981 463 1018 q 471 947 463 958 q 507 936 479 936 q 561 963 546 936 q 576 1028 576 990 m 543 871 l 671 96 l 758 63 l 746 0 l 375 0 l 388 63 l 479 90 l 460 213 l 206 213 l 143 94 l 226 63 l 214 0 l -72 0 l -60 61 l 36 96 l 436 853 l 543 871 m 249 294 l 447 294 l 403 588 l 249 294 z "},"Ã":{"ha":778,"x_min":-72,"x_max":758,"o":"m 746 1053 q 626 908 686 908 q 490 936 588 908 q 382 960 408 960 q 355 950 367 960 q 335 930 343 940 q 326 917 328 919 l 261 943 q 316 1047 283 1006 q 382 1088 349 1088 q 517 1060 422 1088 q 626 1036 599 1036 q 655 1046 642 1036 q 676 1066 668 1056 q 685 1079 683 1076 l 746 1053 m 460 213 l 206 213 l 143 94 l 226 63 l 214 0 l -72 0 l -60 61 l 36 96 l 436 853 l 543 871 l 671 96 l 758 63 l 746 0 l 375 0 l 388 63 l 479 90 l 460 213 m 249 294 l 447 294 l 403 588 l 249 294 z "},"Æ":{"ha":919,"x_min":-196,"x_max":931,"o":"m 581 438 l 704 438 l 750 529 l 814 529 l 763 264 l 699 264 l 686 360 l 571 360 l 536 96 l 744 96 l 803 225 l 876 225 l 833 0 l 214 0 l 225 63 l 342 96 l 376 360 l 218 360 l 29 94 l 113 63 l 100 0 l -196 0 l -183 61 l -87 96 l 401 767 l 324 790 l 336 853 l 931 853 l 892 650 l 818 650 l 811 758 l 624 758 l 581 438 m 386 438 l 413 631 l 274 438 l 386 438 z "},"Ǽ":{"ha":919,"x_min":-196,"x_max":931,"o":"m 0 0 m 581 438 l 704 438 l 750 529 l 814 529 l 763 264 l 699 264 l 686 360 l 571 360 l 536 96 l 744 96 l 803 225 l 876 225 l 833 0 l 214 0 l 225 63 l 342 96 l 376 360 l 218 360 l 29 94 l 113 63 l 100 0 l -196 0 l -183 61 l -87 96 l 401 767 l 324 790 l 336 853 l 931 853 l 892 650 l 818 650 l 811 758 l 624 758 l 581 438 m 386 438 l 413 631 l 274 438 l 386 438 m 524 881 l 486 929 l 703 1111 l 840 1064 l 840 1032 l 524 881 z "},"B":{"ha":783,"x_min":-18,"x_max":771,"o":"m 540 450 q 669 392 626 436 q 713 282 713 349 q 667 135 713 199 q 535 35 621 71 q 333 0 450 0 l -18 0 l -7 63 l 110 96 l 239 758 l 133 790 l 146 853 l 515 853 q 708 810 646 853 q 771 692 771 768 q 705 532 771 596 q 540 450 639 468 m 410 476 q 485 494 446 476 q 551 558 524 513 q 579 681 579 604 q 486 768 579 768 q 450 766 467 768 q 429 763 433 764 l 372 476 l 410 476 m 299 96 q 361 85 329 85 q 475 135 431 85 q 519 282 519 186 q 484 371 519 340 q 393 401 449 401 l 358 401 l 299 96 z "},"C":{"ha":726,"x_min":50,"x_max":785,"o":"m 628 29 q 505 -3 564 7 q 372 -14 446 -14 q 126 64 201 -14 q 50 300 50 142 q 106 582 50 451 q 273 792 161 713 q 546 872 385 872 q 785 838 678 872 l 729 619 l 654 619 l 649 761 q 528 778 594 778 q 319 633 383 778 q 256 289 256 488 q 292 130 256 178 q 417 82 329 82 q 529 97 476 82 l 581 218 l 658 218 l 628 29 z "},"Ć":{"ha":726,"x_min":50,"x_max":785,"o":"m 418 881 l 381 929 l 597 1111 l 735 1064 l 735 1032 l 418 881 m 628 29 q 505 -3 564 7 q 372 -14 446 -14 q 126 64 201 -14 q 50 300 50 142 q 106 582 50 451 q 273 792 161 713 q 546 872 385 872 q 785 838 678 872 l 729 619 l 654 619 l 649 761 q 528 778 594 778 q 319 633 383 778 q 256 289 256 488 q 292 130 256 178 q 417 82 329 82 q 529 97 476 82 l 581 218 l 658 218 l 628 29 z "},"Č":{"ha":726,"x_min":50,"x_max":785,"o":"m 403 1104 l 553 1010 l 739 1104 l 771 1063 l 593 888 l 475 888 l 361 1068 l 403 1104 m 628 29 q 505 -3 564 7 q 372 -14 446 -14 q 126 64 201 -14 q 50 300 50 142 q 106 582 50 451 q 273 792 161 713 q 546 872 385 872 q 785 838 678 872 l 729 619 l 654 619 l 649 761 q 528 778 594 778 q 319 633 383 778 q 256 289 256 488 q 292 130 256 178 q 417 82 329 82 q 529 97 476 82 l 581 218 l 658 218 l 628 29 z "},"Ç":{"ha":726,"x_min":50,"x_max":785,"o":"m 628 29 q 509 -2 567 8 q 379 -14 451 -12 l 356 -64 q 447 -87 417 -64 q 478 -149 478 -110 q 449 -233 478 -197 q 376 -287 419 -268 q 296 -306 333 -306 q 233 -300 256 -306 q 189 -283 210 -294 l 211 -235 q 258 -244 226 -244 q 314 -225 288 -244 q 340 -174 340 -206 q 272 -128 340 -129 l 267 -101 l 315 -11 q 113 78 175 1 q 50 300 50 154 q 106 582 50 451 q 273 792 161 713 q 546 872 385 872 q 785 838 678 872 l 729 619 l 654 619 l 649 761 q 528 778 594 778 q 319 633 383 778 q 256 289 256 488 q 292 130 256 178 q 417 82 329 82 q 529 97 476 82 l 581 218 l 658 218 l 628 29 z "},"Ĉ":{"ha":726,"x_min":50,"x_max":785,"o":"m 50 0 m 628 29 q 505 -3 564 7 q 372 -14 446 -14 q 126 64 201 -14 q 50 300 50 142 q 106 582 50 451 q 273 792 161 713 q 546 872 385 872 q 785 838 678 872 l 729 619 l 654 619 l 649 761 q 528 778 594 778 q 319 633 383 778 q 256 289 256 488 q 292 130 256 178 q 417 82 329 82 q 529 97 476 82 l 581 218 l 658 218 l 628 29 m 708 888 l 558 982 l 372 888 l 340 929 l 518 1104 l 636 1104 l 750 924 l 708 888 z "},"Ċ":{"ha":726,"x_min":50,"x_max":785,"o":"m 50 0 m 628 29 q 505 -3 564 7 q 372 -14 446 -14 q 126 64 201 -14 q 50 300 50 142 q 106 582 50 451 q 273 792 161 713 q 546 872 385 872 q 785 838 678 872 l 729 619 l 654 619 l 649 761 q 528 778 594 778 q 319 633 383 778 q 256 289 256 488 q 292 130 256 178 q 417 82 329 82 q 529 97 476 82 l 581 218 l 658 218 l 628 29 m 678 993 q 644 914 678 946 q 564 882 611 882 q 481 915 517 882 q 444 993 444 947 q 481 1075 444 1040 q 564 1110 517 1110 q 644 1075 611 1110 q 678 993 678 1040 z "},"D":{"ha":890,"x_min":-18,"x_max":874,"o":"m -7 63 l 110 96 l 239 758 l 133 790 l 146 853 l 522 853 q 786 775 699 853 q 874 560 874 697 q 817 282 874 410 q 647 77 760 154 q 374 0 533 0 l -18 0 l -7 63 m 397 85 q 546 156 485 85 q 638 336 607 226 q 668 563 668 446 q 627 719 668 671 q 499 768 586 768 q 428 760 458 768 l 299 97 q 397 85 332 85 z "},"Ǳ":{"ha":1543,"x_min":-18,"x_max":1615,"o":"m 0 0 m -7 63 l 110 96 l 239 758 l 133 790 l 146 853 l 522 853 q 786 775 699 853 q 874 560 874 697 q 817 282 874 410 q 647 77 760 154 q 374 0 533 0 l -18 0 l -7 63 m 397 85 q 546 156 485 85 q 638 336 607 226 q 668 563 668 446 q 627 719 668 671 q 499 768 586 768 q 428 760 458 768 l 299 97 q 397 85 332 85 m 1503 225 l 1449 0 l 850 0 l 836 46 l 1375 758 l 1115 758 l 1064 650 l 988 650 l 1014 853 l 1615 853 l 1615 807 l 1076 96 l 1354 96 l 1429 225 l 1503 225 z "},"Ǆ":{"ha":1543,"x_min":-18,"x_max":1615,"o":"m 0 0 m -7 63 l 110 96 l 239 758 l 133 790 l 146 853 l 522 853 q 786 775 699 853 q 874 560 874 697 q 817 282 874 410 q 647 77 760 154 q 374 0 533 0 l -18 0 l -7 63 m 397 85 q 546 156 485 85 q 638 336 607 226 q 668 563 668 446 q 627 719 668 671 q 499 768 586 768 q 428 760 458 768 l 299 97 q 397 85 332 85 m 1503 225 l 1449 0 l 850 0 l 836 46 l 1375 758 l 1115 758 l 1064 650 l 988 650 l 1014 853 l 1615 853 l 1615 807 l 1076 96 l 1354 96 l 1429 225 l 1503 225 m 1182 1104 l 1332 1010 l 1518 1104 l 1550 1063 l 1372 888 l 1254 888 l 1140 1068 l 1182 1104 z "},"Ð":{"ha":894,"x_min":-14,"x_max":878,"o":"m -3 63 l 114 96 l 169 381 l 85 381 l 100 458 l 185 458 l 243 758 l 138 790 l 150 853 l 526 853 q 790 775 703 853 q 878 560 878 697 q 821 282 878 410 q 651 77 764 154 q 378 0 538 0 l -14 0 l -3 63 m 401 85 q 550 156 489 85 q 642 336 611 226 q 672 563 672 446 q 631 719 672 671 q 503 768 590 768 q 432 760 463 768 l 374 458 l 490 458 l 475 381 l 358 381 l 303 97 q 401 85 336 85 z "},"Ď":{"ha":890,"x_min":-18,"x_max":874,"o":"m 461 888 l 347 1068 l 389 1104 l 539 1010 l 725 1104 l 757 1063 l 579 888 l 461 888 m -7 63 l 110 96 l 239 758 l 133 790 l 146 853 l 522 853 q 786 775 699 853 q 874 560 874 697 q 817 282 874 410 q 647 77 760 154 q 374 0 533 0 l -18 0 l -7 63 m 397 85 q 546 156 485 85 q 638 336 607 226 q 668 563 668 446 q 627 719 668 671 q 499 768 586 768 q 428 760 458 768 l 299 97 q 397 85 332 85 z "},"Đ":{"ha":894,"x_min":-14,"x_max":878,"o":"m -3 63 l 114 96 l 169 381 l 85 381 l 100 458 l 185 458 l 243 758 l 138 790 l 150 853 l 526 853 q 790 775 703 853 q 878 560 878 697 q 821 282 878 410 q 651 77 764 154 q 378 0 538 0 l -14 0 l -3 63 m 401 85 q 550 156 489 85 q 642 336 611 226 q 672 563 672 446 q 631 719 672 671 q 503 768 590 768 q 432 760 463 768 l 374 458 l 490 458 l 475 381 l 358 381 l 303 97 q 401 85 336 85 z "},"Ḍ":{"ha":890,"x_min":-18,"x_max":874,"o":"m 0 0 m -7 63 l 110 96 l 239 758 l 133 790 l 146 853 l 522 853 q 786 775 699 853 q 874 560 874 697 q 817 282 874 410 q 647 77 760 154 q 374 0 533 0 l -18 0 l -7 63 m 397 85 q 546 156 485 85 q 638 336 607 226 q 668 563 668 446 q 627 719 668 671 q 499 768 586 768 q 428 760 458 768 l 299 97 q 397 85 332 85 m 347 -56 q 421 -87 389 -56 q 453 -160 453 -118 q 422 -232 453 -201 q 347 -262 390 -262 q 274 -232 306 -262 q 243 -160 243 -201 q 274 -86 243 -117 q 347 -56 306 -56 z "},"ǲ":{"ha":1425,"x_min":-18,"x_max":1481,"o":"m 0 0 m -7 63 l 110 96 l 239 758 l 133 790 l 146 853 l 522 853 q 786 775 699 853 q 874 560 874 697 q 817 282 874 410 q 647 77 760 154 q 374 0 533 0 l -18 0 l -7 63 m 397 85 q 546 156 485 85 q 638 336 607 226 q 668 563 668 446 q 627 719 668 671 q 499 768 586 768 q 428 760 458 768 l 299 97 q 397 85 332 85 m 1275 -92 q 1192 -76 1228 -92 q 1108 -31 1156 -61 q 1042 6 1067 -6 q 988 18 1017 18 q 949 6 967 18 q 921 -19 932 -6 q 907 -36 910 -32 l 835 17 l 1249 549 l 961 549 l 943 703 l 1361 703 l 1403 725 l 1481 667 l 1065 147 q 1143 135 1111 147 q 1219 97 1175 122 q 1283 65 1256 75 q 1342 54 1310 54 q 1404 61 1375 54 l 1428 -24 q 1351 -74 1386 -56 q 1275 -92 1315 -92 z "},"ǅ":{"ha":1425,"x_min":-18,"x_max":1481,"o":"m 0 0 m -7 63 l 110 96 l 239 758 l 133 790 l 146 853 l 522 853 q 786 775 699 853 q 874 560 874 697 q 817 282 874 410 q 647 77 760 154 q 374 0 533 0 l -18 0 l -7 63 m 397 85 q 546 156 485 85 q 638 336 607 226 q 668 563 668 446 q 627 719 668 671 q 499 768 586 768 q 428 760 458 768 l 299 97 q 397 85 332 85 m 1275 -92 q 1192 -76 1228 -92 q 1108 -31 1156 -61 q 1042 6 1067 -6 q 988 18 1017 18 q 949 6 967 18 q 921 -19 932 -6 q 907 -36 910 -32 l 835 17 l 1249 549 l 961 549 l 943 703 l 1361 703 l 1403 725 l 1481 667 l 1065 147 q 1143 135 1111 147 q 1219 97 1175 122 q 1283 65 1256 75 q 1342 54 1310 54 q 1404 61 1375 54 l 1428 -24 q 1351 -74 1386 -56 q 1275 -92 1315 -92 m 1131 1032 l 1256 926 l 1424 1032 l 1468 986 l 1296 801 l 1178 801 l 1074 997 l 1131 1032 z "},"E":{"ha":744,"x_min":-18,"x_max":767,"o":"m 554 560 l 624 560 l 572 294 l 503 294 l 496 390 l 356 390 l 299 96 l 539 96 l 597 225 l 671 225 l 628 0 l -18 0 l -7 63 l 110 96 l 239 758 l 133 790 l 146 853 l 767 853 l 728 650 l 654 650 l 647 758 l 428 758 l 371 468 l 514 468 l 554 560 z "},"É":{"ha":744,"x_min":-18,"x_max":767,"o":"m 386 881 l 349 929 l 565 1111 l 703 1064 l 703 1032 l 386 881 m 554 560 l 624 560 l 572 294 l 503 294 l 496 390 l 356 390 l 299 96 l 539 96 l 597 225 l 671 225 l 628 0 l -18 0 l -7 63 l 110 96 l 239 758 l 133 790 l 146 853 l 767 853 l 728 650 l 654 650 l 647 758 l 428 758 l 371 468 l 514 468 l 554 560 z "},"Ĕ":{"ha":744,"x_min":-18,"x_max":767,"o":"m 0 0 m 554 560 l 624 560 l 572 294 l 503 294 l 496 390 l 356 390 l 299 96 l 539 96 l 597 225 l 671 225 l 628 0 l -18 0 l -7 63 l 110 96 l 239 758 l 133 790 l 146 853 l 767 853 l 728 650 l 654 650 l 647 758 l 428 758 l 371 468 l 514 468 l 554 560 m 469 904 q 360 938 393 904 q 326 1028 326 972 q 339 1094 326 1060 l 417 1094 q 414 1069 414 1081 q 428 1025 414 1040 q 486 1010 442 1010 q 567 1031 546 1010 q 600 1094 589 1053 l 675 1094 q 612 956 657 1007 q 469 904 567 904 z "},"Ě":{"ha":744,"x_min":-18,"x_max":767,"o":"m 356 1104 l 506 1010 l 692 1104 l 724 1063 l 546 888 l 428 888 l 314 1068 l 356 1104 m 554 560 l 624 560 l 572 294 l 503 294 l 496 390 l 356 390 l 299 96 l 539 96 l 597 225 l 671 225 l 628 0 l -18 0 l -7 63 l 110 96 l 239 758 l 133 790 l 146 853 l 767 853 l 728 650 l 654 650 l 647 758 l 428 758 l 371 468 l 514 468 l 554 560 z "},"Ê":{"ha":744,"x_min":-18,"x_max":767,"o":"m 647 888 l 497 982 l 311 888 l 279 929 l 457 1104 l 575 1104 l 689 924 l 647 888 m 554 560 l 624 560 l 572 294 l 503 294 l 496 390 l 356 390 l 299 96 l 539 96 l 597 225 l 671 225 l 628 0 l -18 0 l -7 63 l 110 96 l 239 758 l 133 790 l 146 853 l 767 853 l 728 650 l 654 650 l 647 758 l 428 758 l 371 468 l 514 468 l 554 560 z "},"Ế":{"ha":744,"x_min":-18,"x_max":918,"o":"m 671 949 l 619 982 l 763 1228 l 908 1228 l 918 1197 l 671 949 m 606 888 l 456 982 l 269 888 l 238 929 l 415 1104 l 533 1104 l 647 924 l 606 888 m 554 560 l 624 560 l 572 294 l 503 294 l 496 390 l 356 390 l 299 96 l 539 96 l 597 225 l 671 225 l 628 0 l -18 0 l -7 63 l 110 96 l 239 758 l 133 790 l 146 853 l 767 853 l 728 650 l 654 650 l 647 758 l 428 758 l 371 468 l 514 468 l 554 560 z "},"Ệ":{"ha":744,"x_min":-18,"x_max":767,"o":"m 0 0 m 554 560 l 624 560 l 572 294 l 503 294 l 496 390 l 356 390 l 299 96 l 539 96 l 597 225 l 671 225 l 628 0 l -18 0 l -7 63 l 110 96 l 239 758 l 133 790 l 146 853 l 767 853 l 728 650 l 654 650 l 647 758 l 428 758 l 371 468 l 514 468 l 554 560 m 274 -56 q 347 -87 315 -56 q 379 -160 379 -118 q 348 -232 379 -201 q 274 -262 317 -262 q 201 -232 232 -262 q 169 -160 169 -201 q 201 -86 169 -117 q 274 -56 232 -56 m 647 888 l 497 982 l 311 888 l 279 929 l 457 1104 l 575 1104 l 689 924 l 647 888 z "},"Ề":{"ha":744,"x_min":-18,"x_max":767,"o":"m 664 949 l 514 1204 l 538 1228 l 647 1228 l 719 972 l 664 949 m 606 888 l 456 982 l 269 888 l 238 929 l 415 1104 l 533 1104 l 647 924 l 606 888 m 554 560 l 624 560 l 572 294 l 503 294 l 496 390 l 356 390 l 299 96 l 539 96 l 597 225 l 671 225 l 628 0 l -18 0 l -7 63 l 110 96 l 239 758 l 133 790 l 146 853 l 767 853 l 728 650 l 654 650 l 647 758 l 428 758 l 371 468 l 514 468 l 554 560 z "},"Ể":{"ha":744,"x_min":-18,"x_max":876,"o":"m 0 0 m 554 560 l 624 560 l 572 294 l 503 294 l 496 390 l 356 390 l 299 96 l 539 96 l 597 225 l 671 225 l 628 0 l -18 0 l -7 63 l 110 96 l 239 758 l 133 790 l 146 853 l 767 853 l 728 650 l 654 650 l 647 758 l 428 758 l 371 468 l 514 468 l 554 560 m 647 888 l 497 982 l 311 888 l 279 929 l 457 1104 l 575 1104 l 689 924 l 647 888 m 671 1071 q 683 1094 671 1086 q 721 1114 694 1103 q 758 1132 746 1124 q 771 1154 771 1140 q 724 1179 771 1179 q 685 1176 715 1179 l 668 1139 l 613 1139 l 618 1213 q 749 1228 690 1228 q 843 1210 810 1228 q 876 1160 876 1192 q 859 1119 876 1136 q 815 1094 842 1103 q 787 1086 808 1093 q 753 1069 765 1079 q 740 1046 740 1060 l 672 1046 l 671 1071 z "},"Ễ":{"ha":744,"x_min":-18,"x_max":781,"o":"m 0 0 m 554 560 l 624 560 l 572 294 l 503 294 l 496 390 l 356 390 l 299 96 l 539 96 l 597 225 l 671 225 l 628 0 l -18 0 l -7 63 l 110 96 l 239 758 l 133 790 l 146 853 l 767 853 l 728 650 l 654 650 l 647 758 l 428 758 l 371 468 l 514 468 l 554 560 m 647 888 l 497 982 l 311 888 l 279 929 l 457 1104 l 575 1104 l 689 924 l 647 888 m 781 1250 q 661 1106 721 1106 q 525 1133 622 1106 q 417 1157 443 1157 q 390 1147 401 1157 q 370 1127 378 1138 q 361 1114 363 1117 l 296 1140 q 351 1244 318 1203 q 417 1285 383 1285 q 551 1257 457 1285 q 661 1233 633 1233 q 690 1243 676 1233 q 710 1263 703 1253 q 719 1276 718 1274 l 781 1250 z "},"Ȅ":{"ha":744,"x_min":-18,"x_max":767,"o":"m 0 0 m 554 560 l 624 560 l 572 294 l 503 294 l 496 390 l 356 390 l 299 96 l 539 96 l 597 225 l 671 225 l 628 0 l -18 0 l -7 63 l 110 96 l 239 758 l 133 790 l 146 853 l 767 853 l 728 650 l 654 650 l 647 758 l 428 758 l 371 468 l 514 468 l 554 560 m 365 876 l 197 1100 l 203 1131 l 331 1131 l 415 908 l 365 876 m 589 876 l 421 1100 l 426 1131 l 554 1131 l 639 908 l 589 876 z "},"Ë":{"ha":744,"x_min":-18,"x_max":767,"o":"m 439 999 q 409 927 439 956 q 336 899 379 899 q 260 927 292 899 q 228 999 228 956 q 260 1070 228 1040 q 336 1100 293 1100 q 408 1070 378 1100 q 439 999 439 1040 m 760 999 q 729 927 760 956 q 658 899 699 899 q 583 927 614 899 q 551 999 551 956 q 583 1071 551 1042 q 658 1100 614 1100 q 729 1070 699 1100 q 760 999 760 1040 m 554 560 l 624 560 l 572 294 l 503 294 l 496 390 l 356 390 l 299 96 l 539 96 l 597 225 l 671 225 l 628 0 l -18 0 l -7 63 l 110 96 l 239 758 l 133 790 l 146 853 l 767 853 l 728 650 l 654 650 l 647 758 l 428 758 l 371 468 l 514 468 l 554 560 z "},"Ė":{"ha":744,"x_min":-18,"x_max":767,"o":"m 615 993 q 582 914 615 946 q 501 882 549 882 q 418 915 454 882 q 382 993 382 947 q 418 1075 382 1040 q 501 1110 454 1110 q 582 1075 549 1110 q 615 993 615 1040 m 554 560 l 624 560 l 572 294 l 503 294 l 496 390 l 356 390 l 299 96 l 539 96 l 597 225 l 671 225 l 628 0 l -18 0 l -7 63 l 110 96 l 239 758 l 133 790 l 146 853 l 767 853 l 728 650 l 654 650 l 647 758 l 428 758 l 371 468 l 514 468 l 554 560 z "},"Ẹ":{"ha":744,"x_min":-18,"x_max":767,"o":"m 0 0 m 554 560 l 624 560 l 572 294 l 503 294 l 496 390 l 356 390 l 299 96 l 539 96 l 597 225 l 671 225 l 628 0 l -18 0 l -7 63 l 110 96 l 239 758 l 133 790 l 146 853 l 767 853 l 728 650 l 654 650 l 647 758 l 428 758 l 371 468 l 514 468 l 554 560 m 274 -56 q 347 -87 315 -56 q 379 -160 379 -118 q 348 -232 379 -201 q 274 -262 317 -262 q 201 -232 232 -262 q 169 -160 169 -201 q 201 -86 169 -117 q 274 -56 232 -56 z "},"È":{"ha":744,"x_min":-18,"x_max":767,"o":"m 571 881 l 249 1032 l 254 1064 l 389 1111 l 603 929 l 571 881 m 554 560 l 624 560 l 572 294 l 503 294 l 496 390 l 356 390 l 299 96 l 539 96 l 597 225 l 671 225 l 628 0 l -18 0 l -7 63 l 110 96 l 239 758 l 133 790 l 146 853 l 767 853 l 728 650 l 654 650 l 647 758 l 428 758 l 371 468 l 514 468 l 554 560 z "},"Ẻ":{"ha":744,"x_min":-18,"x_max":767,"o":"m 0 0 m 554 560 l 624 560 l 572 294 l 503 294 l 496 390 l 356 390 l 299 96 l 539 96 l 597 225 l 671 225 l 628 0 l -18 0 l -7 63 l 110 96 l 239 758 l 133 790 l 146 853 l 767 853 l 728 650 l 654 650 l 647 758 l 428 758 l 371 468 l 514 468 l 554 560 m 456 951 q 467 975 456 967 q 506 994 479 983 q 543 1013 531 1004 q 556 1035 556 1021 q 508 1060 556 1060 q 469 1057 500 1060 l 453 1019 l 397 1019 l 403 1093 q 533 1108 475 1108 q 628 1090 594 1108 q 661 1040 661 1072 q 644 1000 661 1017 q 600 975 626 983 q 572 967 593 974 q 538 950 550 960 q 525 926 525 940 l 457 926 l 456 951 z "},"Ȇ":{"ha":744,"x_min":-18,"x_max":767,"o":"m 0 0 m 554 560 l 624 560 l 572 294 l 503 294 l 496 390 l 356 390 l 299 96 l 539 96 l 597 225 l 671 225 l 628 0 l -18 0 l -7 63 l 110 96 l 239 758 l 133 790 l 146 853 l 767 853 l 728 650 l 654 650 l 647 758 l 428 758 l 371 468 l 514 468 l 554 560 m 508 1108 q 618 1074 585 1108 q 651 985 651 1040 q 639 918 651 953 l 561 918 q 564 943 564 932 q 550 988 564 972 q 492 1003 536 1003 q 410 981 432 1003 q 378 918 389 960 l 303 918 q 366 1057 321 1006 q 508 1108 411 1108 z "},"Ē":{"ha":744,"x_min":-18,"x_max":767,"o":"m 326 1053 l 689 1053 l 674 943 l 311 943 l 326 1053 m 554 560 l 624 560 l 572 294 l 503 294 l 496 390 l 356 390 l 299 96 l 539 96 l 597 225 l 671 225 l 628 0 l -18 0 l -7 63 l 110 96 l 239 758 l 133 790 l 146 853 l 767 853 l 728 650 l 654 650 l 647 758 l 428 758 l 371 468 l 514 468 l 554 560 z "},"Ę":{"ha":744,"x_min":-18,"x_max":767,"o":"m 532 -328 q 434 -298 464 -328 q 404 -222 404 -268 q 443 -117 404 -176 q 560 0 482 -57 l -18 0 l -7 63 l 110 96 l 239 758 l 133 790 l 146 853 l 767 853 l 728 650 l 654 650 l 647 758 l 428 758 l 371 468 l 514 468 l 554 560 l 624 560 l 572 294 l 503 294 l 496 390 l 356 390 l 299 96 l 539 96 l 597 225 l 671 225 l 628 0 q 559 -92 592 -33 q 526 -185 526 -151 q 579 -242 526 -242 q 668 -211 619 -242 l 696 -242 q 674 -267 696 -244 q 615 -308 651 -289 q 532 -328 579 -328 z "},"Ẽ":{"ha":744,"x_min":-19,"x_max":765,"o":"m 754 1054 q 635 910 694 910 q 499 938 596 910 q 390 961 417 961 q 363 951 375 961 q 344 931 351 942 q 335 918 336 921 l 269 944 q 324 1048 292 1007 q 390 1089 357 1089 q 525 1061 431 1089 q 635 1038 607 1038 q 663 1047 650 1038 q 684 1067 676 1057 q 693 1081 692 1078 l 754 1054 m 553 560 l 622 560 l 571 294 l 501 294 l 494 390 l 354 390 l 297 96 l 538 96 l 596 225 l 669 225 l 626 0 l -19 0 l -8 63 l 108 96 l 238 758 l 132 790 l 144 853 l 765 853 l 726 650 l 653 650 l 646 758 l 426 758 l 369 468 l 513 468 l 553 560 z "},"F":{"ha":704,"x_min":-18,"x_max":774,"o":"m 774 853 l 735 650 l 661 650 l 654 758 l 428 758 l 367 444 l 515 444 l 556 536 l 625 536 l 574 271 l 504 271 l 497 367 l 351 367 l 299 96 l 418 65 l 406 0 l -18 0 l -7 63 l 110 96 l 239 758 l 133 790 l 146 853 l 774 853 z "},"G":{"ha":822,"x_min":50,"x_max":822,"o":"m 665 757 q 601 772 632 767 q 528 778 571 778 q 315 631 375 778 q 256 293 256 485 q 287 137 256 192 q 410 82 318 82 q 508 92 471 82 l 550 307 l 447 339 l 460 401 l 822 401 l 810 336 l 725 310 l 674 47 q 543 3 622 21 q 375 -14 464 -14 q 126 63 201 -14 q 50 303 50 140 q 106 588 50 458 q 274 795 163 718 q 544 872 386 872 q 692 860 624 872 q 806 831 760 849 l 751 617 l 675 617 l 665 757 z "},"Ǵ":{"ha":822,"x_min":50,"x_max":822,"o":"m 50 0 m 665 757 q 601 772 632 767 q 528 778 571 778 q 315 631 375 778 q 256 293 256 485 q 287 137 256 192 q 410 82 318 82 q 508 92 471 82 l 550 307 l 447 339 l 460 401 l 822 401 l 810 336 l 725 310 l 674 47 q 543 3 622 21 q 375 -14 464 -14 q 126 63 201 -14 q 50 303 50 140 q 106 588 50 458 q 274 795 163 718 q 544 872 386 872 q 692 860 624 872 q 806 831 760 849 l 751 617 l 675 617 l 665 757 m 475 881 l 438 929 l 654 1111 l 792 1064 l 792 1032 l 475 881 z "},"Ğ":{"ha":822,"x_min":50,"x_max":822,"o":"m 529 904 q 419 938 453 904 q 386 1028 386 972 q 399 1094 386 1060 l 476 1094 q 474 1069 474 1081 q 488 1025 474 1040 q 546 1010 501 1010 q 627 1031 606 1010 q 660 1094 649 1053 l 735 1094 q 672 956 717 1007 q 529 904 626 904 m 665 757 q 601 772 632 767 q 528 778 571 778 q 315 631 375 778 q 256 293 256 485 q 287 137 256 192 q 410 82 318 82 q 508 92 471 82 l 550 307 l 447 339 l 460 401 l 822 401 l 810 336 l 725 310 l 674 47 q 543 3 622 21 q 375 -14 464 -14 q 126 63 201 -14 q 50 303 50 140 q 106 588 50 458 q 274 795 163 718 q 544 872 386 872 q 692 860 624 872 q 806 831 760 849 l 751 617 l 675 617 l 665 757 z "},"Ǧ":{"ha":822,"x_min":50,"x_max":822,"o":"m 50 0 m 665 757 q 601 772 632 767 q 528 778 571 778 q 315 631 375 778 q 256 293 256 485 q 287 137 256 192 q 410 82 318 82 q 508 92 471 82 l 550 307 l 447 339 l 460 401 l 822 401 l 810 336 l 725 310 l 674 47 q 543 3 622 21 q 375 -14 464 -14 q 126 63 201 -14 q 50 303 50 140 q 106 588 50 458 q 274 795 163 718 q 544 872 386 872 q 692 860 624 872 q 806 831 760 849 l 751 617 l 675 617 l 665 757 m 376 1104 l 526 1010 l 713 1104 l 744 1063 l 567 888 l 449 888 l 335 1068 l 376 1104 z "},"Ĝ":{"ha":822,"x_min":50,"x_max":822,"o":"m 50 0 m 665 757 q 601 772 632 767 q 528 778 571 778 q 315 631 375 778 q 256 293 256 485 q 287 137 256 192 q 410 82 318 82 q 508 92 471 82 l 550 307 l 447 339 l 460 401 l 822 401 l 810 336 l 725 310 l 674 47 q 543 3 622 21 q 375 -14 464 -14 q 126 63 201 -14 q 50 303 50 140 q 106 588 50 458 q 274 795 163 718 q 544 872 386 872 q 692 860 624 872 q 806 831 760 849 l 751 617 l 675 617 l 665 757 m 686 888 l 536 982 l 350 888 l 318 929 l 496 1104 l 614 1104 l 728 924 l 686 888 z "},"Ģ":{"ha":822,"x_min":50,"x_max":822,"o":"m 665 757 q 601 772 632 767 q 528 778 571 778 q 315 631 375 778 q 256 293 256 485 q 287 137 256 192 q 410 82 318 82 q 508 92 471 82 l 550 307 l 447 339 l 460 401 l 822 401 l 810 336 l 725 310 l 674 47 q 543 3 622 21 q 375 -14 464 -14 q 126 63 201 -14 q 50 303 50 140 q 106 588 50 458 q 274 795 163 718 q 544 872 386 872 q 692 860 624 872 q 806 831 760 849 l 751 617 l 675 617 l 665 757 m 314 -328 l 258 -312 l 308 -61 l 436 -33 l 467 -67 l 314 -328 z "},"Ġ":{"ha":822,"x_min":50,"x_max":822,"o":"m 50 0 m 665 757 q 601 772 632 767 q 528 778 571 778 q 315 631 375 778 q 256 293 256 485 q 287 137 256 192 q 410 82 318 82 q 508 92 471 82 l 550 307 l 447 339 l 460 401 l 822 401 l 810 336 l 725 310 l 674 47 q 543 3 622 21 q 375 -14 464 -14 q 126 63 201 -14 q 50 303 50 140 q 106 588 50 458 q 274 795 163 718 q 544 872 386 872 q 692 860 624 872 q 806 831 760 849 l 751 617 l 675 617 l 665 757 m 656 993 q 622 914 656 946 q 542 882 589 882 q 458 915 494 882 q 422 993 422 947 q 458 1075 422 1040 q 542 1110 494 1110 q 622 1075 589 1110 q 656 993 656 1040 z "},"H":{"ha":979,"x_min":-21,"x_max":1038,"o":"m -21 0 l -10 63 l 107 96 l 236 758 l 131 790 l 143 853 l 554 853 l 542 790 l 425 758 l 369 469 l 664 469 l 719 758 l 614 790 l 626 853 l 1038 853 l 1025 790 l 908 758 l 779 96 l 883 63 l 872 0 l 463 0 l 474 63 l 590 96 l 646 378 l 351 378 l 296 96 l 400 63 l 389 0 l -21 0 z "},"Ħ":{"ha":979,"x_min":-21,"x_max":1038,"o":"m 1025 790 l 908 758 l 881 618 l 986 618 l 971 542 l 867 542 l 779 96 l 883 63 l 872 0 l 463 0 l 474 63 l 590 96 l 638 335 l 343 335 l 296 96 l 400 63 l 389 0 l -21 0 l -10 63 l 107 96 l 194 542 l 88 542 l 103 618 l 208 618 l 236 758 l 131 790 l 143 853 l 554 853 l 542 790 l 425 758 l 397 618 l 692 618 l 719 758 l 614 790 l 626 853 l 1038 853 l 1025 790 m 654 426 l 678 542 l 383 542 l 360 426 l 654 426 z "},"Ĥ":{"ha":979,"x_min":-21,"x_max":1038,"o":"m 0 0 m -21 0 l -10 63 l 107 96 l 236 758 l 131 790 l 143 853 l 554 853 l 542 790 l 425 758 l 369 469 l 664 469 l 719 758 l 614 790 l 626 853 l 1038 853 l 1025 790 l 908 758 l 779 96 l 883 63 l 872 0 l 463 0 l 474 63 l 590 96 l 646 378 l 351 378 l 296 96 l 400 63 l 389 0 l -21 0 m 765 888 l 615 982 l 429 888 l 397 929 l 575 1104 l 693 1104 l 807 924 l 765 888 z "},"Ḥ":{"ha":979,"x_min":-21,"x_max":1038,"o":"m 0 0 m -21 0 l -10 63 l 107 96 l 236 758 l 131 790 l 143 853 l 554 853 l 542 790 l 425 758 l 369 469 l 664 469 l 719 758 l 614 790 l 626 853 l 1038 853 l 1025 790 l 908 758 l 779 96 l 883 63 l 872 0 l 463 0 l 474 63 l 590 96 l 646 378 l 351 378 l 296 96 l 400 63 l 389 0 l -21 0 m 392 -56 q 465 -87 433 -56 q 497 -160 497 -118 q 466 -232 497 -201 q 392 -262 435 -262 q 319 -232 350 -262 q 288 -160 288 -201 q 319 -86 288 -117 q 392 -56 350 -56 z "},"I":{"ha":496,"x_min":-18,"x_max":557,"o":"m -18 0 l -7 63 l 110 96 l 239 758 l 133 790 l 146 853 l 557 853 l 544 790 l 428 758 l 299 96 l 403 63 l 392 0 l -18 0 z "},"Ĳ":{"ha":982,"x_min":-18,"x_max":1058,"o":"m 0 0 m -18 0 l -7 63 l 110 96 l 239 758 l 133 790 l 146 853 l 557 853 l 544 790 l 428 758 l 299 96 l 403 63 l 392 0 l -18 0 m 515 -208 q 381 -164 433 -208 l 396 -112 l 482 -112 q 565 -69 538 -112 q 610 57 593 -26 l 746 758 l 642 790 l 653 853 l 1058 853 l 1047 790 l 929 758 l 799 88 q 696 -142 767 -76 q 515 -208 625 -208 z "},"Í":{"ha":496,"x_min":-18,"x_max":571,"o":"m 254 881 l 217 929 l 433 1111 l 571 1064 l 571 1032 l 254 881 m -18 0 l -7 63 l 110 96 l 239 758 l 133 790 l 146 853 l 557 853 l 544 790 l 428 758 l 299 96 l 403 63 l 392 0 l -18 0 z "},"Ĭ":{"ha":496,"x_min":-18,"x_max":557,"o":"m 0 0 m -18 0 l -7 63 l 110 96 l 239 758 l 133 790 l 146 853 l 557 853 l 544 790 l 428 758 l 299 96 l 403 63 l 392 0 l -18 0 m 346 904 q 236 938 269 904 q 203 1028 203 972 q 215 1094 203 1060 l 293 1094 q 290 1069 290 1081 q 304 1025 290 1040 q 363 1010 318 1010 q 444 1031 422 1010 q 476 1094 465 1053 l 551 1094 q 488 956 533 1007 q 346 904 443 904 z "},"Ǐ":{"ha":496,"x_min":-18,"x_max":582,"o":"m 0 0 m -18 0 l -7 63 l 110 96 l 239 758 l 133 790 l 146 853 l 557 853 l 544 790 l 428 758 l 299 96 l 403 63 l 392 0 l -18 0 m 214 1104 l 364 1010 l 550 1104 l 582 1063 l 404 888 l 286 888 l 172 1068 l 214 1104 z "},"Î":{"ha":496,"x_min":-18,"x_max":569,"o":"m 192 888 l 160 929 l 338 1104 l 456 1104 l 569 924 l 528 888 l 378 982 l 192 888 m -18 0 l -7 63 l 110 96 l 239 758 l 133 790 l 146 853 l 557 853 l 544 790 l 428 758 l 299 96 l 403 63 l 392 0 l -18 0 z "},"Ȉ":{"ha":496,"x_min":-18,"x_max":557,"o":"m 0 0 m -18 0 l -7 63 l 110 96 l 239 758 l 133 790 l 146 853 l 557 853 l 544 790 l 428 758 l 299 96 l 403 63 l 392 0 l -18 0 m 242 876 l 74 1100 l 79 1131 l 207 1131 l 292 908 l 242 876 m 465 876 l 297 1100 l 303 1131 l 431 1131 l 515 908 l 465 876 z "},"Ï":{"ha":496,"x_min":-18,"x_max":643,"o":"m 219 899 q 143 927 175 899 q 111 999 111 956 q 144 1070 111 1040 q 219 1100 176 1100 q 292 1070 261 1100 q 322 999 322 1040 q 292 927 322 956 q 219 899 263 899 m 542 899 q 466 927 497 899 q 435 999 435 956 q 466 1071 435 1042 q 542 1100 497 1100 q 613 1070 582 1100 q 643 999 643 1040 q 613 927 643 956 q 542 899 582 899 m -18 0 l -7 63 l 110 96 l 239 758 l 133 790 l 146 853 l 557 853 l 544 790 l 428 758 l 299 96 l 403 63 l 392 0 l -18 0 z "},"İ":{"ha":496,"x_min":-18,"x_max":557,"o":"m 379 882 q 296 915 332 882 q 260 993 260 947 q 296 1075 260 1040 q 379 1110 332 1110 q 460 1075 426 1110 q 493 993 493 1040 q 460 914 493 946 q 379 882 426 882 m -18 0 l -7 63 l 110 96 l 239 758 l 133 790 l 146 853 l 557 853 l 544 790 l 428 758 l 299 96 l 403 63 l 392 0 l -18 0 z "},"Ị":{"ha":496,"x_min":-18,"x_max":557,"o":"m 0 0 m -18 0 l -7 63 l 110 96 l 239 758 l 133 790 l 146 853 l 557 853 l 544 790 l 428 758 l 299 96 l 403 63 l 392 0 l -18 0 m 150 -56 q 224 -87 192 -56 q 256 -160 256 -118 q 224 -232 256 -201 q 150 -262 193 -262 q 77 -232 108 -262 q 46 -160 46 -201 q 77 -86 46 -117 q 150 -56 108 -56 z "},"Ì":{"ha":496,"x_min":-18,"x_max":557,"o":"m 482 881 l 160 1032 l 165 1064 l 300 1111 l 514 929 l 482 881 m -18 0 l -7 63 l 110 96 l 239 758 l 133 790 l 146 853 l 557 853 l 544 790 l 428 758 l 299 96 l 403 63 l 392 0 l -18 0 z "},"Ỉ":{"ha":496,"x_min":-18,"x_max":557,"o":"m 0 0 m -18 0 l -7 63 l 110 96 l 239 758 l 133 790 l 146 853 l 557 853 l 544 790 l 428 758 l 299 96 l 403 63 l 392 0 l -18 0 m 332 951 q 344 975 332 967 q 382 994 356 983 q 419 1013 407 1004 q 432 1035 432 1021 q 385 1060 432 1060 q 346 1057 376 1060 l 329 1019 l 274 1019 l 279 1093 q 410 1108 351 1108 q 504 1090 471 1108 q 538 1040 538 1072 q 520 1000 538 1017 q 476 975 503 983 q 448 967 469 974 q 414 950 426 960 q 401 926 401 940 l 333 926 l 332 951 z "},"Ȋ":{"ha":496,"x_min":-18,"x_max":557,"o":"m 0 0 m -18 0 l -7 63 l 110 96 l 239 758 l 133 790 l 146 853 l 557 853 l 544 790 l 428 758 l 299 96 l 403 63 l 392 0 l -18 0 m 385 1108 q 494 1074 461 1108 q 528 985 528 1040 q 515 918 528 953 l 438 918 q 440 943 440 932 q 426 988 440 972 q 368 1003 413 1003 q 287 981 308 1003 q 254 918 265 960 l 179 918 q 242 1057 197 1006 q 385 1108 288 1108 z "},"Ī":{"ha":496,"x_min":-18,"x_max":581,"o":"m 203 943 l 218 1053 l 581 1053 l 565 943 l 203 943 m -18 0 l -7 63 l 110 96 l 239 758 l 133 790 l 146 853 l 557 853 l 544 790 l 428 758 l 299 96 l 403 63 l 392 0 l -18 0 z "},"Į":{"ha":496,"x_min":-18,"x_max":557,"o":"m 204 -328 q 106 -296 136 -328 q 76 -218 76 -264 q 121 -106 76 -167 q 238 0 165 -44 l -18 0 l -7 63 l 110 96 l 239 758 l 133 790 l 146 853 l 557 853 l 544 790 l 428 758 l 299 96 l 404 63 l 393 0 q 304 -29 350 -1 q 228 -99 258 -57 q 199 -181 199 -140 q 251 -242 199 -242 q 340 -211 292 -242 l 368 -242 q 346 -267 368 -244 q 288 -308 324 -289 q 204 -328 251 -328 z "},"Ĩ":{"ha":496,"x_min":-18,"x_max":608,"o":"m 489 910 q 353 938 450 910 q 244 961 271 961 q 217 951 229 961 q 198 931 206 942 q 189 918 190 921 l 124 944 q 178 1048 146 1007 q 244 1089 211 1089 q 379 1061 285 1089 q 489 1038 461 1038 q 517 1047 504 1038 q 538 1067 531 1057 q 547 1081 546 1078 l 608 1054 q 489 910 549 910 m -18 0 l -7 63 l 110 96 l 239 758 l 133 790 l 146 853 l 557 853 l 544 790 l 428 758 l 299 96 l 403 63 l 392 0 l -18 0 z "},"J":{"ha":486,"x_min":-115,"x_max":563,"o":"m 19 -208 q -115 -164 -62 -208 l -100 -112 l -14 -112 q 69 -69 42 -112 q 114 57 97 -26 l 250 758 l 146 790 l 157 853 l 563 853 l 551 790 l 433 758 l 303 88 q 200 -142 271 -76 q 19 -208 129 -208 z "},"Ĵ":{"ha":486,"x_min":-115,"x_max":563,"o":"m 0 0 m 19 -208 q -115 -164 -62 -208 l -100 -112 l -14 -112 q 69 -69 42 -112 q 114 57 97 -26 l 250 758 l 146 790 l 157 853 l 563 853 l 551 790 l 433 758 l 303 88 q 200 -142 271 -76 q 19 -208 129 -208 m 518 888 l 368 982 l 182 888 l 150 929 l 328 1104 l 446 1104 l 560 924 l 518 888 z "},"K":{"ha":800,"x_min":-18,"x_max":915,"o":"m 772 0 l 517 0 l 353 376 l 299 96 l 382 64 l 369 0 l -18 0 l -7 63 l 110 96 l 239 758 l 133 790 l 146 853 l 543 853 l 531 788 l 428 758 l 374 482 l 675 769 l 607 790 l 619 853 l 915 853 l 904 793 l 808 763 l 501 471 l 679 101 l 783 63 l 772 0 z "},"Ķ":{"ha":800,"x_min":-19,"x_max":914,"o":"m 771 0 l 515 0 l 351 376 l 297 96 l 381 64 l 368 0 l -19 0 l -8 63 l 108 96 l 238 758 l 132 790 l 144 853 l 542 853 l 529 788 l 426 758 l 372 482 l 674 769 l 606 790 l 618 853 l 914 853 l 903 793 l 807 763 l 500 471 l 678 101 l 782 63 l 771 0 m 310 -328 l 254 -312 l 304 -61 l 432 -33 l 463 -67 l 310 -328 z "},"L":{"ha":650,"x_min":-18,"x_max":636,"o":"m 593 0 l -18 0 l -7 63 l 110 96 l 239 758 l 133 790 l 146 853 l 557 853 l 544 790 l 428 758 l 299 96 l 504 96 l 563 225 l 636 225 l 593 0 z "},"Ǉ":{"ha":1136,"x_min":-18,"x_max":1213,"o":"m 0 0 m 593 0 l -18 0 l -7 63 l 110 96 l 239 758 l 133 790 l 146 853 l 557 853 l 544 790 l 428 758 l 299 96 l 504 96 l 563 225 l 636 225 l 593 0 m 669 -208 q 535 -164 588 -208 l 550 -112 l 636 -112 q 719 -69 692 -112 q 764 57 747 -26 l 900 758 l 796 790 l 807 853 l 1213 853 l 1201 790 l 1083 758 l 953 88 q 850 -142 921 -76 q 669 -208 779 -208 z "},"Ĺ":{"ha":650,"x_min":-19,"x_max":635,"o":"m 235 881 l 197 929 l 414 1111 l 551 1064 l 551 1032 l 235 881 m 592 0 l -19 0 l -8 63 l 108 96 l 238 758 l 132 790 l 144 853 l 556 853 l 543 790 l 426 758 l 297 96 l 503 96 l 561 225 l 635 225 l 592 0 z "},"Ľ":{"ha":650,"x_min":-19,"x_max":635,"o":"m 219 1104 l 369 1010 l 556 1104 l 588 1063 l 410 888 l 292 888 l 178 1068 l 219 1104 m 592 0 l -19 0 l -8 63 l 108 96 l 238 758 l 132 790 l 144 853 l 556 853 l 543 790 l 426 758 l 297 96 l 503 96 l 561 225 l 635 225 l 592 0 z "},"Ļ":{"ha":650,"x_min":-19,"x_max":635,"o":"m 592 0 l -19 0 l -8 63 l 108 96 l 238 758 l 132 790 l 144 853 l 556 853 l 543 790 l 426 758 l 297 96 l 503 96 l 561 225 l 635 225 l 592 0 m 232 -328 l 176 -312 l 226 -61 l 354 -33 l 385 -67 l 232 -328 z "},"Ŀ":{"ha":650,"x_min":-18,"x_max":715,"o":"m 0 0 m 593 0 l -18 0 l -7 63 l 110 96 l 239 758 l 133 790 l 146 853 l 557 853 l 544 790 l 428 758 l 299 96 l 504 96 l 563 225 l 636 225 l 593 0 m 715 571 q 683 494 715 525 q 603 464 650 464 q 524 495 558 464 q 490 571 490 526 q 524 650 490 617 q 603 683 558 683 q 683 651 650 683 q 715 571 715 618 z "},"ǈ":{"ha":1056,"x_min":-18,"x_max":1061,"o":"m 0 0 m 593 0 l -18 0 l -7 63 l 110 96 l 239 758 l 133 790 l 146 853 l 557 853 l 544 790 l 428 758 l 299 96 l 504 96 l 563 225 l 636 225 l 593 0 m 956 813 q 883 843 914 813 q 851 915 851 874 q 883 989 851 958 q 956 1019 914 1019 q 1029 988 997 1019 q 1061 915 1061 957 q 1030 843 1061 874 q 956 813 999 813 m 625 -256 q 540 -245 581 -256 q 474 -224 499 -235 q 443 -208 450 -212 l 467 -136 q 568 -157 518 -157 q 656 -125 619 -157 q 704 -22 692 -93 l 825 599 l 733 608 l 719 665 q 867 700 785 685 q 986 715 949 715 q 1018 683 1018 715 q 978 468 1018 676 q 883 -35 911 119 q 800 -198 864 -140 q 625 -256 736 -256 z "},"Ł":{"ha":644,"x_min":-19,"x_max":635,"o":"m 592 0 l -19 0 l -8 63 l 108 96 l 154 331 l 53 286 l 18 368 l 175 438 l 238 758 l 132 790 l 144 853 l 556 853 l 543 790 l 426 758 l 382 531 l 504 586 l 540 504 l 361 424 l 297 96 l 503 96 l 561 225 l 635 225 l 592 0 z "},"M":{"ha":1097,"x_min":-40,"x_max":1150,"o":"m 276 0 l -40 0 l -28 63 l 88 96 l 247 758 l 144 790 l 156 853 l 447 853 l 529 226 l 846 853 l 1150 853 l 1139 790 l 1021 758 l 925 96 l 1028 63 l 1015 0 l 611 0 l 624 63 l 740 96 l 810 585 l 508 6 l 386 -14 l 303 576 l 185 96 l 289 63 l 276 0 z "},"N":{"ha":929,"x_min":-18,"x_max":999,"o":"m 675 853 l 999 853 l 988 790 l 869 758 l 722 0 l 579 -17 l 310 607 l 211 96 l 315 63 l 303 0 l -18 0 l -6 63 l 111 96 l 239 758 l 135 790 l 146 853 l 403 853 l 669 239 l 768 758 l 664 790 l 675 853 z "},"Ǌ":{"ha":1415,"x_min":-18,"x_max":1492,"o":"m 0 0 m 675 853 l 999 853 l 988 790 l 869 758 l 722 0 l 579 -17 l 310 607 l 211 96 l 315 63 l 303 0 l -18 0 l -6 63 l 111 96 l 239 758 l 135 790 l 146 853 l 403 853 l 669 239 l 768 758 l 664 790 l 675 853 m 949 -208 q 814 -164 867 -208 l 829 -112 l 915 -112 q 999 -69 971 -112 q 1043 57 1026 -26 l 1179 758 l 1075 790 l 1086 853 l 1492 853 l 1481 790 l 1363 758 l 1232 88 q 1129 -142 1200 -76 q 949 -208 1058 -208 z "},"Ń":{"ha":929,"x_min":-18,"x_max":999,"o":"m 510 881 l 472 929 l 689 1111 l 826 1064 l 826 1032 l 510 881 m 675 853 l 999 853 l 988 790 l 869 758 l 722 0 l 579 -17 l 310 607 l 211 96 l 315 63 l 303 0 l -18 0 l -6 63 l 111 96 l 239 758 l 135 790 l 146 853 l 403 853 l 669 239 l 768 758 l 664 790 l 675 853 z "},"Ň":{"ha":929,"x_min":-18,"x_max":999,"o":"m 454 1104 l 604 1010 l 790 1104 l 822 1063 l 644 888 l 526 888 l 413 1068 l 454 1104 m 675 853 l 999 853 l 988 790 l 869 758 l 722 0 l 579 -17 l 310 607 l 211 96 l 315 63 l 303 0 l -18 0 l -6 63 l 111 96 l 239 758 l 135 790 l 146 853 l 403 853 l 669 239 l 768 758 l 664 790 l 675 853 z "},"Ņ":{"ha":929,"x_min":-18,"x_max":999,"o":"m 675 853 l 999 853 l 988 790 l 869 758 l 722 0 l 579 -17 l 310 607 l 211 96 l 315 63 l 303 0 l -18 0 l -6 63 l 111 96 l 239 758 l 135 790 l 146 853 l 403 853 l 669 239 l 768 758 l 664 790 l 675 853 m 367 -328 l 311 -312 l 361 -61 l 489 -33 l 519 -67 l 367 -328 z "},"Ṅ":{"ha":929,"x_min":-18,"x_max":999,"o":"m 0 0 m 675 853 l 999 853 l 988 790 l 869 758 l 722 0 l 579 -17 l 310 607 l 211 96 l 315 63 l 303 0 l -18 0 l -6 63 l 111 96 l 239 758 l 135 790 l 146 853 l 403 853 l 669 239 l 768 758 l 664 790 l 675 853 m 710 993 q 676 914 710 946 q 596 882 643 882 q 513 915 549 882 q 476 993 476 947 q 513 1075 476 1040 q 596 1110 549 1110 q 676 1075 643 1110 q 710 993 710 1040 z "},"Ŋ":{"ha":929,"x_min":-18,"x_max":999,"o":"m 999 853 l 988 790 l 869 758 l 739 88 q 634 -178 707 -101 q 449 -256 561 -256 q 357 -242 404 -256 q 274 -208 310 -228 l 297 -136 q 347 -152 317 -147 q 401 -157 376 -157 q 503 -105 468 -157 q 549 53 538 -53 l 310 607 l 211 96 l 315 63 l 303 0 l -18 0 l -6 63 l 111 96 l 239 758 l 135 790 l 146 853 l 403 853 l 669 239 l 768 758 l 664 790 l 675 853 l 999 853 z "},"Ɲ":{"ha":929,"x_min":-174,"x_max":999,"o":"m 999 853 l 988 790 l 869 758 l 722 0 l 579 -17 l 310 608 q 188 -35 253 297 q 113 -198 167 -140 q -29 -256 60 -256 q -174 -208 -104 -256 l -150 -136 q -51 -157 -99 -157 q 88 -22 61 -157 l 239 758 l 135 790 l 146 853 l 403 853 l 669 239 l 768 758 l 664 790 l 675 853 l 999 853 z "},"ǋ":{"ha":1335,"x_min":-18,"x_max":1340,"o":"m 0 0 m 675 853 l 999 853 l 988 790 l 869 758 l 722 0 l 579 -17 l 310 607 l 211 96 l 315 63 l 303 0 l -18 0 l -6 63 l 111 96 l 239 758 l 135 790 l 146 853 l 403 853 l 669 239 l 768 758 l 664 790 l 675 853 m 1235 813 q 1162 843 1193 813 q 1131 915 1131 874 q 1162 989 1131 958 q 1235 1019 1193 1019 q 1308 988 1276 1019 q 1340 915 1340 957 q 1309 843 1340 874 q 1235 813 1278 813 m 904 -256 q 819 -245 860 -256 q 753 -224 778 -235 q 722 -208 729 -212 l 746 -136 q 847 -157 797 -157 q 935 -125 899 -157 q 983 -22 971 -93 l 1104 599 l 1013 608 l 999 665 q 1146 700 1064 685 q 1265 715 1228 715 q 1297 683 1297 715 q 1257 468 1297 676 q 1163 -35 1190 119 q 1079 -198 1143 -140 q 904 -256 1015 -256 z "},"Ñ":{"ha":929,"x_min":-18,"x_max":999,"o":"m 843 1054 q 724 910 783 910 q 588 938 685 910 q 479 961 506 961 q 452 951 464 961 q 433 931 440 942 q 424 918 425 921 l 358 944 q 413 1048 381 1007 q 479 1089 446 1089 q 614 1061 519 1089 q 724 1038 696 1038 q 752 1047 739 1038 q 773 1067 765 1057 q 782 1081 781 1078 l 843 1054 m 675 853 l 999 853 l 988 790 l 869 758 l 722 0 l 579 -17 l 310 607 l 211 96 l 315 63 l 303 0 l -18 0 l -6 63 l 111 96 l 239 758 l 135 790 l 146 853 l 403 853 l 669 239 l 768 758 l 664 790 l 675 853 z "},"O":{"ha":875,"x_min":50,"x_max":858,"o":"m 368 -14 q 124 60 197 -14 q 50 289 50 135 q 108 575 50 442 q 276 790 165 708 q 540 872 388 872 q 858 581 858 872 q 801 290 858 426 q 632 69 743 153 q 368 -14 521 -14 m 388 81 q 543 158 483 81 q 628 351 603 236 q 654 586 654 467 q 626 731 654 685 q 522 778 597 778 q 358 689 418 778 q 276 486 299 600 q 254 282 254 372 q 281 129 254 178 q 388 81 307 81 z "},"Ó":{"ha":875,"x_min":50,"x_max":858,"o":"m 50 0 m 368 -14 q 124 60 197 -14 q 50 289 50 135 q 108 575 50 442 q 276 790 165 708 q 540 872 388 872 q 858 581 858 872 q 801 290 858 426 q 632 69 743 153 q 368 -14 521 -14 m 388 81 q 543 158 483 81 q 628 351 603 236 q 654 586 654 467 q 626 731 654 685 q 522 778 597 778 q 358 689 418 778 q 276 486 299 600 q 254 282 254 372 q 281 129 254 178 q 388 81 307 81 m 501 881 l 464 929 l 681 1111 l 818 1064 l 818 1032 l 501 881 z "},"Ŏ":{"ha":875,"x_min":50,"x_max":858,"o":"m 50 0 m 368 -14 q 124 60 197 -14 q 50 289 50 135 q 108 575 50 442 q 276 790 165 708 q 540 872 388 872 q 858 581 858 872 q 801 290 858 426 q 632 69 743 153 q 368 -14 521 -14 m 388 81 q 543 158 483 81 q 628 351 603 236 q 654 586 654 467 q 626 731 654 685 q 522 778 597 778 q 358 689 418 778 q 276 486 299 600 q 254 282 254 372 q 281 129 254 178 q 388 81 307 81 m 535 904 q 425 938 458 904 q 392 1028 392 972 q 404 1094 392 1060 l 482 1094 q 479 1069 479 1081 q 493 1025 479 1040 q 551 1010 507 1010 q 633 1031 611 1010 q 665 1094 654 1053 l 740 1094 q 677 956 722 1007 q 535 904 632 904 z "},"Ǒ":{"ha":875,"x_min":50,"x_max":858,"o":"m 50 0 m 368 -14 q 124 60 197 -14 q 50 289 50 135 q 108 575 50 442 q 276 790 165 708 q 540 872 388 872 q 858 581 858 872 q 801 290 858 426 q 632 69 743 153 q 368 -14 521 -14 m 388 81 q 543 158 483 81 q 628 351 603 236 q 654 586 654 467 q 626 731 654 685 q 522 778 597 778 q 358 689 418 778 q 276 486 299 600 q 254 282 254 372 q 281 129 254 178 q 388 81 307 81 m 403 1104 l 553 1010 l 739 1104 l 771 1063 l 593 888 l 475 888 l 361 1068 l 403 1104 z "},"Ô":{"ha":875,"x_min":50,"x_max":858,"o":"m 365 888 l 333 929 l 511 1104 l 629 1104 l 743 924 l 701 888 l 551 982 l 365 888 m 368 -14 q 124 60 197 -14 q 50 289 50 135 q 108 575 50 442 q 276 790 165 708 q 540 872 388 872 q 858 581 858 872 q 801 290 858 426 q 632 69 743 153 q 368 -14 521 -14 m 388 81 q 543 158 483 81 q 628 351 603 236 q 654 586 654 467 q 626 731 654 685 q 522 778 597 778 q 358 689 418 778 q 276 486 299 600 q 254 282 254 372 q 281 129 254 178 q 388 81 307 81 z "},"Ố":{"ha":875,"x_min":50,"x_max":983,"o":"m 736 949 l 685 982 l 828 1228 l 974 1228 l 983 1197 l 736 949 m 671 888 l 521 982 l 335 888 l 303 929 l 481 1104 l 599 1104 l 713 924 l 671 888 m 368 -14 q 124 60 197 -14 q 50 289 50 135 q 108 575 50 442 q 276 790 165 708 q 540 872 388 872 q 858 581 858 872 q 801 290 858 426 q 632 69 743 153 q 368 -14 521 -14 m 388 81 q 543 158 483 81 q 628 351 603 236 q 654 586 654 467 q 626 731 654 685 q 522 778 597 778 q 358 689 418 778 q 276 486 299 600 q 254 282 254 372 q 281 129 254 178 q 388 81 307 81 z "},"Ộ":{"ha":875,"x_min":50,"x_max":858,"o":"m 50 0 m 368 -14 q 124 60 197 -14 q 50 289 50 135 q 108 575 50 442 q 276 790 165 708 q 540 872 388 872 q 858 581 858 872 q 801 290 858 426 q 632 69 743 153 q 368 -14 521 -14 m 388 81 q 543 158 483 81 q 628 351 603 236 q 654 586 654 467 q 626 731 654 685 q 522 778 597 778 q 358 689 418 778 q 276 486 299 600 q 254 282 254 372 q 281 129 254 178 q 388 81 307 81 m 339 -56 q 413 -87 381 -56 q 444 -160 444 -118 q 413 -232 444 -201 q 339 -262 382 -262 q 266 -232 297 -262 q 235 -160 235 -201 q 266 -86 235 -117 q 339 -56 297 -56 m 713 888 l 563 982 l 376 888 l 344 929 l 522 1104 l 640 1104 l 754 924 l 713 888 z "},"Ồ":{"ha":875,"x_min":50,"x_max":858,"o":"m 729 949 l 579 1204 l 603 1228 l 713 1228 l 785 972 l 729 949 m 671 888 l 521 982 l 335 888 l 303 929 l 481 1104 l 599 1104 l 713 924 l 671 888 m 368 -14 q 124 60 197 -14 q 50 289 50 135 q 108 575 50 442 q 276 790 165 708 q 540 872 388 872 q 858 581 858 872 q 801 290 858 426 q 632 69 743 153 q 368 -14 521 -14 m 388 81 q 543 158 483 81 q 628 351 603 236 q 654 586 654 467 q 626 731 654 685 q 522 778 597 778 q 358 689 418 778 q 276 486 299 600 q 254 282 254 372 q 281 129 254 178 q 388 81 307 81 z "},"Ổ":{"ha":875,"x_min":50,"x_max":942,"o":"m 50 0 m 368 -14 q 124 60 197 -14 q 50 289 50 135 q 108 575 50 442 q 276 790 165 708 q 540 872 388 872 q 858 581 858 872 q 801 290 858 426 q 632 69 743 153 q 368 -14 521 -14 m 388 81 q 543 158 483 81 q 628 351 603 236 q 654 586 654 467 q 626 731 654 685 q 522 778 597 778 q 358 689 418 778 q 276 486 299 600 q 254 282 254 372 q 281 129 254 178 q 388 81 307 81 m 713 888 l 563 982 l 376 888 l 344 929 l 522 1104 l 640 1104 l 754 924 l 713 888 m 736 1071 q 748 1094 736 1086 q 786 1114 760 1103 q 824 1132 811 1124 q 836 1154 836 1140 q 789 1179 836 1179 q 750 1176 781 1179 l 733 1139 l 678 1139 l 683 1213 q 814 1228 756 1228 q 908 1210 875 1228 q 942 1160 942 1192 q 924 1119 942 1136 q 881 1094 907 1103 q 852 1086 874 1093 q 818 1069 831 1079 q 806 1046 806 1060 l 738 1046 l 736 1071 z "},"Ỗ":{"ha":875,"x_min":50,"x_max":858,"o":"m 50 0 m 368 -14 q 124 60 197 -14 q 50 289 50 135 q 108 575 50 442 q 276 790 165 708 q 540 872 388 872 q 858 581 858 872 q 801 290 858 426 q 632 69 743 153 q 368 -14 521 -14 m 388 81 q 543 158 483 81 q 628 351 603 236 q 654 586 654 467 q 626 731 654 685 q 522 778 597 778 q 358 689 418 778 q 276 486 299 600 q 254 282 254 372 q 281 129 254 178 q 388 81 307 81 m 713 888 l 563 982 l 376 888 l 344 929 l 522 1104 l 640 1104 l 754 924 l 713 888 m 846 1250 q 726 1106 786 1106 q 590 1133 688 1106 q 482 1157 508 1157 q 455 1147 467 1157 q 435 1127 443 1138 q 426 1114 428 1117 l 361 1140 q 416 1244 383 1203 q 482 1285 449 1285 q 617 1257 522 1285 q 726 1233 699 1233 q 755 1243 742 1233 q 776 1263 768 1253 q 785 1276 783 1274 l 846 1250 z "},"Ȍ":{"ha":875,"x_min":50,"x_max":858,"o":"m 50 0 m 368 -14 q 124 60 197 -14 q 50 289 50 135 q 108 575 50 442 q 276 790 165 708 q 540 872 388 872 q 858 581 858 872 q 801 290 858 426 q 632 69 743 153 q 368 -14 521 -14 m 388 81 q 543 158 483 81 q 628 351 603 236 q 654 586 654 467 q 626 731 654 685 q 522 778 597 778 q 358 689 418 778 q 276 486 299 600 q 254 282 254 372 q 281 129 254 178 q 388 81 307 81 m 431 876 l 263 1100 l 268 1131 l 396 1131 l 481 908 l 431 876 m 654 876 l 486 1100 l 492 1131 l 619 1131 l 704 908 l 654 876 z "},"Ö":{"ha":875,"x_min":50,"x_max":858,"o":"m 399 899 q 322 927 354 899 q 290 999 290 956 q 323 1070 290 1040 q 399 1100 356 1100 q 471 1070 440 1100 q 501 999 501 1040 q 472 927 501 956 q 399 899 442 899 m 721 899 q 645 927 676 899 q 614 999 614 956 q 645 1071 614 1042 q 721 1100 676 1100 q 792 1070 761 1100 q 822 999 822 1040 q 792 927 822 956 q 721 899 761 899 m 368 -14 q 124 60 197 -14 q 50 289 50 135 q 108 575 50 442 q 276 790 165 708 q 540 872 388 872 q 858 581 858 872 q 801 290 858 426 q 632 69 743 153 q 368 -14 521 -14 m 388 81 q 543 158 483 81 q 628 351 603 236 q 654 586 654 467 q 626 731 654 685 q 522 778 597 778 q 358 689 418 778 q 276 486 299 600 q 254 282 254 372 q 281 129 254 178 q 388 81 307 81 z "},"Ọ":{"ha":875,"x_min":50,"x_max":858,"o":"m 50 0 m 368 -14 q 124 60 197 -14 q 50 289 50 135 q 108 575 50 442 q 276 790 165 708 q 540 872 388 872 q 858 581 858 872 q 801 290 858 426 q 632 69 743 153 q 368 -14 521 -14 m 388 81 q 543 158 483 81 q 628 351 603 236 q 654 586 654 467 q 626 731 654 685 q 522 778 597 778 q 358 689 418 778 q 276 486 299 600 q 254 282 254 372 q 281 129 254 178 q 388 81 307 81 m 339 -56 q 413 -87 381 -56 q 444 -160 444 -118 q 413 -232 444 -201 q 339 -262 382 -262 q 266 -232 297 -262 q 235 -160 235 -201 q 266 -86 235 -117 q 339 -56 297 -56 z "},"Ò":{"ha":875,"x_min":50,"x_max":858,"o":"m 657 881 l 335 1032 l 340 1064 l 475 1111 l 689 929 l 657 881 m 368 -14 q 124 60 197 -14 q 50 289 50 135 q 108 575 50 442 q 276 790 165 708 q 540 872 388 872 q 858 581 858 872 q 801 290 858 426 q 632 69 743 153 q 368 -14 521 -14 m 388 81 q 543 158 483 81 q 628 351 603 236 q 654 586 654 467 q 626 731 654 685 q 522 778 597 778 q 358 689 418 778 q 276 486 299 600 q 254 282 254 372 q 281 129 254 178 q 388 81 307 81 z "},"Ỏ":{"ha":875,"x_min":50,"x_max":858,"o":"m 50 0 m 368 -14 q 124 60 197 -14 q 50 289 50 135 q 108 575 50 442 q 276 790 165 708 q 540 872 388 872 q 858 581 858 872 q 801 290 858 426 q 632 69 743 153 q 368 -14 521 -14 m 388 81 q 543 158 483 81 q 628 351 603 236 q 654 586 654 467 q 626 731 654 685 q 522 778 597 778 q 358 689 418 778 q 276 486 299 600 q 254 282 254 372 q 281 129 254 178 q 388 81 307 81 m 521 951 q 533 975 521 967 q 571 994 544 983 q 608 1013 596 1004 q 621 1035 621 1021 q 574 1060 621 1060 q 535 1057 565 1060 l 518 1019 l 463 1019 l 468 1093 q 599 1108 540 1108 q 693 1090 660 1108 q 726 1040 726 1072 q 709 1000 726 1017 q 665 975 692 983 q 637 967 658 974 q 603 950 615 960 q 590 926 590 940 l 522 926 l 521 951 z "},"Ơ":{"ha":875,"x_min":50,"x_max":981,"o":"m 981 894 q 935 801 981 840 q 822 744 890 761 q 858 581 858 678 q 801 290 858 426 q 632 69 743 153 q 368 -14 521 -14 q 124 60 197 -14 q 50 289 50 135 q 108 575 50 442 q 276 790 165 708 q 540 872 388 872 q 771 807 690 872 q 826 826 807 810 q 844 879 844 842 q 838 936 844 906 l 846 954 l 963 974 q 976 933 971 956 q 981 894 981 911 m 388 81 q 543 158 483 81 q 628 351 603 236 q 654 586 654 467 q 626 731 654 685 q 522 778 597 778 q 358 689 418 778 q 276 486 299 600 q 254 282 254 372 q 281 129 254 178 q 388 81 307 81 z "},"Ớ":{"ha":875,"x_min":50,"x_max":981,"o":"m 50 0 m 981 894 q 935 801 981 840 q 822 744 890 761 q 858 581 858 678 q 801 290 858 426 q 632 69 743 153 q 368 -14 521 -14 q 124 60 197 -14 q 50 289 50 135 q 108 575 50 442 q 276 790 165 708 q 540 872 388 872 q 771 807 690 872 q 826 826 807 810 q 844 879 844 842 q 838 936 844 906 l 846 954 l 963 974 q 976 933 971 956 q 981 894 981 911 m 388 81 q 543 158 483 81 q 628 351 603 236 q 654 586 654 467 q 626 731 654 685 q 522 778 597 778 q 358 689 418 778 q 276 486 299 600 q 254 282 254 372 q 281 129 254 178 q 388 81 307 81 m 501 881 l 464 929 l 681 1111 l 818 1064 l 818 1032 l 501 881 z "},"Ợ":{"ha":875,"x_min":50,"x_max":981,"o":"m 50 0 m 981 894 q 935 801 981 840 q 822 744 890 761 q 858 581 858 678 q 801 290 858 426 q 632 69 743 153 q 368 -14 521 -14 q 124 60 197 -14 q 50 289 50 135 q 108 575 50 442 q 276 790 165 708 q 540 872 388 872 q 771 807 690 872 q 826 826 807 810 q 844 879 844 842 q 838 936 844 906 l 846 954 l 963 974 q 976 933 971 956 q 981 894 981 911 m 388 81 q 543 158 483 81 q 628 351 603 236 q 654 586 654 467 q 626 731 654 685 q 522 778 597 778 q 358 689 418 778 q 276 486 299 600 q 254 282 254 372 q 281 129 254 178 q 388 81 307 81 m 339 -56 q 413 -87 381 -56 q 444 -160 444 -118 q 413 -232 444 -201 q 339 -262 382 -262 q 266 -232 297 -262 q 235 -160 235 -201 q 266 -86 235 -117 q 339 -56 297 -56 z "},"Ờ":{"ha":875,"x_min":50,"x_max":981,"o":"m 50 0 m 981 894 q 935 801 981 840 q 822 744 890 761 q 858 581 858 678 q 801 290 858 426 q 632 69 743 153 q 368 -14 521 -14 q 124 60 197 -14 q 50 289 50 135 q 108 575 50 442 q 276 790 165 708 q 540 872 388 872 q 771 807 690 872 q 826 826 807 810 q 844 879 844 842 q 838 936 844 906 l 846 954 l 963 974 q 976 933 971 956 q 981 894 981 911 m 388 81 q 543 158 483 81 q 628 351 603 236 q 654 586 654 467 q 626 731 654 685 q 522 778 597 778 q 358 689 418 778 q 276 486 299 600 q 254 282 254 372 q 281 129 254 178 q 388 81 307 81 m 599 881 l 276 1032 l 282 1064 l 417 1111 l 631 929 l 599 881 z "},"Ở":{"ha":875,"x_min":50,"x_max":981,"o":"m 50 0 m 981 894 q 935 801 981 840 q 822 744 890 761 q 858 581 858 678 q 801 290 858 426 q 632 69 743 153 q 368 -14 521 -14 q 124 60 197 -14 q 50 289 50 135 q 108 575 50 442 q 276 790 165 708 q 540 872 388 872 q 771 807 690 872 q 826 826 807 810 q 844 879 844 842 q 838 936 844 906 l 846 954 l 963 974 q 976 933 971 956 q 981 894 981 911 m 388 81 q 543 158 483 81 q 628 351 603 236 q 654 586 654 467 q 626 731 654 685 q 522 778 597 778 q 358 689 418 778 q 276 486 299 600 q 254 282 254 372 q 281 129 254 178 q 388 81 307 81 m 521 951 q 533 975 521 967 q 571 994 544 983 q 608 1013 596 1004 q 621 1035 621 1021 q 574 1060 621 1060 q 535 1057 565 1060 l 518 1019 l 463 1019 l 468 1093 q 599 1108 540 1108 q 693 1090 660 1108 q 726 1040 726 1072 q 709 1000 726 1017 q 665 975 692 983 q 637 967 658 974 q 603 950 615 960 q 590 926 590 940 l 522 926 l 521 951 z "},"Ỡ":{"ha":875,"x_min":50,"x_max":981,"o":"m 50 0 m 981 894 q 935 801 981 840 q 822 744 890 761 q 858 581 858 678 q 801 290 858 426 q 632 69 743 153 q 368 -14 521 -14 q 124 60 197 -14 q 50 289 50 135 q 108 575 50 442 q 276 790 165 708 q 540 872 388 872 q 771 807 690 872 q 826 826 807 810 q 844 879 844 842 q 838 936 844 906 l 846 954 l 963 974 q 976 933 971 956 q 981 894 981 911 m 388 81 q 543 158 483 81 q 628 351 603 236 q 654 586 654 467 q 626 731 654 685 q 522 778 597 778 q 358 689 418 778 q 276 486 299 600 q 254 282 254 372 q 281 129 254 178 q 388 81 307 81 m 808 1054 q 689 910 749 910 q 553 938 650 910 q 444 961 471 961 q 417 951 429 961 q 398 931 406 942 q 389 918 390 921 l 324 944 q 378 1048 346 1007 q 444 1089 411 1089 q 579 1061 485 1089 q 689 1038 661 1038 q 717 1047 704 1038 q 738 1067 731 1057 q 747 1081 746 1078 l 808 1054 z "},"Ő":{"ha":875,"x_min":50,"x_max":858,"o":"m 403 876 l 360 908 l 488 1131 l 615 1131 l 615 1100 l 403 876 m 626 876 l 583 908 l 711 1131 l 839 1131 l 839 1100 l 626 876 m 368 -14 q 124 60 197 -14 q 50 289 50 135 q 108 575 50 442 q 276 790 165 708 q 540 872 388 872 q 858 581 858 872 q 801 290 858 426 q 632 69 743 153 q 368 -14 521 -14 m 388 81 q 543 158 483 81 q 628 351 603 236 q 654 586 654 467 q 626 731 654 685 q 522 778 597 778 q 358 689 418 778 q 276 486 299 600 q 254 282 254 372 q 281 129 254 178 q 388 81 307 81 z "},"Ȏ":{"ha":875,"x_min":50,"x_max":858,"o":"m 50 0 m 368 -14 q 124 60 197 -14 q 50 289 50 135 q 108 575 50 442 q 276 790 165 708 q 540 872 388 872 q 858 581 858 872 q 801 290 858 426 q 632 69 743 153 q 368 -14 521 -14 m 388 81 q 543 158 483 81 q 628 351 603 236 q 654 586 654 467 q 626 731 654 685 q 522 778 597 778 q 358 689 418 778 q 276 486 299 600 q 254 282 254 372 q 281 129 254 178 q 388 81 307 81 m 574 1108 q 683 1074 650 1108 q 717 985 717 1040 q 704 918 717 953 l 626 918 q 629 943 629 932 q 615 988 629 972 q 557 1003 601 1003 q 476 981 497 1003 q 443 918 454 960 l 368 918 q 431 1057 386 1006 q 574 1108 476 1108 z "},"Ō":{"ha":875,"x_min":50,"x_max":858,"o":"m 371 943 l 386 1053 l 749 1053 l 733 943 l 371 943 m 368 -14 q 124 60 197 -14 q 50 289 50 135 q 108 575 50 442 q 276 790 165 708 q 540 872 388 872 q 858 581 858 872 q 801 290 858 426 q 632 69 743 153 q 368 -14 521 -14 m 388 81 q 543 158 483 81 q 628 351 603 236 q 654 586 654 467 q 626 731 654 685 q 522 778 597 778 q 358 689 418 778 q 276 486 299 600 q 254 282 254 372 q 281 129 254 178 q 388 81 307 81 z "},"Ǫ":{"ha":875,"x_min":50,"x_max":858,"o":"m 574 -185 q 661 -154 613 -185 l 689 -185 q 521 -271 622 -271 q 428 -241 458 -271 q 397 -168 397 -211 q 422 -87 397 -132 q 494 3 446 -42 q 368 -14 436 -14 q 124 60 197 -14 q 50 289 50 135 q 108 575 50 442 q 276 790 165 708 q 540 872 388 872 q 858 581 858 872 q 802 292 858 428 q 642 76 746 157 q 558 -24 597 39 q 519 -132 519 -87 q 574 -185 519 -185 m 254 282 q 281 129 254 178 q 388 81 307 81 q 543 158 483 81 q 628 351 603 236 q 654 586 654 467 q 626 731 654 685 q 522 778 597 778 q 358 689 418 778 q 276 486 299 600 q 254 282 254 372 z "},"Ø":{"ha":875,"x_min":50,"x_max":858,"o":"m 263 -4 q 99 89 149 17 q 50 289 50 161 q 108 575 50 442 q 276 790 165 708 q 540 872 388 872 l 547 872 l 585 985 l 683 985 l 643 863 q 858 581 858 819 q 801 290 858 426 q 632 69 743 153 q 368 -14 521 -14 l 357 -14 l 321 -128 l 222 -128 l 263 -4 m 517 778 q 356 686 415 775 q 276 485 297 597 q 254 282 254 372 q 264 172 254 214 q 299 107 274 129 l 517 778 m 388 81 q 543 158 483 81 q 628 351 603 236 q 654 586 654 467 q 644 690 654 649 q 607 751 633 731 l 388 81 z "},"Ǿ":{"ha":875,"x_min":50,"x_max":858,"o":"m 50 0 m 263 -4 q 99 89 149 17 q 50 289 50 161 q 108 575 50 442 q 276 790 165 708 q 540 872 388 872 l 547 872 l 585 985 l 683 985 l 643 863 q 858 581 858 819 q 801 290 858 426 q 632 69 743 153 q 368 -14 521 -14 l 357 -14 l 321 -128 l 222 -128 l 263 -4 m 517 778 q 356 686 415 775 q 276 485 297 597 q 254 282 254 372 q 264 172 254 214 q 299 107 274 129 l 517 778 m 388 81 q 543 158 483 81 q 628 351 603 236 q 654 586 654 467 q 644 690 654 649 q 607 751 633 731 l 388 81 m 349 881 l 311 929 l 528 1111 l 665 1064 l 665 1032 l 349 881 z "},"Õ":{"ha":875,"x_min":50,"x_max":858,"o":"m 661 910 q 525 938 622 910 q 417 961 443 961 q 390 951 401 961 q 370 931 378 942 q 361 918 363 921 l 296 944 q 351 1048 318 1007 q 417 1089 383 1089 q 551 1061 457 1089 q 661 1038 633 1038 q 690 1047 676 1038 q 710 1067 703 1057 q 719 1081 718 1078 l 781 1054 q 661 910 721 910 m 368 -14 q 124 60 197 -14 q 50 289 50 135 q 108 575 50 442 q 276 790 165 708 q 540 872 388 872 q 858 581 858 872 q 801 290 858 426 q 632 69 743 153 q 368 -14 521 -14 m 388 81 q 543 158 483 81 q 628 351 603 236 q 654 586 654 467 q 626 731 654 685 q 522 778 597 778 q 358 689 418 778 q 276 486 299 600 q 254 282 254 372 q 281 129 254 178 q 388 81 307 81 z "},"Œ":{"ha":1163,"x_min":50,"x_max":1183,"o":"m 403 0 q 138 71 225 0 q 50 289 50 142 q 117 581 50 453 q 310 781 185 708 q 603 853 435 853 l 1183 853 l 1144 650 l 1071 650 l 1064 758 l 861 758 l 804 468 l 942 468 l 982 560 l 1051 560 l 1000 294 l 933 294 l 926 390 l 789 390 l 732 96 l 956 96 l 1014 225 l 1088 225 l 1044 0 l 403 0 m 419 88 q 544 101 488 88 l 671 753 q 569 764 621 764 q 371 681 443 764 q 272 492 299 599 q 246 301 246 386 q 288 140 246 192 q 419 88 331 88 z "},"P":{"ha":738,"x_min":-18,"x_max":775,"o":"m 532 853 q 715 803 656 853 q 775 654 775 754 q 719 476 775 547 q 581 371 664 404 q 415 338 499 338 q 378 339 404 338 q 347 343 353 340 l 299 96 l 431 64 l 418 0 l -18 0 l -7 63 l 110 96 l 239 758 l 133 790 l 146 853 l 532 853 m 360 411 q 399 407 372 407 q 538 476 483 407 q 592 651 592 544 q 483 765 592 765 q 428 758 450 765 l 360 411 z "},"Þ":{"ha":704,"x_min":-18,"x_max":718,"o":"m -7 63 l 110 96 l 239 758 l 133 790 l 146 853 l 557 853 l 544 790 l 428 758 l 411 675 l 492 675 q 663 628 607 675 q 718 489 718 582 q 666 319 718 389 q 536 217 614 250 q 382 183 458 183 q 317 189 353 183 l 299 96 l 403 63 l 392 0 l -18 0 l -7 63 m 367 258 q 498 318 449 258 q 547 486 547 378 q 522 565 547 536 q 447 593 497 593 q 394 586 422 593 l 331 263 q 367 258 343 258 z "},"Q":{"ha":874,"x_min":53,"x_max":857,"o":"m 629 -218 q 554 -199 596 -218 q 440 -135 513 -181 l 233 -1 q 97 129 140 58 q 53 310 53 200 q 109 579 53 450 q 276 790 165 708 q 546 872 388 872 q 787 794 717 872 q 857 576 857 715 q 803 298 857 428 q 651 89 749 168 q 426 10 553 10 l 426 0 q 590 -80 501 -42 q 707 -118 679 -118 l 796 -118 l 792 -169 q 713 -203 761 -187 q 629 -218 665 -218 m 375 83 q 542 166 479 83 q 629 361 604 249 q 654 576 654 474 q 626 728 654 679 q 525 778 599 778 q 364 696 424 778 q 280 501 304 614 q 256 285 256 388 q 284 142 256 200 q 375 83 313 83 z "},"R":{"ha":806,"x_min":-18,"x_max":778,"o":"m 501 0 q 456 256 469 189 q 427 347 443 322 q 379 372 411 372 l 353 372 l 299 96 l 388 63 l 376 0 l -18 0 l -7 63 l 110 96 l 239 758 l 133 790 l 146 853 l 528 853 q 718 808 658 853 q 778 678 778 763 q 713 510 778 575 q 551 415 649 446 q 611 376 592 400 q 642 303 631 353 q 676 126 654 254 l 682 94 l 758 63 l 747 0 l 501 0 m 415 449 q 539 511 492 449 q 586 675 586 574 q 562 746 586 724 q 485 768 538 768 q 428 761 451 768 l 367 449 l 415 449 z "},"Ŕ":{"ha":806,"x_min":-18,"x_max":778,"o":"m 397 881 l 360 929 l 576 1111 l 714 1064 l 714 1032 l 397 881 m 501 0 q 456 256 469 189 q 427 347 443 322 q 379 372 411 372 l 353 372 l 299 96 l 388 63 l 376 0 l -18 0 l -7 63 l 110 96 l 239 758 l 133 790 l 146 853 l 528 853 q 718 808 658 853 q 778 678 778 763 q 713 510 778 575 q 551 415 649 446 q 611 376 592 400 q 642 303 631 353 q 676 126 654 254 l 682 94 l 758 63 l 747 0 l 501 0 m 415 449 q 539 511 492 449 q 586 675 586 574 q 562 746 586 724 q 485 768 538 768 q 428 761 451 768 l 367 449 l 415 449 z "},"Ř":{"ha":806,"x_min":-18,"x_max":778,"o":"m 356 1104 l 506 1010 l 692 1104 l 724 1063 l 546 888 l 428 888 l 314 1068 l 356 1104 m 501 0 q 456 256 469 189 q 427 347 443 322 q 379 372 411 372 l 353 372 l 299 96 l 388 63 l 376 0 l -18 0 l -7 63 l 110 96 l 239 758 l 133 790 l 146 853 l 528 853 q 718 808 658 853 q 778 678 778 763 q 713 510 778 575 q 551 415 649 446 q 611 376 592 400 q 642 303 631 353 q 676 126 654 254 l 682 94 l 758 63 l 747 0 l 501 0 m 415 449 q 539 511 492 449 q 586 675 586 574 q 562 746 586 724 q 485 768 538 768 q 428 761 451 768 l 367 449 l 415 449 z "},"Ŗ":{"ha":806,"x_min":-18,"x_max":778,"o":"m 501 0 q 456 256 469 189 q 427 347 443 322 q 379 372 411 372 l 353 372 l 299 96 l 388 63 l 376 0 l -18 0 l -7 63 l 110 96 l 239 758 l 133 790 l 146 853 l 528 853 q 718 808 658 853 q 778 678 778 763 q 713 510 778 575 q 551 415 649 446 q 611 376 592 400 q 642 303 631 353 q 676 126 654 254 l 682 94 l 758 63 l 747 0 l 501 0 m 415 449 q 539 511 492 449 q 586 675 586 574 q 562 746 586 724 q 485 768 538 768 q 428 761 451 768 l 367 449 l 415 449 m 313 -328 l 257 -312 l 307 -61 l 435 -33 l 465 -67 l 313 -328 z "},"Ȑ":{"ha":806,"x_min":-18,"x_max":778,"o":"m 0 0 m 501 0 q 456 256 469 189 q 427 347 443 322 q 379 372 411 372 l 353 372 l 299 96 l 388 63 l 376 0 l -18 0 l -7 63 l 110 96 l 239 758 l 133 790 l 146 853 l 528 853 q 718 808 658 853 q 778 678 778 763 q 713 510 778 575 q 551 415 649 446 q 611 376 592 400 q 642 303 631 353 q 676 126 654 254 l 682 94 l 758 63 l 747 0 l 501 0 m 415 449 q 539 511 492 449 q 586 675 586 574 q 562 746 586 724 q 485 768 538 768 q 428 761 451 768 l 367 449 l 415 449 m 396 876 l 228 1100 l 233 1131 l 361 1131 l 446 908 l 396 876 m 619 876 l 451 1100 l 457 1131 l 585 1131 l 669 908 l 619 876 z "},"Ṛ":{"ha":806,"x_min":-18,"x_max":778,"o":"m 0 0 m 501 0 q 456 256 469 189 q 427 347 443 322 q 379 372 411 372 l 353 372 l 299 96 l 388 63 l 376 0 l -18 0 l -7 63 l 110 96 l 239 758 l 133 790 l 146 853 l 528 853 q 718 808 658 853 q 778 678 778 763 q 713 510 778 575 q 551 415 649 446 q 611 376 592 400 q 642 303 631 353 q 676 126 654 254 l 682 94 l 758 63 l 747 0 l 501 0 m 415 449 q 539 511 492 449 q 586 675 586 574 q 562 746 586 724 q 485 768 538 768 q 428 761 451 768 l 367 449 l 415 449 m 304 -56 q 378 -87 346 -56 q 410 -160 410 -118 q 378 -232 410 -201 q 304 -262 347 -262 q 231 -232 263 -262 q 200 -160 200 -201 q 231 -86 200 -117 q 304 -56 263 -56 z "},"Ȓ":{"ha":806,"x_min":-18,"x_max":778,"o":"m 0 0 m 501 0 q 456 256 469 189 q 427 347 443 322 q 379 372 411 372 l 353 372 l 299 96 l 388 63 l 376 0 l -18 0 l -7 63 l 110 96 l 239 758 l 133 790 l 146 853 l 528 853 q 718 808 658 853 q 778 678 778 763 q 713 510 778 575 q 551 415 649 446 q 611 376 592 400 q 642 303 631 353 q 676 126 654 254 l 682 94 l 758 63 l 747 0 l 501 0 m 415 449 q 539 511 492 449 q 586 675 586 574 q 562 746 586 724 q 485 768 538 768 q 428 761 451 768 l 367 449 l 415 449 m 539 1108 q 649 1074 615 1108 q 682 985 682 1040 q 669 918 682 953 l 592 918 q 594 943 594 932 q 581 988 594 972 q 522 1003 567 1003 q 441 981 463 1003 q 408 918 419 960 l 333 918 q 397 1057 351 1006 q 539 1108 442 1108 z "},"S":{"ha":653,"x_min":-17,"x_max":667,"o":"m 217 -14 q 94 -3 158 -14 q -17 29 31 8 l 25 225 l 99 225 l 110 104 q 242 82 181 82 q 365 118 319 82 q 410 215 410 154 q 388 285 410 258 q 321 335 367 313 l 235 378 q 146 451 186 400 q 106 578 106 501 q 194 795 106 718 q 447 872 282 872 q 667 829 550 872 l 624 632 l 551 632 l 538 756 q 429 776 490 776 q 319 746 360 776 q 278 656 278 715 q 299 588 278 613 q 365 542 319 564 l 458 494 q 558 415 525 463 q 590 299 590 368 q 497 72 590 158 q 217 -14 404 -14 z "},"Ś":{"ha":653,"x_min":-17,"x_max":667,"o":"m 325 881 l 288 929 l 504 1111 l 642 1064 l 642 1032 l 325 881 m 217 -14 q 94 -3 158 -14 q -17 29 31 8 l 25 225 l 99 225 l 110 104 q 242 82 181 82 q 365 118 319 82 q 410 215 410 154 q 388 285 410 258 q 321 335 367 313 l 235 378 q 146 451 186 400 q 106 578 106 501 q 194 795 106 718 q 447 872 282 872 q 667 829 550 872 l 624 632 l 551 632 l 538 756 q 429 776 490 776 q 319 746 360 776 q 278 656 278 715 q 299 588 278 613 q 365 542 319 564 l 458 494 q 558 415 525 463 q 590 299 590 368 q 497 72 590 158 q 217 -14 404 -14 z "},"Ꞌ":{"ha":192,"x_min":40,"x_max":307,"o":"m 108 364 l 40 376 l 138 851 l 272 853 l 307 814 l 108 364 z "},"Š":{"ha":653,"x_min":-17,"x_max":667,"o":"m 290 1104 l 440 1010 l 626 1104 l 658 1063 l 481 888 l 363 888 l 249 1068 l 290 1104 m 217 -14 q 94 -3 158 -14 q -17 29 31 8 l 25 225 l 99 225 l 110 104 q 242 82 181 82 q 365 118 319 82 q 410 215 410 154 q 388 285 410 258 q 321 335 367 313 l 235 378 q 146 451 186 400 q 106 578 106 501 q 194 795 106 718 q 447 872 282 872 q 667 829 550 872 l 624 632 l 551 632 l 538 756 q 429 776 490 776 q 319 746 360 776 q 278 656 278 715 q 299 588 278 613 q 365 542 319 564 l 458 494 q 558 415 525 463 q 590 299 590 368 q 497 72 590 158 q 217 -14 404 -14 z "},"Ş":{"ha":653,"x_min":-22,"x_max":661,"o":"m 585 299 q 501 81 585 165 q 249 -12 418 -4 l 225 -64 q 317 -87 286 -64 q 347 -149 347 -110 q 318 -233 347 -197 q 246 -287 289 -268 q 165 -306 203 -306 q 102 -300 125 -306 q 58 -283 79 -294 l 81 -235 q 128 -244 96 -244 q 183 -225 157 -244 q 210 -174 210 -206 q 142 -128 210 -129 l 136 -101 l 183 -12 q -22 29 58 -7 l 19 225 l 93 225 l 104 104 q 236 82 175 82 q 359 118 314 82 q 404 215 404 154 q 383 285 404 258 q 315 335 361 313 l 229 378 q 140 451 181 400 q 100 578 100 501 q 188 795 100 718 q 442 872 276 872 q 661 829 544 872 l 618 632 l 546 632 l 532 756 q 424 776 485 776 q 313 746 354 776 q 272 656 272 715 q 293 588 272 613 q 360 542 314 564 l 453 494 q 552 415 519 463 q 585 299 585 368 z "},"Ŝ":{"ha":653,"x_min":-17,"x_max":667,"o":"m 0 0 m 217 -14 q 94 -3 158 -14 q -17 29 31 8 l 25 225 l 99 225 l 110 104 q 242 82 181 82 q 365 118 319 82 q 410 215 410 154 q 388 285 410 258 q 321 335 367 313 l 235 378 q 146 451 186 400 q 106 578 106 501 q 194 795 106 718 q 447 872 282 872 q 667 829 550 872 l 624 632 l 551 632 l 538 756 q 429 776 490 776 q 319 746 360 776 q 278 656 278 715 q 299 588 278 613 q 365 542 319 564 l 458 494 q 558 415 525 463 q 590 299 590 368 q 497 72 590 158 q 217 -14 404 -14 m 601 888 l 451 982 l 265 888 l 233 929 l 411 1104 l 529 1104 l 643 924 l 601 888 z "},"Ș":{"ha":653,"x_min":-22,"x_max":661,"o":"m 211 -14 q 89 -3 153 -14 q -22 29 25 8 l 19 225 l 93 225 l 104 104 q 236 82 175 82 q 359 118 314 82 q 404 215 404 154 q 383 285 404 258 q 315 335 361 313 l 229 378 q 140 451 181 400 q 100 578 100 501 q 188 795 100 718 q 442 872 276 872 q 661 829 544 872 l 618 632 l 546 632 l 532 756 q 424 776 485 776 q 313 746 354 776 q 272 656 272 715 q 293 588 272 613 q 360 542 314 564 l 453 494 q 552 415 519 463 q 585 299 585 368 q 492 72 585 158 q 211 -14 399 -14 m 165 -328 l 110 -312 l 160 -61 l 288 -33 l 318 -67 l 165 -328 z "},"Ṣ":{"ha":653,"x_min":-17,"x_max":667,"o":"m 0 0 m 217 -14 q 94 -3 158 -14 q -17 29 31 8 l 25 225 l 99 225 l 110 104 q 242 82 181 82 q 365 118 319 82 q 410 215 410 154 q 388 285 410 258 q 321 335 367 313 l 235 378 q 146 451 186 400 q 106 578 106 501 q 194 795 106 718 q 447 872 282 872 q 667 829 550 872 l 624 632 l 551 632 l 538 756 q 429 776 490 776 q 319 746 360 776 q 278 656 278 715 q 299 588 278 613 q 365 542 319 564 l 458 494 q 558 415 525 463 q 590 299 590 368 q 497 72 590 158 q 217 -14 404 -14 m 228 -56 q 301 -87 269 -56 q 333 -160 333 -118 q 302 -232 333 -201 q 228 -262 271 -262 q 155 -232 186 -262 q 124 -160 124 -201 q 155 -86 124 -117 q 228 -56 186 -56 z "},"ẞ":{"ha":814,"x_min":-75,"x_max":833,"o":"m 479 -12 q 380 -1 432 -12 q 290 31 328 10 l 333 229 l 411 229 l 426 99 q 494 82 460 82 q 589 129 554 82 q 624 235 624 176 q 568 332 624 303 q 394 361 513 361 l 379 407 l 653 754 q 549 768 604 768 q 406 713 453 768 q 339 556 358 658 l 250 97 l 231 0 l -75 0 l -62 63 l 61 96 l 147 536 q 219 706 165 629 q 358 827 272 782 q 553 872 443 872 q 706 849 632 872 q 833 792 781 826 l 831 746 l 593 438 q 746 378 693 422 q 799 247 799 335 q 756 119 799 179 q 639 24 713 60 q 479 -12 565 -12 z "},"Ə":{"ha":861,"x_min":50,"x_max":844,"o":"m 368 -14 q 124 60 197 -14 q 50 289 50 135 q 72 469 50 385 l 636 469 q 640 556 640 514 q 624 685 640 638 q 569 756 608 733 q 460 778 531 778 q 306 750 382 778 l 254 629 l 176 629 l 207 818 q 351 860 281 846 q 504 874 421 874 q 765 799 686 874 q 844 556 844 724 q 781 265 844 394 q 609 60 718 135 q 368 -14 500 -14 m 388 81 q 540 164 481 81 q 624 378 599 247 l 260 378 q 254 282 254 328 q 281 129 254 178 q 388 81 307 81 z "},"T":{"ha":681,"x_min":58,"x_max":790,"o":"m 93 853 l 790 853 l 739 632 l 664 632 l 664 758 l 518 758 l 389 96 l 493 63 l 482 0 l 72 0 l 83 63 l 200 96 l 329 758 l 181 758 l 131 632 l 58 632 l 93 853 z "},"Ŧ":{"ha":681,"x_min":47,"x_max":790,"o":"m 739 632 l 664 632 l 664 758 l 518 758 l 463 476 l 678 476 l 664 400 l 449 400 l 389 96 l 493 63 l 482 0 l 72 0 l 83 63 l 200 96 l 260 400 l 47 400 l 61 476 l 274 476 l 329 758 l 181 758 l 131 632 l 58 632 l 93 853 l 790 853 l 739 632 z "},"Ť":{"ha":681,"x_min":58,"x_max":790,"o":"m 306 1104 l 456 1010 l 642 1104 l 674 1063 l 496 888 l 378 888 l 264 1068 l 306 1104 m 93 853 l 790 853 l 739 632 l 664 632 l 664 758 l 518 758 l 389 96 l 493 63 l 482 0 l 72 0 l 83 63 l 200 96 l 329 758 l 181 758 l 131 632 l 58 632 l 93 853 z "},"Ţ":{"ha":681,"x_min":58,"x_max":790,"o":"m 790 853 l 739 632 l 664 632 l 664 758 l 518 758 l 389 96 l 493 63 l 482 0 l 311 0 l 281 -64 q 372 -87 342 -64 q 403 -149 403 -110 q 374 -233 403 -197 q 301 -287 344 -268 q 221 -306 258 -306 q 158 -300 181 -306 q 114 -283 135 -294 l 136 -235 q 183 -244 151 -244 q 239 -225 213 -244 q 265 -174 265 -206 q 197 -128 265 -129 l 192 -101 l 246 0 l 72 0 l 83 63 l 200 96 l 329 758 l 181 758 l 131 632 l 58 632 l 93 853 l 790 853 z "},"Ț":{"ha":681,"x_min":58,"x_max":790,"o":"m 93 853 l 790 853 l 739 632 l 664 632 l 664 758 l 518 758 l 389 96 l 493 63 l 482 0 l 72 0 l 83 63 l 200 96 l 329 758 l 181 758 l 131 632 l 58 632 l 93 853 m 206 -328 l 150 -312 l 200 -61 l 328 -33 l 358 -67 l 206 -328 z "},"Ṭ":{"ha":681,"x_min":58,"x_max":790,"o":"m 58 0 m 93 853 l 790 853 l 739 632 l 664 632 l 664 758 l 518 758 l 389 96 l 493 63 l 482 0 l 72 0 l 83 63 l 200 96 l 329 758 l 181 758 l 131 632 l 58 632 l 93 853 m 242 -56 q 315 -87 283 -56 q 347 -160 347 -118 q 316 -232 347 -201 q 242 -262 285 -262 q 169 -232 200 -262 q 138 -160 138 -201 q 169 -86 138 -117 q 242 -56 200 -56 z "},"U":{"ha":847,"x_min":81,"x_max":958,"o":"m 746 328 q 637 92 721 197 q 367 -14 553 -14 q 157 49 222 -14 q 92 221 92 111 q 110 368 92 272 l 186 758 l 81 790 l 93 853 l 504 853 l 492 790 l 375 758 l 299 367 q 281 211 281 276 q 311 113 281 147 q 413 78 342 78 q 567 153 510 78 q 647 340 625 229 l 728 758 l 622 790 l 635 853 l 958 853 l 946 790 l 829 758 l 746 328 z "},"Ú":{"ha":847,"x_min":81,"x_max":958,"o":"m 476 881 l 439 929 l 656 1111 l 793 1064 l 793 1032 l 476 881 m 746 328 q 637 92 721 197 q 367 -14 553 -14 q 157 49 222 -14 q 92 221 92 111 q 110 368 92 272 l 186 758 l 81 790 l 93 853 l 504 853 l 492 790 l 375 758 l 299 367 q 281 211 281 276 q 311 113 281 147 q 413 78 342 78 q 567 153 510 78 q 647 340 625 229 l 728 758 l 622 790 l 635 853 l 958 853 l 946 790 l 829 758 l 746 328 z "},"Ŭ":{"ha":847,"x_min":81,"x_max":958,"o":"m 81 0 m 746 328 q 637 92 721 197 q 367 -14 553 -14 q 157 49 222 -14 q 92 221 92 111 q 110 368 92 272 l 186 758 l 81 790 l 93 853 l 504 853 l 492 790 l 375 758 l 299 367 q 281 211 281 276 q 311 113 281 147 q 413 78 342 78 q 567 153 510 78 q 647 340 625 229 l 728 758 l 622 790 l 635 853 l 958 853 l 946 790 l 829 758 l 746 328 m 521 904 q 411 938 444 904 q 378 1028 378 972 q 390 1094 378 1060 l 468 1094 q 465 1069 465 1081 q 479 1025 465 1040 q 538 1010 493 1010 q 619 1031 597 1010 q 651 1094 640 1053 l 726 1094 q 663 956 708 1007 q 521 904 618 904 z "},"Ǔ":{"ha":847,"x_min":81,"x_max":958,"o":"m 81 0 m 746 328 q 637 92 721 197 q 367 -14 553 -14 q 157 49 222 -14 q 92 221 92 111 q 110 368 92 272 l 186 758 l 81 790 l 93 853 l 504 853 l 492 790 l 375 758 l 299 367 q 281 211 281 276 q 311 113 281 147 q 413 78 342 78 q 567 153 510 78 q 647 340 625 229 l 728 758 l 622 790 l 635 853 l 958 853 l 946 790 l 829 758 l 746 328 m 389 1104 l 539 1010 l 725 1104 l 757 1063 l 579 888 l 461 888 l 347 1068 l 389 1104 z "},"Û":{"ha":847,"x_min":81,"x_max":958,"o":"m 724 888 l 574 982 l 388 888 l 356 929 l 533 1104 l 651 1104 l 765 924 l 724 888 m 746 328 q 637 92 721 197 q 367 -14 553 -14 q 157 49 222 -14 q 92 221 92 111 q 110 368 92 272 l 186 758 l 81 790 l 93 853 l 504 853 l 492 790 l 375 758 l 299 367 q 281 211 281 276 q 311 113 281 147 q 413 78 342 78 q 567 153 510 78 q 647 340 625 229 l 728 758 l 622 790 l 635 853 l 958 853 l 946 790 l 829 758 l 746 328 z "},"Ȕ":{"ha":847,"x_min":81,"x_max":958,"o":"m 81 0 m 746 328 q 637 92 721 197 q 367 -14 553 -14 q 157 49 222 -14 q 92 221 92 111 q 110 368 92 272 l 186 758 l 81 790 l 93 853 l 504 853 l 492 790 l 375 758 l 299 367 q 281 211 281 276 q 311 113 281 147 q 413 78 342 78 q 567 153 510 78 q 647 340 625 229 l 728 758 l 622 790 l 635 853 l 958 853 l 946 790 l 829 758 l 746 328 m 417 876 l 249 1100 l 254 1131 l 382 1131 l 467 908 l 417 876 m 640 876 l 472 1100 l 478 1131 l 606 1131 l 690 908 l 640 876 z "},"Ü":{"ha":847,"x_min":81,"x_max":958,"o":"m 519 999 q 490 927 519 956 q 417 899 460 899 q 340 927 372 899 q 308 999 308 956 q 341 1070 308 1040 q 417 1100 374 1100 q 489 1070 458 1100 q 519 999 519 1040 m 840 999 q 810 927 840 956 q 739 899 779 899 q 663 927 694 899 q 632 999 632 956 q 663 1071 632 1042 q 739 1100 694 1100 q 810 1070 779 1100 q 840 999 840 1040 m 746 328 q 637 92 721 197 q 367 -14 553 -14 q 157 49 222 -14 q 92 221 92 111 q 110 368 92 272 l 186 758 l 81 790 l 93 853 l 504 853 l 492 790 l 375 758 l 299 367 q 281 211 281 276 q 311 113 281 147 q 413 78 342 78 q 567 153 510 78 q 647 340 625 229 l 728 758 l 622 790 l 635 853 l 958 853 l 946 790 l 829 758 l 746 328 z "},"Ǘ":{"ha":847,"x_min":81,"x_max":958,"o":"m 81 0 m 746 328 q 637 92 721 197 q 367 -14 553 -14 q 157 49 222 -14 q 92 221 92 111 q 110 368 92 272 l 186 758 l 81 790 l 93 853 l 504 853 l 492 790 l 375 758 l 299 367 q 281 211 281 276 q 311 113 281 147 q 413 78 342 78 q 567 153 510 78 q 647 340 625 229 l 728 758 l 622 790 l 635 853 l 958 853 l 946 790 l 829 758 l 746 328 m 497 999 q 467 927 497 956 q 394 899 438 899 q 318 927 350 899 q 286 999 286 956 q 319 1070 286 1040 q 394 1100 351 1100 q 467 1070 436 1100 q 497 999 497 1040 m 818 999 q 788 927 818 956 q 717 899 757 899 q 641 927 672 899 q 610 999 610 956 q 641 1071 610 1042 q 717 1100 672 1100 q 788 1070 757 1100 q 818 999 818 1040 m 538 1128 l 500 1176 l 717 1358 l 854 1311 l 854 1279 l 538 1128 z "},"Ǚ":{"ha":847,"x_min":81,"x_max":958,"o":"m 81 0 m 746 328 q 637 92 721 197 q 367 -14 553 -14 q 157 49 222 -14 q 92 221 92 111 q 110 368 92 272 l 186 758 l 81 790 l 93 853 l 504 853 l 492 790 l 375 758 l 299 367 q 281 211 281 276 q 311 113 281 147 q 413 78 342 78 q 567 153 510 78 q 647 340 625 229 l 728 758 l 622 790 l 635 853 l 958 853 l 946 790 l 829 758 l 746 328 m 497 999 q 467 927 497 956 q 394 899 438 899 q 318 927 350 899 q 286 999 286 956 q 319 1070 286 1040 q 394 1100 351 1100 q 467 1070 436 1100 q 497 999 497 1040 m 818 999 q 788 927 818 956 q 717 899 757 899 q 641 927 672 899 q 610 999 610 956 q 641 1071 610 1042 q 717 1100 672 1100 q 788 1070 757 1100 q 818 999 818 1040 m 439 1351 l 589 1257 l 775 1351 l 807 1310 l 629 1135 l 511 1135 l 397 1315 l 439 1351 z "},"Ǜ":{"ha":847,"x_min":81,"x_max":958,"o":"m 81 0 m 746 328 q 637 92 721 197 q 367 -14 553 -14 q 157 49 222 -14 q 92 221 92 111 q 110 368 92 272 l 186 758 l 81 790 l 93 853 l 504 853 l 492 790 l 375 758 l 299 367 q 281 211 281 276 q 311 113 281 147 q 413 78 342 78 q 567 153 510 78 q 647 340 625 229 l 728 758 l 622 790 l 635 853 l 958 853 l 946 790 l 829 758 l 746 328 m 497 999 q 467 927 497 956 q 394 899 438 899 q 318 927 350 899 q 286 999 286 956 q 319 1070 286 1040 q 394 1100 351 1100 q 467 1070 436 1100 q 497 999 497 1040 m 818 999 q 788 927 818 956 q 717 899 757 899 q 641 927 672 899 q 610 999 610 956 q 641 1071 610 1042 q 717 1100 672 1100 q 788 1070 757 1100 q 818 999 818 1040 m 635 1128 l 313 1279 l 318 1311 l 453 1358 l 667 1176 l 635 1128 z "},"Ǖ":{"ha":847,"x_min":81,"x_max":958,"o":"m 81 0 m 746 328 q 637 92 721 197 q 367 -14 553 -14 q 157 49 222 -14 q 92 221 92 111 q 110 368 92 272 l 186 758 l 81 790 l 93 853 l 504 853 l 492 790 l 375 758 l 299 367 q 281 211 281 276 q 311 113 281 147 q 413 78 342 78 q 567 153 510 78 q 647 340 625 229 l 728 758 l 622 790 l 635 853 l 958 853 l 946 790 l 829 758 l 746 328 m 497 999 q 467 927 497 956 q 394 899 438 899 q 318 927 350 899 q 286 999 286 956 q 319 1070 286 1040 q 394 1100 351 1100 q 467 1070 436 1100 q 497 999 497 1040 m 818 999 q 788 927 818 956 q 717 899 757 899 q 641 927 672 899 q 610 999 610 956 q 641 1071 610 1042 q 717 1100 672 1100 q 788 1070 757 1100 q 818 999 818 1040 m 429 1300 l 792 1300 l 776 1190 l 414 1190 l 429 1300 z "},"Ụ":{"ha":847,"x_min":81,"x_max":958,"o":"m 81 0 m 746 328 q 637 92 721 197 q 367 -14 553 -14 q 157 49 222 -14 q 92 221 92 111 q 110 368 92 272 l 186 758 l 81 790 l 93 853 l 504 853 l 492 790 l 375 758 l 299 367 q 281 211 281 276 q 311 113 281 147 q 413 78 342 78 q 567 153 510 78 q 647 340 625 229 l 728 758 l 622 790 l 635 853 l 958 853 l 946 790 l 829 758 l 746 328 m 325 -56 q 399 -87 367 -56 q 431 -160 431 -118 q 399 -232 431 -201 q 325 -262 368 -262 q 252 -232 283 -262 q 221 -160 221 -201 q 252 -86 221 -117 q 325 -56 283 -56 z "},"Ù":{"ha":847,"x_min":81,"x_max":958,"o":"m 669 881 l 347 1032 l 353 1064 l 488 1111 l 701 929 l 669 881 m 746 328 q 637 92 721 197 q 367 -14 553 -14 q 157 49 222 -14 q 92 221 92 111 q 110 368 92 272 l 186 758 l 81 790 l 93 853 l 504 853 l 492 790 l 375 758 l 299 367 q 281 211 281 276 q 311 113 281 147 q 413 78 342 78 q 567 153 510 78 q 647 340 625 229 l 728 758 l 622 790 l 635 853 l 958 853 l 946 790 l 829 758 l 746 328 z "},"Ủ":{"ha":847,"x_min":81,"x_max":958,"o":"m 81 0 m 746 328 q 637 92 721 197 q 367 -14 553 -14 q 157 49 222 -14 q 92 221 92 111 q 110 368 92 272 l 186 758 l 81 790 l 93 853 l 504 853 l 492 790 l 375 758 l 299 367 q 281 211 281 276 q 311 113 281 147 q 413 78 342 78 q 567 153 510 78 q 647 340 625 229 l 728 758 l 622 790 l 635 853 l 958 853 l 946 790 l 829 758 l 746 328 m 507 951 q 519 975 507 967 q 557 994 531 983 q 594 1013 582 1004 q 607 1035 607 1021 q 560 1060 607 1060 q 521 1057 551 1060 l 504 1019 l 449 1019 l 454 1093 q 585 1108 526 1108 q 679 1090 646 1108 q 713 1040 713 1072 q 695 1000 713 1017 q 651 975 678 983 q 623 967 644 974 q 589 950 601 960 q 576 926 576 940 l 508 926 l 507 951 z "},"Ư":{"ha":847,"x_min":81,"x_max":1004,"o":"m 1004 942 q 974 863 1004 897 q 894 808 944 829 l 833 778 l 746 328 q 637 92 721 197 q 367 -14 553 -14 q 157 49 222 -14 q 92 221 92 111 q 110 368 92 272 l 186 758 l 81 790 l 93 853 l 504 853 l 492 790 l 375 758 l 299 367 q 281 211 281 276 q 311 113 281 147 q 413 78 342 78 q 567 153 510 78 q 647 340 625 229 l 728 758 l 622 790 l 635 853 l 772 853 q 844 868 819 853 q 868 926 868 883 q 861 983 868 953 l 869 1001 l 986 1021 q 999 981 994 1003 q 1004 942 1004 958 z "},"Ứ":{"ha":847,"x_min":81,"x_max":1004,"o":"m 81 0 m 1004 942 q 974 863 1004 897 q 894 808 944 829 l 833 778 l 746 328 q 637 92 721 197 q 367 -14 553 -14 q 157 49 222 -14 q 92 221 92 111 q 110 368 92 272 l 186 758 l 81 790 l 93 853 l 504 853 l 492 790 l 375 758 l 299 367 q 281 211 281 276 q 311 113 281 147 q 413 78 342 78 q 567 153 510 78 q 647 340 625 229 l 728 758 l 622 790 l 635 853 l 772 853 q 844 868 819 853 q 868 926 868 883 q 861 983 868 953 l 869 1001 l 986 1021 q 999 981 994 1003 q 1004 942 1004 958 m 488 881 l 450 929 l 667 1111 l 804 1064 l 804 1032 l 488 881 z "},"Ự":{"ha":847,"x_min":81,"x_max":1004,"o":"m 81 0 m 1004 942 q 974 863 1004 897 q 894 808 944 829 l 833 778 l 746 328 q 637 92 721 197 q 367 -14 553 -14 q 157 49 222 -14 q 92 221 92 111 q 110 368 92 272 l 186 758 l 81 790 l 93 853 l 504 853 l 492 790 l 375 758 l 299 367 q 281 211 281 276 q 311 113 281 147 q 413 78 342 78 q 567 153 510 78 q 647 340 625 229 l 728 758 l 622 790 l 635 853 l 772 853 q 844 868 819 853 q 868 926 868 883 q 861 983 868 953 l 869 1001 l 986 1021 q 999 981 994 1003 q 1004 942 1004 958 m 325 -56 q 399 -87 367 -56 q 431 -160 431 -118 q 399 -232 431 -201 q 325 -262 368 -262 q 252 -232 283 -262 q 221 -160 221 -201 q 252 -86 221 -117 q 325 -56 283 -56 z "},"Ừ":{"ha":847,"x_min":81,"x_max":1004,"o":"m 81 0 m 1004 942 q 974 863 1004 897 q 894 808 944 829 l 833 778 l 746 328 q 637 92 721 197 q 367 -14 553 -14 q 157 49 222 -14 q 92 221 92 111 q 110 368 92 272 l 186 758 l 81 790 l 93 853 l 504 853 l 492 790 l 375 758 l 299 367 q 281 211 281 276 q 311 113 281 147 q 413 78 342 78 q 567 153 510 78 q 647 340 625 229 l 728 758 l 622 790 l 635 853 l 772 853 q 844 868 819 853 q 868 926 868 883 q 861 983 868 953 l 869 1001 l 986 1021 q 999 981 994 1003 q 1004 942 1004 958 m 585 881 l 263 1032 l 268 1064 l 403 1111 l 617 929 l 585 881 z "},"Ử":{"ha":847,"x_min":81,"x_max":1004,"o":"m 81 0 m 1004 942 q 974 863 1004 897 q 894 808 944 829 l 833 778 l 746 328 q 637 92 721 197 q 367 -14 553 -14 q 157 49 222 -14 q 92 221 92 111 q 110 368 92 272 l 186 758 l 81 790 l 93 853 l 504 853 l 492 790 l 375 758 l 299 367 q 281 211 281 276 q 311 113 281 147 q 413 78 342 78 q 567 153 510 78 q 647 340 625 229 l 728 758 l 622 790 l 635 853 l 772 853 q 844 868 819 853 q 868 926 868 883 q 861 983 868 953 l 869 1001 l 986 1021 q 999 981 994 1003 q 1004 942 1004 958 m 507 951 q 519 975 507 967 q 557 994 531 983 q 594 1013 582 1004 q 607 1035 607 1021 q 560 1060 607 1060 q 521 1057 551 1060 l 504 1019 l 449 1019 l 454 1093 q 585 1108 526 1108 q 679 1090 646 1108 q 713 1040 713 1072 q 695 1000 713 1017 q 651 975 678 983 q 623 967 644 974 q 589 950 601 960 q 576 926 576 940 l 508 926 l 507 951 z "},"Ữ":{"ha":847,"x_min":81,"x_max":1004,"o":"m 81 0 m 1004 942 q 974 863 1004 897 q 894 808 944 829 l 833 778 l 746 328 q 637 92 721 197 q 367 -14 553 -14 q 157 49 222 -14 q 92 221 92 111 q 110 368 92 272 l 186 758 l 81 790 l 93 853 l 504 853 l 492 790 l 375 758 l 299 367 q 281 211 281 276 q 311 113 281 147 q 413 78 342 78 q 567 153 510 78 q 647 340 625 229 l 728 758 l 622 790 l 635 853 l 772 853 q 844 868 819 853 q 868 926 868 883 q 861 983 868 953 l 869 1001 l 986 1021 q 999 981 994 1003 q 1004 942 1004 958 m 794 1054 q 675 910 735 910 q 539 938 636 910 q 431 961 457 961 q 403 951 415 961 q 384 931 392 942 q 375 918 376 921 l 310 944 q 365 1048 332 1007 q 431 1089 397 1089 q 565 1061 471 1089 q 675 1038 647 1038 q 703 1047 690 1038 q 724 1067 717 1057 q 733 1081 732 1078 l 794 1054 z "},"Ű":{"ha":847,"x_min":81,"x_max":958,"o":"m 432 876 l 389 908 l 517 1131 l 644 1131 l 644 1100 l 432 876 m 656 876 l 613 908 l 740 1131 l 868 1131 l 868 1100 l 656 876 m 746 328 q 637 92 721 197 q 367 -14 553 -14 q 157 49 222 -14 q 92 221 92 111 q 110 368 92 272 l 186 758 l 81 790 l 93 853 l 504 853 l 492 790 l 375 758 l 299 367 q 281 211 281 276 q 311 113 281 147 q 413 78 342 78 q 567 153 510 78 q 647 340 625 229 l 728 758 l 622 790 l 635 853 l 958 853 l 946 790 l 829 758 l 746 328 z "},"Ȗ":{"ha":847,"x_min":81,"x_max":958,"o":"m 81 0 m 746 328 q 637 92 721 197 q 367 -14 553 -14 q 157 49 222 -14 q 92 221 92 111 q 110 368 92 272 l 186 758 l 81 790 l 93 853 l 504 853 l 492 790 l 375 758 l 299 367 q 281 211 281 276 q 311 113 281 147 q 413 78 342 78 q 567 153 510 78 q 647 340 625 229 l 728 758 l 622 790 l 635 853 l 958 853 l 946 790 l 829 758 l 746 328 m 560 1108 q 669 1074 636 1108 q 703 985 703 1040 q 690 918 703 953 l 613 918 q 615 943 615 932 q 601 988 615 972 q 543 1003 588 1003 q 462 981 483 1003 q 429 918 440 960 l 354 918 q 417 1057 372 1006 q 560 1108 463 1108 z "},"Ū":{"ha":847,"x_min":81,"x_max":958,"o":"m 408 1053 l 771 1053 l 756 943 l 393 943 l 408 1053 m 746 328 q 637 92 721 197 q 367 -14 553 -14 q 157 49 222 -14 q 92 221 92 111 q 110 368 92 272 l 186 758 l 81 790 l 93 853 l 504 853 l 492 790 l 375 758 l 299 367 q 281 211 281 276 q 311 113 281 147 q 413 78 342 78 q 567 153 510 78 q 647 340 625 229 l 728 758 l 622 790 l 635 853 l 958 853 l 946 790 l 829 758 l 746 328 z "},"Ų":{"ha":847,"x_min":81,"x_max":958,"o":"m 746 328 q 528 17 699 89 q 442 -48 475 -8 q 394 -126 408 -87 q 379 -185 379 -164 q 432 -242 379 -242 q 521 -211 472 -242 l 549 -242 q 526 -267 549 -244 q 468 -308 504 -289 q 385 -328 432 -328 q 287 -298 317 -328 q 257 -222 257 -268 q 297 -116 257 -176 q 404 -12 338 -56 l 367 -14 q 157 49 222 -14 q 92 221 92 111 q 110 368 92 272 l 186 758 l 81 790 l 93 853 l 504 853 l 492 790 l 375 758 l 299 367 q 281 211 281 276 q 311 113 281 147 q 413 78 342 78 q 567 153 510 78 q 647 340 625 229 l 728 758 l 622 790 l 635 853 l 958 853 l 946 790 l 829 758 l 746 328 z "},"Ů":{"ha":847,"x_min":81,"x_max":958,"o":"m 565 871 q 466 897 501 871 q 431 969 431 922 q 477 1090 431 1042 q 618 1138 524 1138 q 715 1107 683 1138 q 747 1026 746 1076 q 696 914 747 957 q 565 871 644 871 m 576 936 q 631 963 615 936 q 646 1028 646 990 q 633 1059 646 1047 q 597 1071 621 1071 q 547 1044 561 1071 q 532 981 532 1018 q 540 947 532 958 q 576 936 549 936 m 367 -14 q 157 49 222 -14 q 92 221 92 111 q 110 368 92 272 l 186 758 l 81 790 l 93 853 l 504 853 l 492 790 l 375 758 l 299 367 q 281 211 281 276 q 311 113 281 147 q 413 78 342 78 q 567 153 510 78 q 647 340 625 229 l 728 758 l 622 790 l 635 853 l 958 853 l 946 790 l 829 758 l 746 328 q 637 92 721 197 q 367 -14 553 -14 z "},"Ũ":{"ha":847,"x_min":81,"x_max":958,"o":"m 808 1054 q 689 910 749 910 q 553 938 650 910 q 444 961 471 961 q 417 951 429 961 q 398 931 406 942 q 389 918 390 921 l 324 944 q 378 1048 346 1007 q 444 1089 411 1089 q 579 1061 485 1089 q 689 1038 661 1038 q 717 1047 704 1038 q 738 1067 731 1057 q 747 1081 746 1078 l 808 1054 m 746 328 q 637 92 721 197 q 367 -14 553 -14 q 157 49 222 -14 q 92 221 92 111 q 110 368 92 272 l 186 758 l 81 790 l 93 853 l 504 853 l 492 790 l 375 758 l 299 367 q 281 211 281 276 q 311 113 281 147 q 413 78 342 78 q 567 153 510 78 q 647 340 625 229 l 728 758 l 622 790 l 635 853 l 958 853 l 946 790 l 829 758 l 746 328 z "},"V":{"ha":718,"x_min":49,"x_max":853,"o":"m 556 790 l 567 853 l 853 853 l 842 788 l 742 757 l 357 4 l 238 -10 l 136 757 l 49 790 l 61 853 l 428 853 l 415 790 l 324 763 l 382 256 l 640 761 l 556 790 z "},"W":{"ha":1111,"x_min":65,"x_max":1238,"o":"m 939 790 l 950 853 l 1238 853 l 1226 792 l 1126 758 l 790 4 l 665 -17 l 603 556 l 356 4 l 225 -17 l 151 757 l 65 790 l 76 853 l 440 853 l 429 790 l 339 763 l 382 285 l 588 760 l 763 789 l 819 281 l 1024 761 l 939 790 z "},"Ẃ":{"ha":1111,"x_min":65,"x_max":1238,"o":"m 65 0 m 939 790 l 950 853 l 1238 853 l 1226 792 l 1126 758 l 790 4 l 665 -17 l 603 556 l 356 4 l 225 -17 l 151 757 l 65 790 l 76 853 l 440 853 l 429 790 l 339 763 l 382 285 l 588 760 l 763 789 l 819 281 l 1024 761 l 939 790 m 619 881 l 582 929 l 799 1111 l 936 1064 l 936 1032 l 619 881 z "},"Ŵ":{"ha":1111,"x_min":65,"x_max":1238,"o":"m 65 0 m 939 790 l 950 853 l 1238 853 l 1226 792 l 1126 758 l 790 4 l 665 -17 l 603 556 l 356 4 l 225 -17 l 151 757 l 65 790 l 76 853 l 440 853 l 429 790 l 339 763 l 382 285 l 588 760 l 763 789 l 819 281 l 1024 761 l 939 790 m 831 888 l 681 982 l 494 888 l 463 929 l 640 1104 l 758 1104 l 872 924 l 831 888 z "},"Ẅ":{"ha":1111,"x_min":65,"x_max":1238,"o":"m 65 0 m 939 790 l 950 853 l 1238 853 l 1226 792 l 1126 758 l 790 4 l 665 -17 l 603 556 l 356 4 l 225 -17 l 151 757 l 65 790 l 76 853 l 440 853 l 429 790 l 339 763 l 382 285 l 588 760 l 763 789 l 819 281 l 1024 761 l 939 790 m 629 999 q 599 927 629 956 q 526 899 569 899 q 450 927 482 899 q 418 999 418 956 q 451 1070 418 1040 q 526 1100 483 1100 q 599 1070 568 1100 q 629 999 629 1040 m 950 999 q 919 927 950 956 q 849 899 889 899 q 773 927 804 899 q 742 999 742 956 q 773 1071 742 1042 q 849 1100 804 1100 q 919 1070 889 1100 q 950 999 950 1040 z "},"Ẁ":{"ha":1111,"x_min":65,"x_max":1238,"o":"m 65 0 m 939 790 l 950 853 l 1238 853 l 1226 792 l 1126 758 l 790 4 l 665 -17 l 603 556 l 356 4 l 225 -17 l 151 757 l 65 790 l 76 853 l 440 853 l 429 790 l 339 763 l 382 285 l 588 760 l 763 789 l 819 281 l 1024 761 l 939 790 m 717 881 l 394 1032 l 400 1064 l 535 1111 l 749 929 l 717 881 z "},"X":{"ha":764,"x_min":-76,"x_max":861,"o":"m -76 0 l -65 63 l 25 90 l 299 413 l 160 763 l 78 790 l 90 853 l 468 853 l 454 785 l 357 763 l 443 546 l 639 763 l 549 785 l 563 853 l 861 853 l 849 790 l 756 763 l 479 454 l 625 90 l 721 63 l 710 0 l 329 0 l 342 68 l 428 90 l 335 321 l 142 90 l 231 64 l 218 0 l -76 0 z "},"Y":{"ha":681,"x_min":54,"x_max":810,"o":"m 510 789 l 522 853 l 810 853 l 797 792 l 699 757 l 438 356 l 388 96 l 492 63 l 481 0 l 69 0 l 81 63 l 199 96 l 253 374 l 140 756 l 54 789 l 67 851 l 435 853 l 422 788 l 328 758 l 407 468 l 596 761 l 510 789 z "},"Ý":{"ha":681,"x_min":58,"x_max":814,"o":"m 379 881 l 342 929 l 558 1111 l 696 1064 l 696 1032 l 379 881 m 514 789 l 526 853 l 814 853 l 801 792 l 703 757 l 442 356 l 392 96 l 496 63 l 485 0 l 74 0 l 85 63 l 203 96 l 257 374 l 144 756 l 58 789 l 71 851 l 439 853 l 426 788 l 332 758 l 411 468 l 600 761 l 514 789 z "},"Ŷ":{"ha":681,"x_min":58,"x_max":814,"o":"m 638 888 l 488 982 l 301 888 l 269 929 l 447 1104 l 565 1104 l 679 924 l 638 888 m 514 789 l 526 853 l 814 853 l 801 792 l 703 757 l 442 356 l 392 96 l 496 63 l 485 0 l 74 0 l 85 63 l 203 96 l 257 374 l 144 756 l 58 789 l 71 851 l 439 853 l 426 788 l 332 758 l 411 468 l 600 761 l 514 789 z "},"Ÿ":{"ha":681,"x_min":58,"x_max":814,"o":"m 442 999 q 412 927 442 956 q 339 899 382 899 q 263 927 294 899 q 231 999 231 956 q 263 1070 231 1040 q 339 1100 296 1100 q 411 1070 381 1100 q 442 999 442 1040 m 763 999 q 732 927 763 956 q 661 899 701 899 q 585 927 617 899 q 554 999 554 956 q 585 1071 554 1042 q 661 1100 617 1100 q 732 1070 701 1100 q 763 999 763 1040 m 514 789 l 526 853 l 814 853 l 801 792 l 703 757 l 442 356 l 392 96 l 496 63 l 485 0 l 74 0 l 85 63 l 203 96 l 257 374 l 144 756 l 58 789 l 71 851 l 439 853 l 426 788 l 332 758 l 411 468 l 600 761 l 514 789 z "},"Ỵ":{"ha":681,"x_min":54,"x_max":810,"o":"m 54 0 m 510 789 l 522 853 l 810 853 l 797 792 l 699 757 l 438 356 l 388 96 l 492 63 l 481 0 l 69 0 l 81 63 l 199 96 l 253 374 l 140 756 l 54 789 l 67 851 l 435 853 l 422 788 l 328 758 l 407 468 l 596 761 l 510 789 m 242 -56 q 315 -87 283 -56 q 347 -160 347 -118 q 316 -232 347 -201 q 242 -262 285 -262 q 169 -232 200 -262 q 138 -160 138 -201 q 169 -86 138 -117 q 242 -56 200 -56 z "},"Ỳ":{"ha":681,"x_min":58,"x_max":814,"o":"m 574 881 l 251 1032 l 257 1064 l 392 1111 l 606 929 l 574 881 m 74 0 l 85 63 l 203 96 l 257 374 l 144 756 l 58 789 l 71 851 l 439 853 l 426 788 l 332 758 l 411 468 l 600 761 l 514 789 l 526 853 l 814 853 l 801 792 l 703 757 l 442 356 l 392 96 l 496 63 l 485 0 l 74 0 z "},"Ỷ":{"ha":681,"x_min":54,"x_max":810,"o":"m 54 0 m 510 789 l 522 853 l 810 853 l 797 792 l 699 757 l 438 356 l 388 96 l 492 63 l 481 0 l 69 0 l 81 63 l 199 96 l 253 374 l 140 756 l 54 789 l 67 851 l 435 853 l 422 788 l 328 758 l 407 468 l 596 761 l 510 789 m 424 951 q 435 975 424 967 q 474 994 447 983 q 511 1013 499 1004 q 524 1035 524 1021 q 476 1060 524 1060 q 438 1057 468 1060 l 421 1019 l 365 1019 l 371 1093 q 501 1108 443 1108 q 596 1090 563 1108 q 629 1040 629 1072 q 612 1000 629 1017 q 568 975 594 983 q 540 967 561 974 q 506 950 518 960 q 493 926 493 940 l 425 926 l 424 951 z "},"Ȳ":{"ha":681,"x_min":54,"x_max":810,"o":"m 54 0 m 510 789 l 522 853 l 810 853 l 797 792 l 699 757 l 438 356 l 388 96 l 492 63 l 481 0 l 69 0 l 81 63 l 199 96 l 253 374 l 140 756 l 54 789 l 67 851 l 435 853 l 422 788 l 328 758 l 407 468 l 596 761 l 510 789 m 296 1053 l 658 1053 l 643 943 l 281 943 l 296 1053 z "},"Ỹ":{"ha":681,"x_min":58,"x_max":814,"o":"m 732 1054 q 613 910 672 910 q 476 938 574 910 q 368 961 394 961 q 341 951 353 961 q 322 931 329 942 q 313 918 314 921 l 247 944 q 302 1048 269 1007 q 368 1089 335 1089 q 503 1061 408 1089 q 613 1038 585 1038 q 641 1047 628 1038 q 662 1067 654 1057 q 671 1081 669 1078 l 732 1054 m 514 789 l 526 853 l 814 853 l 801 792 l 703 757 l 442 356 l 392 96 l 496 63 l 485 0 l 74 0 l 85 63 l 203 96 l 257 374 l 144 756 l 58 789 l 71 851 l 439 853 l 426 788 l 332 758 l 411 468 l 600 761 l 514 789 z "},"Z":{"ha":653,"x_min":-54,"x_max":725,"o":"m 613 225 l 558 0 l -40 0 l -54 46 l 485 758 l 225 758 l 174 650 l 97 650 l 124 853 l 725 853 l 725 807 l 186 96 l 464 96 l 539 225 l 613 225 z "},"Ź":{"ha":653,"x_min":-54,"x_max":725,"o":"m 322 881 l 285 929 l 501 1111 l 639 1064 l 639 1032 l 322 881 m 613 225 l 558 0 l -40 0 l -54 46 l 485 758 l 225 758 l 174 650 l 97 650 l 124 853 l 725 853 l 725 807 l 186 96 l 464 96 l 539 225 l 613 225 z "},"Ž":{"ha":653,"x_min":-54,"x_max":725,"o":"m 297 1104 l 447 1010 l 633 1104 l 665 1063 l 488 888 l 369 888 l 256 1068 l 297 1104 m 613 225 l 558 0 l -40 0 l -54 46 l 485 758 l 225 758 l 174 650 l 97 650 l 124 853 l 725 853 l 725 807 l 186 96 l 464 96 l 539 225 l 613 225 z "},"Ż":{"ha":653,"x_min":-54,"x_max":725,"o":"m 543 993 q 510 914 543 946 q 429 882 476 882 q 346 915 382 882 q 310 993 310 947 q 346 1075 310 1040 q 429 1110 382 1110 q 510 1075 476 1110 q 543 993 543 1040 m 613 225 l 558 0 l -40 0 l -54 46 l 485 758 l 225 758 l 174 650 l 97 650 l 124 853 l 725 853 l 725 807 l 186 96 l 464 96 l 539 225 l 613 225 z "},"Ẓ":{"ha":653,"x_min":-54,"x_max":725,"o":"m 0 0 m 613 225 l 558 0 l -40 0 l -54 46 l 485 758 l 225 758 l 174 650 l 97 650 l 124 853 l 725 853 l 725 807 l 186 96 l 464 96 l 539 225 l 613 225 m 228 -56 q 301 -87 269 -56 q 333 -160 333 -118 q 302 -232 333 -201 q 228 -262 271 -262 q 155 -232 186 -262 q 124 -160 124 -201 q 155 -86 124 -117 q 228 -56 186 -56 z "},"a":{"ha":758,"x_min":44,"x_max":701,"o":"m 619 299 q 601 156 604 215 q 596 92 597 96 l 699 92 l 699 25 q 503 -14 603 -14 q 435 4 460 -14 q 410 60 410 22 q 412 95 410 76 q 415 121 414 114 q 327 23 375 58 q 228 -12 279 -12 q 44 199 44 -12 q 97 468 44 350 q 237 651 149 586 q 431 715 325 715 q 489 710 460 715 q 537 701 518 706 q 561 694 556 696 l 607 740 l 701 726 l 619 299 m 279 101 q 354 139 311 101 q 422 215 397 176 q 440 300 428 240 q 463 419 451 360 l 500 607 q 429 622 464 622 q 324 566 368 622 q 256 414 279 510 q 232 201 232 318 q 244 124 232 147 q 279 101 256 101 z "},"á":{"ha":758,"x_min":44,"x_max":701,"o":"m 44 0 m 619 299 q 601 156 604 215 q 596 92 597 96 l 699 92 l 699 25 q 503 -14 603 -14 q 435 4 460 -14 q 410 60 410 22 q 412 95 410 76 q 415 121 414 114 q 327 23 375 58 q 228 -12 279 -12 q 44 199 44 -12 q 97 468 44 350 q 237 651 149 586 q 431 715 325 715 q 489 710 460 715 q 537 701 518 706 q 561 694 556 696 l 607 740 l 701 726 l 619 299 m 279 101 q 354 139 311 101 q 422 215 397 176 q 440 300 428 240 q 463 419 451 360 l 500 607 q 429 622 464 622 q 324 566 368 622 q 256 414 279 510 q 232 201 232 318 q 244 124 232 147 q 279 101 256 101 m 358 800 l 321 849 l 538 1031 l 675 983 l 675 951 l 358 800 z "},"ă":{"ha":758,"x_min":44,"x_max":701,"o":"m 443 821 q 333 855 367 821 q 300 944 300 889 q 313 1011 300 976 l 390 1011 q 388 986 388 997 q 401 942 388 957 q 460 926 415 926 q 541 948 519 926 q 574 1011 563 969 l 649 1011 q 585 872 631 924 q 443 821 540 821 m 619 299 q 601 156 604 215 q 596 92 597 96 l 699 92 l 699 25 q 503 -14 603 -14 q 435 4 460 -14 q 410 60 410 22 q 412 95 410 76 q 415 121 414 114 q 327 23 375 58 q 228 -12 279 -12 q 44 199 44 -12 q 97 468 44 350 q 237 651 149 586 q 431 715 325 715 q 489 710 460 715 q 537 701 518 706 q 561 694 556 696 l 607 740 l 701 726 l 619 299 m 279 101 q 354 139 311 101 q 422 215 397 176 q 440 300 428 240 q 463 419 451 360 l 500 607 q 429 622 464 622 q 324 566 368 622 q 256 414 279 510 q 232 201 232 318 q 244 124 232 147 q 279 101 256 101 z "},"ắ":{"ha":758,"x_min":44,"x_max":753,"o":"m 44 0 m 619 299 q 601 156 604 215 q 596 92 597 96 l 699 92 l 699 25 q 503 -14 603 -14 q 435 4 460 -14 q 410 60 410 22 q 412 95 410 76 q 415 121 414 114 q 327 23 375 58 q 228 -12 279 -12 q 44 199 44 -12 q 97 468 44 350 q 237 651 149 586 q 431 715 325 715 q 489 710 460 715 q 537 701 518 706 q 561 694 556 696 l 607 740 l 701 726 l 619 299 m 279 101 q 354 139 311 101 q 422 215 397 176 q 440 300 428 240 q 463 419 451 360 l 500 607 q 429 622 464 622 q 324 566 368 622 q 256 414 279 510 q 232 201 232 318 q 244 124 232 147 q 279 101 256 101 m 443 735 q 333 769 367 735 q 300 858 300 803 q 313 925 300 890 l 390 925 q 388 900 388 911 q 401 856 388 871 q 460 840 415 840 q 541 862 519 840 q 574 925 563 883 l 649 925 q 585 786 631 838 q 443 735 540 735 m 436 914 l 399 963 l 615 1144 l 753 1097 l 753 1065 l 436 914 z "},"ặ":{"ha":758,"x_min":44,"x_max":701,"o":"m 44 0 m 619 299 q 601 156 604 215 q 596 92 597 96 l 699 92 l 699 25 q 503 -14 603 -14 q 435 4 460 -14 q 410 60 410 22 q 412 95 410 76 q 415 121 414 114 q 327 23 375 58 q 228 -12 279 -12 q 44 199 44 -12 q 97 468 44 350 q 237 651 149 586 q 431 715 325 715 q 489 710 460 715 q 537 701 518 706 q 561 694 556 696 l 607 740 l 701 726 l 619 299 m 279 101 q 354 139 311 101 q 422 215 397 176 q 440 300 428 240 q 463 419 451 360 l 500 607 q 429 622 464 622 q 324 566 368 622 q 256 414 279 510 q 232 201 232 318 q 244 124 232 147 q 279 101 256 101 m 281 -56 q 354 -87 322 -56 q 386 -160 386 -118 q 355 -232 386 -201 q 281 -262 324 -262 q 208 -232 239 -262 q 176 -160 176 -201 q 208 -86 176 -117 q 281 -56 239 -56 m 460 821 q 350 855 383 821 q 317 944 317 889 q 329 1011 317 976 l 407 1011 q 404 986 404 997 q 418 942 404 957 q 476 926 432 926 q 558 948 536 926 q 590 1011 579 969 l 665 1011 q 602 872 647 924 q 460 821 557 821 z "},"ằ":{"ha":758,"x_min":44,"x_max":701,"o":"m 44 0 m 619 299 q 601 156 604 215 q 596 92 597 96 l 699 92 l 699 25 q 503 -14 603 -14 q 435 4 460 -14 q 410 60 410 22 q 412 95 410 76 q 415 121 414 114 q 327 23 375 58 q 228 -12 279 -12 q 44 199 44 -12 q 97 468 44 350 q 237 651 149 586 q 431 715 325 715 q 489 710 460 715 q 537 701 518 706 q 561 694 556 696 l 607 740 l 701 726 l 619 299 m 279 101 q 354 139 311 101 q 422 215 397 176 q 440 300 428 240 q 463 419 451 360 l 500 607 q 429 622 464 622 q 324 566 368 622 q 256 414 279 510 q 232 201 232 318 q 244 124 232 147 q 279 101 256 101 m 443 735 q 333 769 367 735 q 300 858 300 803 q 313 925 300 890 l 390 925 q 388 900 388 911 q 401 856 388 871 q 460 840 415 840 q 541 862 519 840 q 574 925 563 883 l 649 925 q 585 786 631 838 q 443 735 540 735 m 533 914 l 211 1065 l 217 1097 l 351 1144 l 565 963 l 533 914 z "},"ẳ":{"ha":758,"x_min":44,"x_max":701,"o":"m 44 0 m 619 299 q 601 156 604 215 q 596 92 597 96 l 699 92 l 699 25 q 503 -14 603 -14 q 435 4 460 -14 q 410 60 410 22 q 412 95 410 76 q 415 121 414 114 q 327 23 375 58 q 228 -12 279 -12 q 44 199 44 -12 q 97 468 44 350 q 237 651 149 586 q 431 715 325 715 q 489 710 460 715 q 537 701 518 706 q 561 694 556 696 l 607 740 l 701 726 l 619 299 m 279 101 q 354 139 311 101 q 422 215 397 176 q 440 300 428 240 q 463 419 451 360 l 500 607 q 429 622 464 622 q 324 566 368 622 q 256 414 279 510 q 232 201 232 318 q 244 124 232 147 q 279 101 256 101 m 443 735 q 333 769 367 735 q 300 858 300 803 q 313 925 300 890 l 390 925 q 388 900 388 911 q 401 856 388 871 q 460 840 415 840 q 541 862 519 840 q 574 925 563 883 l 649 925 q 585 786 631 838 q 443 735 540 735 m 456 985 q 467 1008 456 1000 q 506 1028 479 1017 q 543 1046 531 1038 q 556 1068 556 1054 q 508 1093 556 1093 q 469 1090 500 1093 l 453 1053 l 397 1053 l 403 1126 q 533 1142 475 1142 q 628 1124 594 1142 q 661 1074 661 1106 q 644 1033 661 1050 q 600 1008 626 1017 q 572 1000 593 1007 q 538 983 550 993 q 525 960 525 974 l 457 960 l 456 985 z "},"ẵ":{"ha":758,"x_min":44,"x_max":743,"o":"m 44 0 m 619 299 q 601 156 604 215 q 596 92 597 96 l 699 92 l 699 25 q 503 -14 603 -14 q 435 4 460 -14 q 410 60 410 22 q 412 95 410 76 q 415 121 414 114 q 327 23 375 58 q 228 -12 279 -12 q 44 199 44 -12 q 97 468 44 350 q 237 651 149 586 q 431 715 325 715 q 489 710 460 715 q 537 701 518 706 q 561 694 556 696 l 607 740 l 701 726 l 619 299 m 279 101 q 354 139 311 101 q 422 215 397 176 q 440 300 428 240 q 463 419 451 360 l 500 607 q 429 622 464 622 q 324 566 368 622 q 256 414 279 510 q 232 201 232 318 q 244 124 232 147 q 279 101 256 101 m 443 735 q 333 769 367 735 q 300 858 300 803 q 313 925 300 890 l 390 925 q 388 900 388 911 q 401 856 388 871 q 460 840 415 840 q 541 862 519 840 q 574 925 563 883 l 649 925 q 585 786 631 838 q 443 735 540 735 m 743 1088 q 624 943 683 943 q 488 971 585 943 q 379 994 406 994 q 352 985 364 994 q 333 965 340 975 q 324 951 325 954 l 258 978 q 313 1081 281 1040 q 379 1122 346 1122 q 514 1094 419 1122 q 624 1071 596 1071 q 652 1081 639 1071 q 673 1101 665 1090 q 682 1114 681 1111 l 743 1088 z "},"ǎ":{"ha":758,"x_min":44,"x_max":701,"o":"m 44 0 m 619 299 q 601 156 604 215 q 596 92 597 96 l 699 92 l 699 25 q 503 -14 603 -14 q 435 4 460 -14 q 410 60 410 22 q 412 95 410 76 q 415 121 414 114 q 327 23 375 58 q 228 -12 279 -12 q 44 199 44 -12 q 97 468 44 350 q 237 651 149 586 q 431 715 325 715 q 489 710 460 715 q 537 701 518 706 q 561 694 556 696 l 607 740 l 701 726 l 619 299 m 279 101 q 354 139 311 101 q 422 215 397 176 q 440 300 428 240 q 463 419 451 360 l 500 607 q 429 622 464 622 q 324 566 368 622 q 256 414 279 510 q 232 201 232 318 q 244 124 232 147 q 279 101 256 101 m 351 1032 l 476 926 l 644 1032 l 689 986 l 517 801 l 399 801 l 294 997 l 351 1032 z "},"â":{"ha":758,"x_min":44,"x_max":701,"o":"m 600 799 l 479 907 l 307 799 l 267 842 l 439 1029 l 557 1029 l 654 831 l 600 799 m 619 299 q 601 156 604 215 q 596 92 597 96 l 699 92 l 699 25 q 503 -14 603 -14 q 435 4 460 -14 q 410 60 410 22 q 412 95 410 76 q 415 121 414 114 q 327 23 375 58 q 228 -12 279 -12 q 44 199 44 -12 q 97 468 44 350 q 237 651 149 586 q 431 715 325 715 q 489 710 460 715 q 537 701 518 706 q 561 694 556 696 l 607 740 l 701 726 l 619 299 m 279 101 q 354 139 311 101 q 422 215 397 176 q 440 300 428 240 q 463 419 451 360 l 500 607 q 429 622 464 622 q 324 566 368 622 q 256 414 279 510 q 232 201 232 318 q 244 124 232 147 q 279 101 256 101 z "},"ấ":{"ha":758,"x_min":44,"x_max":953,"o":"m 706 874 l 654 907 l 797 1153 l 943 1153 l 953 1122 l 706 874 m 611 799 l 490 907 l 318 799 l 278 842 l 450 1029 l 568 1029 l 665 831 l 611 799 m 619 299 q 601 156 604 215 q 596 92 597 96 l 699 92 l 699 25 q 503 -14 603 -14 q 435 4 460 -14 q 410 60 410 22 q 412 95 410 76 q 415 121 414 114 q 327 23 375 58 q 228 -12 279 -12 q 44 199 44 -12 q 97 468 44 350 q 237 651 149 586 q 431 715 325 715 q 489 710 460 715 q 537 701 518 706 q 561 694 556 696 l 607 740 l 701 726 l 619 299 m 279 101 q 354 139 311 101 q 422 215 397 176 q 440 300 428 240 q 463 419 451 360 l 500 607 q 429 622 464 622 q 324 566 368 622 q 256 414 279 510 q 232 201 232 318 q 244 124 232 147 q 279 101 256 101 z "},"ậ":{"ha":758,"x_min":44,"x_max":701,"o":"m 44 0 m 619 299 q 601 156 604 215 q 596 92 597 96 l 699 92 l 699 25 q 503 -14 603 -14 q 435 4 460 -14 q 410 60 410 22 q 412 95 410 76 q 415 121 414 114 q 327 23 375 58 q 228 -12 279 -12 q 44 199 44 -12 q 97 468 44 350 q 237 651 149 586 q 431 715 325 715 q 489 710 460 715 q 537 701 518 706 q 561 694 556 696 l 607 740 l 701 726 l 619 299 m 279 101 q 354 139 311 101 q 422 215 397 176 q 440 300 428 240 q 463 419 451 360 l 500 607 q 429 622 464 622 q 324 566 368 622 q 256 414 279 510 q 232 201 232 318 q 244 124 232 147 q 279 101 256 101 m 281 -56 q 354 -87 322 -56 q 386 -160 386 -118 q 355 -232 386 -201 q 281 -262 324 -262 q 208 -232 239 -262 q 176 -160 176 -201 q 208 -86 176 -117 q 281 -56 239 -56 m 611 799 l 490 907 l 318 799 l 278 842 l 450 1029 l 568 1029 l 665 831 l 611 799 z "},"ầ":{"ha":758,"x_min":44,"x_max":740,"o":"m 685 874 l 535 1129 l 558 1153 l 668 1153 l 740 897 l 685 874 m 597 799 l 476 907 l 304 799 l 264 842 l 436 1029 l 554 1029 l 651 831 l 597 799 m 619 299 q 601 156 604 215 q 596 92 597 96 l 699 92 l 699 25 q 503 -14 603 -14 q 435 4 460 -14 q 410 60 410 22 q 412 95 410 76 q 415 121 414 114 q 327 23 375 58 q 228 -12 279 -12 q 44 199 44 -12 q 97 468 44 350 q 237 651 149 586 q 431 715 325 715 q 489 710 460 715 q 537 701 518 706 q 561 694 556 696 l 607 740 l 701 726 l 619 299 m 279 101 q 354 139 311 101 q 422 215 397 176 q 440 300 428 240 q 463 419 451 360 l 500 607 q 429 622 464 622 q 324 566 368 622 q 256 414 279 510 q 232 201 232 318 q 244 124 232 147 q 279 101 256 101 z "},"ẩ":{"ha":758,"x_min":44,"x_max":857,"o":"m 44 0 m 619 299 q 601 156 604 215 q 596 92 597 96 l 699 92 l 699 25 q 503 -14 603 -14 q 435 4 460 -14 q 410 60 410 22 q 412 95 410 76 q 415 121 414 114 q 327 23 375 58 q 228 -12 279 -12 q 44 199 44 -12 q 97 468 44 350 q 237 651 149 586 q 431 715 325 715 q 489 710 460 715 q 537 701 518 706 q 561 694 556 696 l 607 740 l 701 726 l 619 299 m 279 101 q 354 139 311 101 q 422 215 397 176 q 440 300 428 240 q 463 419 451 360 l 500 607 q 429 622 464 622 q 324 566 368 622 q 256 414 279 510 q 232 201 232 318 q 244 124 232 147 q 279 101 256 101 m 611 799 l 490 907 l 318 799 l 278 842 l 450 1029 l 568 1029 l 665 831 l 611 799 m 651 996 q 663 1019 651 1011 q 701 1039 675 1028 q 739 1057 726 1049 q 751 1079 751 1065 q 704 1104 751 1104 q 665 1101 696 1104 l 649 1064 l 593 1064 l 599 1138 q 729 1153 671 1153 q 824 1135 790 1153 q 857 1085 857 1117 q 840 1044 857 1061 q 796 1019 822 1028 q 767 1011 789 1018 q 733 994 746 1004 q 721 971 721 985 l 653 971 l 651 996 z "},"ẫ":{"ha":758,"x_min":44,"x_max":754,"o":"m 390 988 q 363 978 375 988 q 344 958 351 968 q 335 944 336 947 l 269 971 q 324 1074 292 1033 q 390 1115 357 1115 q 525 1088 431 1115 q 635 1064 607 1064 q 663 1074 650 1064 q 684 1094 676 1083 q 693 1107 692 1104 l 754 1081 q 635 936 694 936 q 499 964 596 936 q 390 988 417 988 m 619 299 q 601 156 604 215 q 596 92 597 96 l 699 92 l 699 25 q 503 -14 603 -14 q 435 4 460 -14 q 410 60 410 22 q 412 95 410 76 q 415 121 414 114 q 327 23 375 58 q 228 -12 279 -12 q 44 199 44 -12 q 97 468 44 350 q 237 651 149 586 q 431 715 325 715 q 489 710 460 715 q 537 701 518 706 q 561 694 556 696 l 599 732 l 471 813 l 285 718 l 253 760 l 431 935 l 549 935 l 663 754 l 640 735 l 701 726 l 619 299 m 422 215 q 440 300 428 240 q 463 419 451 360 l 500 607 q 429 622 464 622 q 324 566 368 622 q 256 414 279 510 q 232 201 232 318 q 244 124 232 147 q 279 101 256 101 q 354 139 311 101 q 422 215 397 176 z "},"ȁ":{"ha":758,"x_min":44,"x_max":701,"o":"m 44 0 m 619 299 q 601 156 604 215 q 596 92 597 96 l 699 92 l 699 25 q 503 -14 603 -14 q 435 4 460 -14 q 410 60 410 22 q 412 95 410 76 q 415 121 414 114 q 327 23 375 58 q 228 -12 279 -12 q 44 199 44 -12 q 97 468 44 350 q 237 651 149 586 q 431 715 325 715 q 489 710 460 715 q 537 701 518 706 q 561 694 556 696 l 607 740 l 701 726 l 619 299 m 279 101 q 354 139 311 101 q 422 215 397 176 q 440 300 428 240 q 463 419 451 360 l 500 607 q 429 622 464 622 q 324 566 368 622 q 256 414 279 510 q 232 201 232 318 q 244 124 232 147 q 279 101 256 101 m 364 783 l 196 1007 l 201 1038 l 329 1038 l 414 815 l 364 783 m 588 783 l 419 1007 l 425 1038 l 553 1038 l 638 815 l 588 783 z "},"ä":{"ha":758,"x_min":44,"x_max":707,"o":"m 386 913 q 356 841 386 869 q 283 813 326 813 q 207 841 239 813 q 175 913 175 869 q 208 984 175 954 q 283 1014 240 1014 q 356 984 325 1014 q 386 913 386 954 m 707 913 q 676 841 707 869 q 606 813 646 813 q 530 841 561 813 q 499 913 499 869 q 530 985 499 956 q 606 1014 561 1014 q 676 984 646 1014 q 707 913 707 954 m 619 299 q 601 156 604 215 q 596 92 597 96 l 699 92 l 699 25 q 503 -14 603 -14 q 435 4 460 -14 q 410 60 410 22 q 412 95 410 76 q 415 121 414 114 q 327 23 375 58 q 228 -12 279 -12 q 44 199 44 -12 q 97 468 44 350 q 237 651 149 586 q 431 715 325 715 q 489 710 460 715 q 537 701 518 706 q 561 694 556 696 l 607 740 l 701 726 l 619 299 m 279 101 q 354 139 311 101 q 422 215 397 176 q 440 300 428 240 q 463 419 451 360 l 500 607 q 429 622 464 622 q 324 566 368 622 q 256 414 279 510 q 232 201 232 318 q 244 124 232 147 q 279 101 256 101 z "},"ạ":{"ha":758,"x_min":44,"x_max":701,"o":"m 44 0 m 619 299 q 601 156 604 215 q 596 92 597 96 l 699 92 l 699 25 q 503 -14 603 -14 q 435 4 460 -14 q 410 60 410 22 q 412 95 410 76 q 415 121 414 114 q 327 23 375 58 q 228 -12 279 -12 q 44 199 44 -12 q 97 468 44 350 q 237 651 149 586 q 431 715 325 715 q 489 710 460 715 q 537 701 518 706 q 561 694 556 696 l 607 740 l 701 726 l 619 299 m 279 101 q 354 139 311 101 q 422 215 397 176 q 440 300 428 240 q 463 419 451 360 l 500 607 q 429 622 464 622 q 324 566 368 622 q 256 414 279 510 q 232 201 232 318 q 244 124 232 147 q 279 101 256 101 m 281 -56 q 354 -87 322 -56 q 386 -160 386 -118 q 355 -232 386 -201 q 281 -262 324 -262 q 208 -232 239 -262 q 176 -160 176 -201 q 208 -86 176 -117 q 281 -56 239 -56 z "},"à":{"ha":758,"x_min":44,"x_max":701,"o":"m 572 803 l 250 954 l 256 986 l 390 1033 l 604 851 l 572 803 m 619 299 q 601 156 604 215 q 596 92 597 96 l 699 92 l 699 25 q 503 -14 603 -14 q 435 4 460 -14 q 410 60 410 22 q 412 95 410 76 q 415 121 414 114 q 327 23 375 58 q 228 -12 279 -12 q 44 199 44 -12 q 97 468 44 350 q 237 651 149 586 q 431 715 325 715 q 489 710 460 715 q 537 701 518 706 q 561 694 556 696 l 607 740 l 701 726 l 619 299 m 279 101 q 354 139 311 101 q 422 215 397 176 q 440 300 428 240 q 463 419 451 360 l 500 607 q 429 622 464 622 q 324 566 368 622 q 256 414 279 510 q 232 201 232 318 q 244 124 232 147 q 279 101 256 101 z "},"ả":{"ha":758,"x_min":44,"x_max":701,"o":"m 44 0 m 619 299 q 601 156 604 215 q 596 92 597 96 l 699 92 l 699 25 q 503 -14 603 -14 q 435 4 460 -14 q 410 60 410 22 q 412 95 410 76 q 415 121 414 114 q 327 23 375 58 q 228 -12 279 -12 q 44 199 44 -12 q 97 468 44 350 q 237 651 149 586 q 431 715 325 715 q 489 710 460 715 q 537 701 518 706 q 561 694 556 696 l 607 740 l 701 726 l 619 299 m 279 101 q 354 139 311 101 q 422 215 397 176 q 440 300 428 240 q 463 419 451 360 l 500 607 q 429 622 464 622 q 324 566 368 622 q 256 414 279 510 q 232 201 232 318 q 244 124 232 147 q 279 101 256 101 m 429 782 q 441 806 429 797 q 479 825 453 814 q 517 843 504 835 q 529 865 529 851 q 482 890 529 890 q 443 888 474 890 l 426 850 l 371 850 l 376 924 q 507 939 449 939 q 601 921 568 939 q 635 871 635 903 q 617 831 635 847 q 574 806 600 814 q 545 797 567 804 q 511 781 524 790 q 499 757 499 771 l 431 757 l 429 782 z "},"ȃ":{"ha":758,"x_min":44,"x_max":701,"o":"m 44 0 m 619 299 q 601 156 604 215 q 596 92 597 96 l 699 92 l 699 25 q 503 -14 603 -14 q 435 4 460 -14 q 410 60 410 22 q 412 95 410 76 q 415 121 414 114 q 327 23 375 58 q 228 -12 279 -12 q 44 199 44 -12 q 97 468 44 350 q 237 651 149 586 q 431 715 325 715 q 489 710 460 715 q 537 701 518 706 q 561 694 556 696 l 607 740 l 701 726 l 619 299 m 279 101 q 354 139 311 101 q 422 215 397 176 q 440 300 428 240 q 463 419 451 360 l 500 607 q 429 622 464 622 q 324 566 368 622 q 256 414 279 510 q 232 201 232 318 q 244 124 232 147 q 279 101 256 101 m 497 1018 q 607 984 574 1018 q 640 894 640 950 q 628 828 640 863 l 550 828 q 553 853 553 842 q 539 897 553 882 q 481 913 525 913 q 399 891 421 913 q 367 828 378 869 l 292 828 q 355 967 310 915 q 497 1018 400 1018 z "},"ā":{"ha":758,"x_min":44,"x_max":701,"o":"m 300 968 l 635 968 l 619 858 l 285 858 l 300 968 m 619 299 q 601 156 604 215 q 596 92 597 96 l 699 92 l 699 25 q 503 -14 603 -14 q 435 4 460 -14 q 410 60 410 22 q 412 95 410 76 q 415 121 414 114 q 327 23 375 58 q 228 -12 279 -12 q 44 199 44 -12 q 97 468 44 350 q 237 651 149 586 q 431 715 325 715 q 489 710 460 715 q 537 701 518 706 q 561 694 556 696 l 607 740 l 701 726 l 619 299 m 279 101 q 354 139 311 101 q 422 215 397 176 q 440 300 428 240 q 463 419 451 360 l 500 607 q 429 622 464 622 q 324 566 368 622 q 256 414 279 510 q 232 201 232 318 q 244 124 232 147 q 279 101 256 101 z "},"ą":{"ha":758,"x_min":44,"x_max":701,"o":"m 538 -328 q 440 -298 469 -328 q 410 -222 410 -268 q 547 -11 410 -121 q 503 -14 517 -14 q 435 4 460 -14 q 410 60 410 22 q 412 95 410 76 q 415 121 414 114 q 327 23 375 58 q 228 -12 279 -12 q 44 199 44 -12 q 97 468 44 350 q 237 651 149 586 q 431 715 325 715 q 489 710 460 715 q 537 701 518 706 q 561 694 556 696 l 607 740 l 701 726 l 619 299 q 601 156 604 215 q 596 92 597 96 l 699 92 l 699 25 q 567 -87 601 -26 q 532 -185 532 -147 q 546 -226 532 -211 q 585 -242 560 -242 q 674 -211 625 -242 l 701 -242 q 679 -267 701 -244 q 621 -308 657 -289 q 538 -328 585 -328 m 279 101 q 354 139 311 101 q 422 215 397 176 q 440 300 428 240 q 463 419 451 360 l 500 607 q 429 622 464 622 q 324 566 368 622 q 256 414 279 510 q 232 201 232 318 q 244 124 232 147 q 279 101 256 101 z "},"å":{"ha":758,"x_min":44,"x_max":701,"o":"m 442 775 q 338 808 374 775 q 303 893 303 840 q 351 1018 303 967 q 483 1069 400 1069 q 587 1035 551 1069 q 622 944 622 1000 q 572 822 622 868 q 442 775 522 775 m 451 847 q 505 874 490 847 q 519 947 519 901 q 510 983 519 971 q 474 996 500 996 q 406 890 406 996 q 416 858 406 869 q 451 847 426 847 m 228 -12 q 44 199 44 -12 q 97 468 44 350 q 237 651 149 586 q 431 715 325 715 q 489 710 460 715 q 537 701 518 706 q 561 694 556 696 l 607 740 l 701 726 l 619 299 q 601 156 604 215 q 596 92 597 96 l 699 92 l 699 25 q 503 -14 603 -14 q 435 4 460 -14 q 410 60 410 22 q 412 95 410 76 q 415 121 414 114 q 327 23 375 58 q 228 -12 279 -12 m 279 101 q 354 139 311 101 q 422 215 397 176 q 440 300 428 240 q 463 419 451 360 l 500 607 q 429 622 464 622 q 324 566 368 622 q 256 414 279 510 q 232 201 232 318 q 244 124 232 147 q 279 101 256 101 z "},"ǻ":{"ha":758,"x_min":44,"x_max":778,"o":"m 778 1113 l 472 967 q 506 968 482 968 q 602 938 571 968 q 635 857 633 907 q 600 760 635 800 q 508 707 565 721 q 543 699 529 703 q 561 694 557 696 l 607 740 l 701 726 l 619 299 q 601 156 604 215 q 596 92 597 96 l 699 92 l 699 25 q 503 -14 603 -14 q 435 4 460 -14 q 410 60 410 22 q 412 95 410 76 q 415 121 414 114 q 327 23 375 58 q 228 -12 279 -12 q 44 199 44 -12 q 90 451 44 339 q 212 630 135 563 q 383 713 289 697 q 335 746 351 724 q 318 800 318 768 q 353 907 318 863 q 458 964 388 951 l 424 1010 l 640 1192 l 778 1144 l 778 1113 m 533 858 q 521 890 533 878 q 485 901 508 901 q 434 875 449 901 q 419 811 419 849 q 428 778 419 789 q 464 767 436 767 q 518 794 503 767 q 533 858 533 821 m 422 215 q 440 300 428 240 q 463 419 451 360 l 500 607 q 429 622 464 622 q 324 566 368 622 q 256 414 279 510 q 232 201 232 318 q 244 124 232 147 q 279 101 256 101 q 354 139 311 101 q 422 215 397 176 z "},"ã":{"ha":758,"x_min":44,"x_max":717,"o":"m 717 968 q 597 824 657 824 q 468 851 557 824 q 365 875 392 875 q 338 865 350 875 q 319 845 326 856 q 310 832 311 835 l 244 858 q 365 1003 306 1003 q 493 975 404 1003 q 597 951 569 951 q 626 961 613 951 q 647 981 639 971 q 656 994 654 992 l 717 968 m 619 299 q 601 156 604 215 q 596 92 597 96 l 699 92 l 699 25 q 503 -14 603 -14 q 435 4 460 -14 q 410 60 410 22 q 412 95 410 76 q 415 121 414 114 q 327 23 375 58 q 228 -12 279 -12 q 44 199 44 -12 q 97 468 44 350 q 237 651 149 586 q 431 715 325 715 q 489 710 460 715 q 537 701 518 706 q 561 694 556 696 l 607 740 l 701 726 l 619 299 m 279 101 q 354 139 311 101 q 422 215 397 176 q 440 300 428 240 q 463 419 451 360 l 500 607 q 429 622 464 622 q 324 566 368 622 q 256 414 279 510 q 232 201 232 318 q 244 124 232 147 q 279 101 256 101 z "},"æ":{"ha":994,"x_min":42,"x_max":1014,"o":"m 658 -14 q 447 136 485 -14 q 329 24 383 60 q 225 -12 275 -12 q 42 199 42 -12 q 94 468 42 350 q 234 651 146 586 q 428 715 322 715 q 486 710 457 715 q 534 701 515 706 q 558 694 553 696 l 604 740 l 678 722 l 664 663 q 742 699 690 683 q 838 715 794 715 q 967 681 919 715 q 1014 578 1014 646 q 913 392 1014 458 q 626 325 813 325 q 621 239 621 282 q 648 130 621 167 q 739 93 675 93 q 885 118 818 93 l 901 50 q 801 4 858 22 q 658 -14 744 -14 m 276 101 q 352 138 308 101 q 419 211 396 174 l 453 378 q 497 607 492 592 q 426 622 461 622 q 321 566 365 622 q 253 414 276 510 q 229 201 229 318 q 241 124 229 147 q 276 101 253 101 m 636 401 q 793 444 733 401 q 853 560 853 486 q 841 601 853 586 q 797 617 829 617 q 697 560 739 617 q 636 401 654 503 z "},"ǽ":{"ha":994,"x_min":42,"x_max":1014,"o":"m 42 0 m 658 -14 q 447 136 485 -14 q 329 24 383 60 q 225 -12 275 -12 q 42 199 42 -12 q 94 468 42 350 q 234 651 146 586 q 428 715 322 715 q 486 710 457 715 q 534 701 515 706 q 558 694 553 696 l 604 740 l 678 722 l 664 663 q 742 699 690 683 q 838 715 794 715 q 967 681 919 715 q 1014 578 1014 646 q 913 392 1014 458 q 626 325 813 325 q 621 239 621 282 q 648 130 621 167 q 739 93 675 93 q 885 118 818 93 l 901 50 q 801 4 858 22 q 658 -14 744 -14 m 276 101 q 352 138 308 101 q 419 211 396 174 l 453 378 q 497 607 492 592 q 426 622 461 622 q 321 566 365 622 q 253 414 276 510 q 229 201 229 318 q 241 124 229 147 q 276 101 253 101 m 636 401 q 793 444 733 401 q 853 560 853 486 q 841 601 853 586 q 797 617 829 617 q 697 560 739 617 q 636 401 654 503 m 476 800 l 439 849 l 656 1031 l 793 983 l 793 951 l 476 800 z "},"b":{"ha":728,"x_min":32,"x_max":688,"o":"m 289 -12 q 136 3 201 -12 q 32 38 71 18 l 204 906 l 104 917 l 90 974 q 228 1010 153 994 q 350 1025 303 1025 q 376 1015 367 1025 q 385 990 385 1006 q 343 746 385 983 q 325 651 332 690 q 317 597 318 611 q 415 686 367 657 q 514 715 463 715 q 688 522 688 715 q 648 269 688 390 q 519 67 608 147 q 289 -12 431 -12 m 321 83 q 416 143 375 83 q 478 301 457 203 q 500 508 500 399 q 488 581 500 561 q 450 600 475 600 q 379 569 419 600 q 301 490 339 538 l 279 375 q 229 115 235 144 q 321 83 257 83 z "},"c":{"ha":565,"x_min":42,"x_max":608,"o":"m 474 610 q 415 617 451 617 q 273 510 315 617 q 231 242 231 403 q 256 130 231 167 q 342 93 281 93 q 474 118 394 93 l 490 50 q 386 1 443 17 q 274 -14 329 -14 q 105 40 168 -14 q 42 210 42 94 q 88 466 42 351 q 225 648 133 581 q 450 715 317 715 q 608 685 543 715 l 563 486 l 488 486 l 474 610 z "},"ć":{"ha":565,"x_min":42,"x_max":638,"o":"m 321 800 l 283 849 l 500 1031 l 638 983 l 638 951 l 321 800 m 474 610 q 415 617 451 617 q 273 510 315 617 q 231 242 231 403 q 256 130 231 167 q 342 93 281 93 q 474 118 394 93 l 490 50 q 386 1 443 17 q 274 -14 329 -14 q 105 40 168 -14 q 42 210 42 94 q 88 466 42 351 q 225 648 133 581 q 450 715 317 715 q 608 685 543 715 l 563 486 l 488 486 l 474 610 z "},"č":{"ha":565,"x_min":42,"x_max":643,"o":"m 306 1032 l 431 926 l 599 1032 l 643 986 l 471 801 l 353 801 l 249 997 l 306 1032 m 474 610 q 415 617 451 617 q 273 510 315 617 q 231 242 231 403 q 256 130 231 167 q 342 93 281 93 q 474 118 394 93 l 490 50 q 386 1 443 17 q 274 -14 329 -14 q 105 40 168 -14 q 42 210 42 94 q 88 466 42 351 q 225 648 133 581 q 450 715 317 715 q 608 685 543 715 l 563 486 l 488 486 l 474 610 z "},"ç":{"ha":565,"x_min":42,"x_max":608,"o":"m 474 610 q 415 617 451 617 q 273 510 315 617 q 231 242 231 403 q 256 130 231 167 q 342 93 281 93 q 474 118 394 93 l 490 50 q 283 -14 403 -11 l 260 -64 q 351 -87 321 -64 q 382 -149 382 -110 q 353 -233 382 -197 q 281 -287 324 -268 q 200 -306 238 -306 q 137 -300 160 -306 q 93 -283 114 -294 l 115 -235 q 163 -244 131 -244 q 218 -225 192 -244 q 244 -174 244 -206 q 176 -128 244 -129 l 171 -101 l 219 -10 q 90 56 138 3 q 42 210 42 110 q 88 466 42 351 q 225 648 133 581 q 450 715 317 715 q 608 685 543 715 l 563 486 l 488 486 l 474 610 z "},"ĉ":{"ha":565,"x_min":42,"x_max":625,"o":"m 42 0 m 474 610 q 415 617 451 617 q 273 510 315 617 q 231 242 231 403 q 256 130 231 167 q 342 93 281 93 q 474 118 394 93 l 490 50 q 386 1 443 17 q 274 -14 329 -14 q 105 40 168 -14 q 42 210 42 94 q 88 466 42 351 q 225 648 133 581 q 450 715 317 715 q 608 685 543 715 l 563 486 l 488 486 l 474 610 m 571 799 l 450 907 l 278 799 l 238 842 l 410 1029 l 528 1029 l 625 831 l 571 799 z "},"ċ":{"ha":565,"x_min":42,"x_max":608,"o":"m 42 0 m 474 610 q 415 617 451 617 q 273 510 315 617 q 231 242 231 403 q 256 130 231 167 q 342 93 281 93 q 474 118 394 93 l 490 50 q 386 1 443 17 q 274 -14 329 -14 q 105 40 168 -14 q 42 210 42 94 q 88 466 42 351 q 225 648 133 581 q 450 715 317 715 q 608 685 543 715 l 563 486 l 488 486 l 474 610 m 450 813 q 377 843 408 813 q 346 915 346 874 q 377 989 346 958 q 450 1019 408 1019 q 524 988 492 1019 q 556 915 556 957 q 524 843 556 874 q 450 813 493 813 z "},"d":{"ha":749,"x_min":40,"x_max":742,"o":"m 211 -14 q 91 37 142 -14 q 40 200 40 88 q 90 474 40 358 q 230 653 140 590 q 436 715 319 715 q 519 706 482 715 l 560 906 l 458 917 l 444 975 q 581 1010 506 996 q 706 1025 657 1025 q 742 992 742 1025 q 701 747 742 971 q 619 301 661 522 q 599 156 603 215 q 594 92 596 96 l 697 92 l 697 25 q 500 -14 600 -14 q 433 5 457 -14 q 408 60 408 24 q 410 95 408 76 q 414 121 413 114 q 326 21 372 56 q 211 -14 279 -14 m 281 100 q 353 135 313 100 q 422 215 394 171 l 499 608 q 417 619 465 619 q 305 553 347 619 q 245 391 263 486 q 228 203 228 296 q 242 123 228 146 q 281 100 256 100 z "},"ð":{"ha":700,"x_min":40,"x_max":660,"o":"m 249 -14 q 92 43 144 -14 q 40 197 40 100 q 91 476 40 360 q 233 654 142 593 q 447 715 325 715 l 454 715 q 422 804 443 758 l 308 731 l 265 800 l 382 874 q 285 997 344 932 l 346 1056 q 478 935 421 997 l 599 1011 l 642 944 l 528 871 q 624 688 590 783 q 660 501 658 593 l 660 474 l 658 451 q 597 201 650 306 q 455 41 544 96 q 249 -14 365 -14 m 290 78 q 431 203 389 78 q 472 501 472 329 q 459 591 472 561 q 410 621 446 621 q 267 490 307 621 q 228 197 228 358 q 240 108 228 138 q 290 78 253 78 z "},"ď":{"ha":803,"x_min":40,"x_max":913,"o":"m 792 732 l 771 1026 l 815 1026 l 913 999 l 849 732 l 792 732 m 211 -14 q 91 37 142 -14 q 40 200 40 88 q 90 474 40 358 q 230 653 140 590 q 436 715 319 715 q 519 706 482 715 l 560 906 l 458 917 l 444 975 q 581 1010 506 996 q 706 1025 657 1025 q 742 992 742 1025 q 701 747 742 971 q 619 301 661 522 q 599 156 603 215 q 594 92 596 96 l 697 92 l 697 25 q 500 -14 600 -14 q 433 5 457 -14 q 408 60 408 24 q 410 95 408 76 q 414 121 413 114 q 326 21 372 56 q 211 -14 279 -14 m 281 100 q 353 135 313 100 q 422 215 394 171 l 499 608 q 417 619 465 619 q 305 553 347 619 q 245 391 263 486 q 228 203 228 296 q 242 123 228 146 q 281 100 256 100 z "},"đ":{"ha":753,"x_min":40,"x_max":819,"o":"m 211 -14 q 91 37 142 -14 q 40 200 40 88 q 90 474 40 358 q 230 653 140 590 q 436 715 319 715 q 519 706 482 715 l 536 789 l 329 789 l 329 872 l 553 872 l 564 924 l 463 935 l 449 993 q 706 1025 588 1025 q 742 992 742 1025 q 724 872 742 974 l 819 872 l 819 789 l 708 789 q 653 488 679 626 q 619 301 628 349 q 599 156 603 215 q 594 92 596 96 l 697 92 l 697 25 q 500 -14 600 -14 q 433 5 457 -14 q 408 60 408 24 q 410 95 408 76 q 414 121 413 114 q 326 21 372 56 q 211 -14 279 -14 m 281 100 q 353 135 313 100 q 422 215 394 171 l 499 608 q 417 619 465 619 q 305 553 347 619 q 245 391 263 486 q 228 203 228 296 q 242 123 228 146 q 281 100 256 100 z "},"ḍ":{"ha":749,"x_min":40,"x_max":742,"o":"m 40 0 m 211 -14 q 91 37 142 -14 q 40 200 40 88 q 90 474 40 358 q 230 653 140 590 q 436 715 319 715 q 519 706 482 715 l 560 906 l 458 917 l 444 975 q 581 1010 506 996 q 706 1025 657 1025 q 742 992 742 1025 q 701 747 742 971 q 619 301 661 522 q 599 156 603 215 q 594 92 596 96 l 697 92 l 697 25 q 500 -14 600 -14 q 433 5 457 -14 q 408 60 408 24 q 410 95 408 76 q 414 121 413 114 q 326 21 372 56 q 211 -14 279 -14 m 281 100 q 353 135 313 100 q 422 215 394 171 l 499 608 q 417 619 465 619 q 305 553 347 619 q 245 391 263 486 q 228 203 228 296 q 242 123 228 146 q 281 100 256 100 m 276 -56 q 350 -87 318 -56 q 382 -160 382 -118 q 351 -232 382 -201 q 276 -262 319 -262 q 203 -232 235 -262 q 172 -160 172 -201 q 203 -86 172 -117 q 276 -56 235 -56 z "},"ǳ":{"ha":1283,"x_min":40,"x_max":1339,"o":"m 40 0 m 211 -14 q 91 37 142 -14 q 40 200 40 88 q 90 474 40 358 q 230 653 140 590 q 436 715 319 715 q 519 706 482 715 l 560 906 l 458 917 l 444 975 q 581 1010 506 996 q 706 1025 657 1025 q 742 992 742 1025 q 701 747 742 971 q 619 301 661 522 q 599 156 603 215 q 594 92 596 96 l 697 92 l 697 25 q 500 -14 600 -14 q 433 5 457 -14 q 408 60 408 24 q 410 95 408 76 q 414 121 413 114 q 326 21 372 56 q 211 -14 279 -14 m 281 100 q 353 135 313 100 q 422 215 394 171 l 499 608 q 417 619 465 619 q 305 553 347 619 q 245 391 263 486 q 228 203 228 296 q 242 123 228 146 q 281 100 256 100 m 1133 -92 q 1050 -76 1086 -92 q 967 -31 1014 -61 q 900 6 925 -6 q 846 18 875 18 q 808 6 825 18 q 779 -19 790 -6 q 765 -36 768 -32 l 693 17 l 1107 549 l 819 549 l 801 703 l 1219 703 l 1261 725 l 1339 667 l 924 147 q 1001 135 969 147 q 1078 97 1033 122 q 1141 65 1114 75 q 1200 54 1168 54 q 1263 61 1233 54 l 1286 -24 q 1209 -74 1244 -56 q 1133 -92 1174 -92 z "},"ǆ":{"ha":1283,"x_min":40,"x_max":1339,"o":"m 40 0 m 211 -14 q 91 37 142 -14 q 40 200 40 88 q 90 474 40 358 q 230 653 140 590 q 436 715 319 715 q 519 706 482 715 l 560 906 l 458 917 l 444 975 q 581 1010 506 996 q 706 1025 657 1025 q 742 992 742 1025 q 701 747 742 971 q 619 301 661 522 q 599 156 603 215 q 594 92 596 96 l 697 92 l 697 25 q 500 -14 600 -14 q 433 5 457 -14 q 408 60 408 24 q 410 95 408 76 q 414 121 413 114 q 326 21 372 56 q 211 -14 279 -14 m 281 100 q 353 135 313 100 q 422 215 394 171 l 499 608 q 417 619 465 619 q 305 553 347 619 q 245 391 263 486 q 228 203 228 296 q 242 123 228 146 q 281 100 256 100 m 1133 -92 q 1050 -76 1086 -92 q 967 -31 1014 -61 q 900 6 925 -6 q 846 18 875 18 q 808 6 825 18 q 779 -19 790 -6 q 765 -36 768 -32 l 693 17 l 1107 549 l 819 549 l 801 703 l 1219 703 l 1261 725 l 1339 667 l 924 147 q 1001 135 969 147 q 1078 97 1033 122 q 1141 65 1114 75 q 1200 54 1168 54 q 1263 61 1233 54 l 1286 -24 q 1209 -74 1244 -56 q 1133 -92 1174 -92 m 989 1032 l 1114 926 l 1282 1032 l 1326 986 l 1154 801 l 1036 801 l 932 997 l 989 1032 z "},"e":{"ha":610,"x_min":40,"x_max":621,"o":"m 444 715 q 574 681 526 715 q 621 578 621 646 q 520 392 621 458 q 233 325 419 325 q 228 239 228 282 q 255 130 228 167 q 346 93 282 93 q 492 118 425 93 l 508 50 q 408 4 465 22 q 265 -14 351 -14 q 101 45 163 -14 q 40 232 40 104 q 84 466 40 356 q 219 646 128 576 q 444 715 311 715 m 404 617 q 303 560 346 617 q 243 401 261 503 q 400 444 340 401 q 460 560 460 486 q 448 601 460 586 q 404 617 436 617 z "},"é":{"ha":601,"x_min":40,"x_max":642,"o":"m 325 800 l 288 849 l 504 1031 l 642 983 l 642 951 l 325 800 m 444 715 q 574 681 526 715 q 621 578 621 646 q 520 392 621 458 q 233 325 419 325 q 228 239 228 282 q 255 130 228 167 q 346 93 282 93 q 492 118 425 93 l 508 50 q 408 4 465 22 q 265 -14 351 -14 q 101 45 163 -14 q 40 232 40 104 q 84 466 40 356 q 219 646 128 576 q 444 715 311 715 m 404 617 q 303 560 346 617 q 243 401 261 503 q 400 444 340 401 q 460 560 460 486 q 448 601 460 586 q 404 617 436 617 z "},"ĕ":{"ha":610,"x_min":40,"x_max":621,"o":"m 40 0 m 444 715 q 574 681 526 715 q 621 578 621 646 q 520 392 621 458 q 233 325 419 325 q 228 239 228 282 q 255 130 228 167 q 346 93 282 93 q 492 118 425 93 l 508 50 q 408 4 465 22 q 265 -14 351 -14 q 101 45 163 -14 q 40 232 40 104 q 84 466 40 356 q 219 646 128 576 q 444 715 311 715 m 404 617 q 303 560 346 617 q 243 401 261 503 q 400 444 340 401 q 460 560 460 486 q 448 601 460 586 q 404 617 436 617 m 386 821 q 276 855 310 821 q 243 944 243 889 q 256 1011 243 976 l 333 1011 q 331 986 331 997 q 344 942 331 957 q 403 926 358 926 q 484 948 463 926 q 517 1011 506 969 l 592 1011 q 528 872 574 924 q 386 821 483 821 z "},"ě":{"ha":601,"x_min":40,"x_max":640,"o":"m 303 1032 l 428 926 l 596 1032 l 640 986 l 468 801 l 350 801 l 246 997 l 303 1032 m 444 715 q 574 681 526 715 q 621 578 621 646 q 520 392 621 458 q 233 325 419 325 q 228 239 228 282 q 255 130 228 167 q 346 93 282 93 q 492 118 425 93 l 508 50 q 408 4 465 22 q 265 -14 351 -14 q 101 45 163 -14 q 40 232 40 104 q 84 466 40 356 q 219 646 128 576 q 444 715 311 715 m 404 617 q 303 560 346 617 q 243 401 261 503 q 400 444 340 401 q 460 560 460 486 q 448 601 460 586 q 404 617 436 617 z "},"ê":{"ha":601,"x_min":40,"x_max":621,"o":"m 554 799 l 433 907 l 261 799 l 221 842 l 393 1029 l 511 1029 l 608 831 l 554 799 m 444 715 q 574 681 526 715 q 621 578 621 646 q 520 392 621 458 q 233 325 419 325 q 228 239 228 282 q 255 130 228 167 q 346 93 282 93 q 492 118 425 93 l 508 50 q 408 4 465 22 q 265 -14 351 -14 q 101 45 163 -14 q 40 232 40 104 q 84 466 40 356 q 219 646 128 576 q 444 715 311 715 m 404 617 q 303 560 346 617 q 243 401 261 503 q 400 444 340 401 q 460 560 460 486 q 448 601 460 586 q 404 617 436 617 z "},"ế":{"ha":610,"x_min":40,"x_max":879,"o":"m 632 874 l 581 907 l 724 1153 l 869 1153 l 879 1122 l 632 874 m 538 799 l 417 907 l 244 799 l 204 842 l 376 1029 l 494 1029 l 592 831 l 538 799 m 444 715 q 574 681 526 715 q 621 578 621 646 q 520 392 621 458 q 233 325 419 325 q 228 239 228 282 q 255 130 228 167 q 346 93 282 93 q 492 118 425 93 l 508 50 q 408 4 465 22 q 265 -14 351 -14 q 101 45 163 -14 q 40 232 40 104 q 84 466 40 356 q 219 646 128 576 q 444 715 311 715 m 404 617 q 303 560 346 617 q 243 401 261 503 q 400 444 340 401 q 460 560 460 486 q 448 601 460 586 q 404 617 436 617 z "},"ệ":{"ha":610,"x_min":40,"x_max":621,"o":"m 40 0 m 444 715 q 574 681 526 715 q 621 578 621 646 q 520 392 621 458 q 233 325 419 325 q 228 239 228 282 q 255 130 228 167 q 346 93 282 93 q 492 118 425 93 l 508 50 q 408 4 465 22 q 265 -14 351 -14 q 101 45 163 -14 q 40 232 40 104 q 84 466 40 356 q 219 646 128 576 q 444 715 311 715 m 404 617 q 303 560 346 617 q 243 401 261 503 q 400 444 340 401 q 460 560 460 486 q 448 601 460 586 q 404 617 436 617 m 207 -56 q 281 -87 249 -56 q 313 -160 313 -118 q 281 -232 313 -201 q 207 -262 250 -262 q 134 -232 165 -262 q 103 -160 103 -201 q 134 -86 103 -117 q 207 -56 165 -56 m 538 799 l 417 907 l 244 799 l 204 842 l 376 1029 l 494 1029 l 592 831 l 538 799 z "},"ề":{"ha":610,"x_min":40,"x_max":667,"o":"m 611 874 l 461 1129 l 485 1153 l 594 1153 l 667 897 l 611 874 m 524 799 l 403 907 l 231 799 l 190 842 l 363 1029 l 481 1029 l 578 831 l 524 799 m 444 715 q 574 681 526 715 q 621 578 621 646 q 520 392 621 458 q 233 325 419 325 q 228 239 228 282 q 255 130 228 167 q 346 93 282 93 q 492 118 425 93 l 508 50 q 408 4 465 22 q 265 -14 351 -14 q 101 45 163 -14 q 40 232 40 104 q 84 466 40 356 q 219 646 128 576 q 444 715 311 715 m 404 617 q 303 560 346 617 q 243 401 261 503 q 400 444 340 401 q 460 560 460 486 q 448 601 460 586 q 404 617 436 617 z "},"ể":{"ha":610,"x_min":40,"x_max":783,"o":"m 40 0 m 444 715 q 574 681 526 715 q 621 578 621 646 q 520 392 621 458 q 233 325 419 325 q 228 239 228 282 q 255 130 228 167 q 346 93 282 93 q 492 118 425 93 l 508 50 q 408 4 465 22 q 265 -14 351 -14 q 101 45 163 -14 q 40 232 40 104 q 84 466 40 356 q 219 646 128 576 q 444 715 311 715 m 404 617 q 303 560 346 617 q 243 401 261 503 q 400 444 340 401 q 460 560 460 486 q 448 601 460 586 q 404 617 436 617 m 538 799 l 417 907 l 244 799 l 204 842 l 376 1029 l 494 1029 l 592 831 l 538 799 m 578 996 q 590 1019 578 1011 q 628 1039 601 1028 q 665 1057 653 1049 q 678 1079 678 1065 q 631 1104 678 1104 q 592 1101 622 1104 l 575 1064 l 519 1064 l 525 1138 q 656 1153 597 1153 q 750 1135 717 1153 q 783 1085 783 1117 q 766 1044 783 1061 q 722 1019 749 1028 q 694 1011 715 1018 q 660 994 672 1004 q 647 971 647 985 l 579 971 l 578 996 z "},"ễ":{"ha":610,"x_min":40,"x_max":681,"o":"m 40 0 m 444 715 q 574 681 526 715 q 621 578 621 646 q 520 392 621 458 q 233 325 419 325 q 228 239 228 282 q 255 130 228 167 q 346 93 282 93 q 492 118 425 93 l 508 50 q 408 4 465 22 q 265 -14 351 -14 q 101 45 163 -14 q 40 232 40 104 q 84 466 40 356 q 219 646 128 576 q 444 715 311 715 m 404 617 q 303 560 346 617 q 243 401 261 503 q 400 444 340 401 q 460 560 460 486 q 448 601 460 586 q 404 617 436 617 m 547 718 l 397 813 l 211 718 l 179 760 l 357 935 l 475 935 l 589 754 l 547 718 m 681 1081 q 561 936 621 936 q 425 964 522 936 q 317 988 343 988 q 290 978 301 988 q 270 958 278 968 q 261 944 263 947 l 196 971 q 251 1074 218 1033 q 317 1115 283 1115 q 451 1088 357 1115 q 561 1064 533 1064 q 590 1074 576 1064 q 610 1094 603 1083 q 619 1107 618 1104 l 681 1081 z "},"ȅ":{"ha":610,"x_min":40,"x_max":621,"o":"m 40 0 m 444 715 q 574 681 526 715 q 621 578 621 646 q 520 392 621 458 q 233 325 419 325 q 228 239 228 282 q 255 130 228 167 q 346 93 282 93 q 492 118 425 93 l 508 50 q 408 4 465 22 q 265 -14 351 -14 q 101 45 163 -14 q 40 232 40 104 q 84 466 40 356 q 219 646 128 576 q 444 715 311 715 m 404 617 q 303 560 346 617 q 243 401 261 503 q 400 444 340 401 q 460 560 460 486 q 448 601 460 586 q 404 617 436 617 m 290 783 l 122 1007 l 128 1038 l 256 1038 l 340 815 l 290 783 m 514 783 l 346 1007 l 351 1038 l 479 1038 l 564 815 l 514 783 z "},"ë":{"ha":601,"x_min":40,"x_max":664,"o":"m 343 913 q 313 841 343 869 q 240 813 283 813 q 164 841 196 813 q 132 913 132 869 q 165 984 132 954 q 240 1014 197 1014 q 313 984 282 1014 q 343 913 343 954 m 664 913 q 633 841 664 869 q 563 813 603 813 q 487 841 518 813 q 456 913 456 869 q 487 985 456 956 q 563 1014 518 1014 q 633 984 603 1014 q 664 913 664 954 m 444 715 q 574 681 526 715 q 621 578 621 646 q 520 392 621 458 q 233 325 419 325 q 228 239 228 282 q 255 130 228 167 q 346 93 282 93 q 492 118 425 93 l 508 50 q 408 4 465 22 q 265 -14 351 -14 q 101 45 163 -14 q 40 232 40 104 q 84 466 40 356 q 219 646 128 576 q 444 715 311 715 m 404 617 q 303 560 346 617 q 243 401 261 503 q 400 444 340 401 q 460 560 460 486 q 448 601 460 586 q 404 617 436 617 z "},"ė":{"ha":601,"x_min":40,"x_max":621,"o":"m 433 1019 q 507 988 475 1019 q 539 915 539 957 q 508 843 539 874 q 433 813 476 813 q 360 843 392 813 q 329 915 329 874 q 360 989 329 958 q 433 1019 392 1019 m 444 715 q 574 681 526 715 q 621 578 621 646 q 520 392 621 458 q 233 325 419 325 q 228 239 228 282 q 255 130 228 167 q 346 93 282 93 q 492 118 425 93 l 508 50 q 408 4 465 22 q 265 -14 351 -14 q 101 45 163 -14 q 40 232 40 104 q 84 466 40 356 q 219 646 128 576 q 444 715 311 715 m 404 617 q 303 560 346 617 q 243 401 261 503 q 400 444 340 401 q 460 560 460 486 q 448 601 460 586 q 404 617 436 617 z "},"ẹ":{"ha":610,"x_min":40,"x_max":621,"o":"m 40 0 m 444 715 q 574 681 526 715 q 621 578 621 646 q 520 392 621 458 q 233 325 419 325 q 228 239 228 282 q 255 130 228 167 q 346 93 282 93 q 492 118 425 93 l 508 50 q 408 4 465 22 q 265 -14 351 -14 q 101 45 163 -14 q 40 232 40 104 q 84 466 40 356 q 219 646 128 576 q 444 715 311 715 m 404 617 q 303 560 346 617 q 243 401 261 503 q 400 444 340 401 q 460 560 460 486 q 448 601 460 586 q 404 617 436 617 m 207 -56 q 281 -87 249 -56 q 313 -160 313 -118 q 281 -232 313 -201 q 207 -262 250 -262 q 134 -232 165 -262 q 103 -160 103 -201 q 134 -86 103 -117 q 207 -56 165 -56 z "},"è":{"ha":601,"x_min":40,"x_max":621,"o":"m 542 800 l 219 951 l 225 983 l 360 1031 l 574 849 l 542 800 m 444 715 q 574 681 526 715 q 621 578 621 646 q 520 392 621 458 q 233 325 419 325 q 228 239 228 282 q 255 130 228 167 q 346 93 282 93 q 492 118 425 93 l 508 50 q 408 4 465 22 q 265 -14 351 -14 q 101 45 163 -14 q 40 232 40 104 q 84 466 40 356 q 219 646 128 576 q 444 715 311 715 m 404 617 q 303 560 346 617 q 243 401 261 503 q 400 444 340 401 q 460 560 460 486 q 448 601 460 586 q 404 617 436 617 z "},"ẻ":{"ha":610,"x_min":40,"x_max":621,"o":"m 40 0 m 444 715 q 574 681 526 715 q 621 578 621 646 q 520 392 621 458 q 233 325 419 325 q 228 239 228 282 q 255 130 228 167 q 346 93 282 93 q 492 118 425 93 l 508 50 q 408 4 465 22 q 265 -14 351 -14 q 101 45 163 -14 q 40 232 40 104 q 84 466 40 356 q 219 646 128 576 q 444 715 311 715 m 404 617 q 303 560 346 617 q 243 401 261 503 q 400 444 340 401 q 460 560 460 486 q 448 601 460 586 q 404 617 436 617 m 356 782 q 367 806 356 797 q 406 825 379 814 q 443 843 431 835 q 456 865 456 851 q 408 890 456 890 q 369 888 400 890 l 353 850 l 297 850 l 303 924 q 433 939 375 939 q 528 921 494 939 q 561 871 561 903 q 544 831 561 847 q 500 806 526 814 q 472 797 493 804 q 438 781 450 790 q 425 757 425 771 l 357 757 l 356 782 z "},"ȇ":{"ha":610,"x_min":40,"x_max":621,"o":"m 40 0 m 444 715 q 574 681 526 715 q 621 578 621 646 q 520 392 621 458 q 233 325 419 325 q 228 239 228 282 q 255 130 228 167 q 346 93 282 93 q 492 118 425 93 l 508 50 q 408 4 465 22 q 265 -14 351 -14 q 101 45 163 -14 q 40 232 40 104 q 84 466 40 356 q 219 646 128 576 q 444 715 311 715 m 404 617 q 303 560 346 617 q 243 401 261 503 q 400 444 340 401 q 460 560 460 486 q 448 601 460 586 q 404 617 436 617 m 424 1018 q 533 984 500 1018 q 567 894 567 950 q 554 828 567 863 l 476 828 q 479 853 479 842 q 465 897 479 882 q 407 913 451 913 q 326 891 347 913 q 293 828 304 869 l 218 828 q 281 967 236 915 q 424 1018 326 1018 z "},"ē":{"ha":601,"x_min":40,"x_max":621,"o":"m 264 968 l 599 968 l 583 858 l 249 858 l 264 968 m 444 715 q 574 681 526 715 q 621 578 621 646 q 520 392 621 458 q 233 325 419 325 q 228 239 228 282 q 255 130 228 167 q 346 93 282 93 q 492 118 425 93 l 508 50 q 408 4 465 22 q 265 -14 351 -14 q 101 45 163 -14 q 40 232 40 104 q 84 466 40 356 q 219 646 128 576 q 444 715 311 715 m 404 617 q 303 560 346 617 q 243 401 261 503 q 400 444 340 401 q 460 560 460 486 q 448 601 460 586 q 404 617 436 617 z "},"ę":{"ha":601,"x_min":40,"x_max":621,"o":"m 336 -328 q 238 -298 268 -328 q 208 -222 208 -268 q 242 -118 208 -169 q 339 -10 275 -67 q 265 -14 306 -14 q 101 45 163 -14 q 40 232 40 104 q 84 466 40 356 q 219 646 128 576 q 444 715 311 715 q 574 681 526 715 q 621 578 621 646 q 520 392 621 458 q 233 325 419 325 q 228 239 228 282 q 255 130 228 167 q 346 93 282 93 q 492 118 425 93 l 508 50 l 490 39 q 376 -67 422 -3 q 331 -185 331 -131 q 383 -242 331 -242 q 472 -211 424 -242 l 500 -242 q 478 -267 500 -244 q 419 -308 456 -289 q 336 -328 383 -328 m 243 401 q 400 444 340 401 q 460 560 460 486 q 448 601 460 586 q 404 617 436 617 q 303 560 346 617 q 243 401 261 503 z "},"ẽ":{"ha":601,"x_min":40,"x_max":674,"o":"m 674 968 q 554 824 614 824 q 425 851 514 824 q 322 875 349 875 q 295 865 307 875 q 276 845 283 856 q 267 832 268 835 l 201 858 q 322 1003 263 1003 q 450 975 361 1003 q 554 951 526 951 q 583 961 569 951 q 603 981 596 971 q 613 994 611 992 l 674 968 m 444 715 q 574 681 526 715 q 621 578 621 646 q 520 392 621 458 q 233 325 419 325 q 228 239 228 282 q 255 130 228 167 q 346 93 282 93 q 492 118 425 93 l 508 50 q 408 4 465 22 q 265 -14 351 -14 q 101 45 163 -14 q 40 232 40 104 q 84 466 40 356 q 219 646 128 576 q 444 715 311 715 m 404 617 q 303 560 346 617 q 243 401 261 503 q 400 444 340 401 q 460 560 460 486 q 448 601 460 586 q 404 617 436 617 z "},"ə":{"ha":610,"x_min":-11,"x_max":569,"o":"m 165 -32 q 36 3 83 -32 q -11 106 -11 38 q 90 292 -11 225 q 376 358 190 358 q 382 444 382 401 q 355 553 382 517 q 264 590 328 590 q 118 565 185 590 l 101 633 q 201 679 144 661 q 344 697 258 697 q 508 638 447 697 q 569 451 569 579 q 526 217 569 328 q 390 38 482 107 q 165 -32 299 -32 m 206 67 q 306 124 264 67 q 367 282 349 181 q 210 240 269 282 q 150 124 150 197 q 162 82 150 97 q 206 67 174 67 z "},"f":{"ha":425,"x_min":-201,"x_max":626,"o":"m -32 -256 q -201 -217 -129 -256 l -183 -143 q -85 -160 -136 -160 q 15 -132 -15 -160 q 58 -29 44 -104 l 160 586 l 67 586 l 49 656 l 183 693 l 201 790 q 278 964 221 903 q 456 1025 335 1025 q 544 1013 497 1025 q 626 982 590 1001 l 600 901 l 557 906 q 526 908 543 907 q 490 910 508 910 q 424 898 446 908 q 390 862 401 888 q 369 783 378 836 l 351 683 l 479 683 l 479 586 l 335 586 l 238 -39 q 156 -201 221 -147 q -32 -256 92 -256 z "},"g":{"ha":701,"x_min":-40,"x_max":685,"o":"m 186 -254 q -40 -206 46 -254 l -8 -125 q 73 -149 40 -142 q 156 -157 106 -157 q 259 -135 214 -157 q 340 -51 304 -114 q 396 128 376 11 q 201 28 313 28 q 85 76 136 28 q 33 228 33 124 q 82 479 33 368 q 217 653 131 590 q 411 715 303 715 q 543 694 490 715 l 596 742 l 685 731 l 546 25 q 412 -194 513 -135 q 186 -254 311 -254 m 269 135 q 344 165 303 135 q 408 226 386 194 q 442 401 417 272 q 483 607 467 529 q 408 621 449 621 q 305 565 347 621 q 242 419 263 508 q 221 232 221 329 q 233 156 221 178 q 269 135 246 135 z "},"ǵ":{"ha":701,"x_min":-40,"x_max":685,"o":"m 0 0 m 186 -254 q -40 -206 46 -254 l -8 -125 q 73 -149 40 -142 q 156 -157 106 -157 q 259 -135 214 -157 q 340 -51 304 -114 q 396 128 376 11 q 201 28 313 28 q 85 76 136 28 q 33 228 33 124 q 82 479 33 368 q 217 653 131 590 q 411 715 303 715 q 543 694 490 715 l 596 742 l 685 731 l 546 25 q 412 -194 513 -135 q 186 -254 311 -254 m 269 135 q 344 165 303 135 q 408 226 386 194 q 442 401 417 272 q 483 607 467 529 q 408 621 449 621 q 305 565 347 621 q 242 419 263 508 q 221 232 221 329 q 233 156 221 178 q 269 135 246 135 m 331 800 l 293 849 l 510 1031 l 647 983 l 647 951 l 331 800 z "},"ğ":{"ha":701,"x_min":-40,"x_max":685,"o":"m 425 821 q 315 855 349 821 q 282 944 282 889 q 294 1011 282 976 l 372 1011 q 369 986 369 997 q 383 942 369 957 q 442 926 397 926 q 523 948 501 926 q 556 1011 544 969 l 631 1011 q 567 872 613 924 q 425 821 522 821 m 186 -254 q -40 -206 46 -254 l -8 -125 q 73 -149 40 -142 q 156 -157 106 -157 q 259 -135 214 -157 q 340 -51 304 -114 q 396 128 376 11 q 201 28 313 28 q 85 76 136 28 q 33 228 33 124 q 82 479 33 368 q 217 653 131 590 q 411 715 303 715 q 543 694 490 715 l 596 742 l 685 731 l 546 25 q 412 -194 513 -135 q 186 -254 311 -254 m 269 135 q 344 165 303 135 q 408 226 386 194 q 442 401 417 272 q 483 607 467 529 q 408 621 449 621 q 305 565 347 621 q 242 419 263 508 q 221 232 221 329 q 233 156 221 178 q 269 135 246 135 z "},"ǧ":{"ha":701,"x_min":-40,"x_max":685,"o":"m 0 0 m 186 -254 q -40 -206 46 -254 l -8 -125 q 73 -149 40 -142 q 156 -157 106 -157 q 259 -135 214 -157 q 340 -51 304 -114 q 396 128 376 11 q 201 28 313 28 q 85 76 136 28 q 33 228 33 124 q 82 479 33 368 q 217 653 131 590 q 411 715 303 715 q 543 694 490 715 l 596 742 l 685 731 l 546 25 q 412 -194 513 -135 q 186 -254 311 -254 m 269 135 q 344 165 303 135 q 408 226 386 194 q 442 401 417 272 q 483 607 467 529 q 408 621 449 621 q 305 565 347 621 q 242 419 263 508 q 221 232 221 329 q 233 156 221 178 q 269 135 246 135 m 324 1032 l 449 926 l 617 1032 l 661 986 l 489 801 l 371 801 l 267 997 l 324 1032 z "},"ĝ":{"ha":701,"x_min":-40,"x_max":685,"o":"m 0 0 m 186 -254 q -40 -206 46 -254 l -8 -125 q 73 -149 40 -142 q 156 -157 106 -157 q 259 -135 214 -157 q 340 -51 304 -114 q 396 128 376 11 q 201 28 313 28 q 85 76 136 28 q 33 228 33 124 q 82 479 33 368 q 217 653 131 590 q 411 715 303 715 q 543 694 490 715 l 596 742 l 685 731 l 546 25 q 412 -194 513 -135 q 186 -254 311 -254 m 269 135 q 344 165 303 135 q 408 226 386 194 q 442 401 417 272 q 483 607 467 529 q 408 621 449 621 q 305 565 347 621 q 242 419 263 508 q 221 232 221 329 q 233 156 221 178 q 269 135 246 135 m 583 799 l 463 907 l 290 799 l 250 842 l 422 1029 l 540 1029 l 638 831 l 583 799 z "},"ģ":{"ha":701,"x_min":-40,"x_max":685,"o":"m 368 779 l 340 813 l 488 1074 l 547 1064 l 497 807 l 368 779 m 186 -254 q -40 -206 46 -254 l -8 -125 q 73 -149 40 -142 q 156 -157 106 -157 q 259 -135 214 -157 q 340 -51 304 -114 q 396 128 376 11 q 201 28 313 28 q 85 76 136 28 q 33 228 33 124 q 82 479 33 368 q 217 653 131 590 q 411 715 303 715 q 543 694 490 715 l 596 742 l 685 731 l 546 25 q 412 -194 513 -135 q 186 -254 311 -254 m 269 135 q 344 165 303 135 q 408 226 386 194 q 442 401 417 272 q 483 607 467 529 q 408 621 449 621 q 305 565 347 621 q 242 419 263 508 q 221 232 221 329 q 233 156 221 178 q 269 135 246 135 z "},"ġ":{"ha":701,"x_min":-40,"x_max":685,"o":"m 0 0 m 186 -254 q -40 -206 46 -254 l -8 -125 q 73 -149 40 -142 q 156 -157 106 -157 q 259 -135 214 -157 q 340 -51 304 -114 q 396 128 376 11 q 201 28 313 28 q 85 76 136 28 q 33 228 33 124 q 82 479 33 368 q 217 653 131 590 q 411 715 303 715 q 543 694 490 715 l 596 742 l 685 731 l 546 25 q 412 -194 513 -135 q 186 -254 311 -254 m 269 135 q 344 165 303 135 q 408 226 386 194 q 442 401 417 272 q 483 607 467 529 q 408 621 449 621 q 305 565 347 621 q 242 419 263 508 q 221 232 221 329 q 233 156 221 178 q 269 135 246 135 m 463 813 q 390 843 421 813 q 358 915 358 874 q 390 989 358 958 q 463 1019 421 1019 q 536 988 504 1019 q 568 915 568 957 q 537 843 568 874 q 463 813 506 813 z "},"h":{"ha":781,"x_min":44,"x_max":710,"o":"m 226 904 l 126 917 l 113 974 q 249 1010 175 994 q 369 1025 324 1025 q 397 1015 388 1025 q 406 989 406 1006 q 378 816 406 981 q 338 581 350 651 q 478 676 400 636 q 622 715 557 715 q 684 696 664 715 q 704 628 704 676 q 671 426 704 596 q 601 92 638 256 l 710 92 l 710 25 q 618 -3 671 8 q 524 -14 565 -14 q 449 4 476 -14 q 422 78 422 22 q 468 303 422 100 q 497 436 475 338 q 518 556 518 535 q 511 581 518 574 q 489 588 504 588 q 408 553 463 588 q 322 483 354 519 l 235 6 l 44 -14 l 226 904 z "},"ħ":{"ha":781,"x_min":44,"x_max":710,"o":"m 204 789 l 88 789 l 103 872 l 219 872 l 231 924 l 129 935 l 115 993 q 369 1025 251 1025 q 406 992 406 1025 q 388 872 406 974 l 593 872 l 578 789 l 374 789 q 338 581 340 592 q 478 676 400 636 q 622 715 557 715 q 684 696 664 715 q 704 628 704 676 q 671 426 704 596 q 601 92 638 256 l 710 92 l 710 25 q 618 -3 671 8 q 524 -14 565 -14 q 449 4 476 -14 q 422 78 422 22 q 468 303 422 100 q 497 436 475 338 q 518 556 518 535 q 511 581 518 574 q 489 588 504 588 q 408 553 463 588 q 322 483 354 519 l 235 6 l 44 -14 l 204 789 z "},"ĥ":{"ha":781,"x_min":44,"x_max":710,"o":"m 44 0 m 226 904 l 126 917 l 113 974 q 249 1010 175 994 q 369 1025 324 1025 q 397 1015 388 1025 q 406 989 406 1006 q 378 816 406 981 q 338 581 350 651 q 478 676 400 636 q 622 715 557 715 q 684 696 664 715 q 704 628 704 676 q 671 426 704 596 q 601 92 638 256 l 710 92 l 710 25 q 618 -3 671 8 q 524 -14 565 -14 q 449 4 476 -14 q 422 78 422 22 q 468 303 422 100 q 497 436 475 338 q 518 556 518 535 q 511 581 518 574 q 489 588 504 588 q 408 553 463 588 q 322 483 354 519 l 235 6 l 44 -14 l 226 904 m 499 1031 l 349 1125 l 163 1031 l 131 1072 l 308 1247 l 426 1247 l 540 1067 l 499 1031 z "},"ḥ":{"ha":781,"x_min":44,"x_max":710,"o":"m 44 0 m 226 904 l 126 917 l 113 974 q 249 1010 175 994 q 369 1025 324 1025 q 397 1015 388 1025 q 406 989 406 1006 q 378 816 406 981 q 338 581 350 651 q 478 676 400 636 q 622 715 557 715 q 684 696 664 715 q 704 628 704 676 q 671 426 704 596 q 601 92 638 256 l 710 92 l 710 25 q 618 -3 671 8 q 524 -14 565 -14 q 449 4 476 -14 q 422 78 422 22 q 468 303 422 100 q 497 436 475 338 q 518 556 518 535 q 511 581 518 574 q 489 588 504 588 q 408 553 463 588 q 322 483 354 519 l 235 6 l 44 -14 l 226 904 m 292 -56 q 365 -87 333 -56 q 397 -160 397 -118 q 366 -232 397 -201 q 292 -262 335 -262 q 219 -232 250 -262 q 188 -160 188 -201 q 219 -86 188 -117 q 292 -56 250 -56 z "},"i":{"ha":429,"x_min":67,"x_max":424,"o":"m 318 1019 q 392 988 360 1019 q 424 915 424 957 q 392 843 424 874 q 318 813 361 813 q 245 843 276 813 q 214 915 214 874 q 245 989 214 958 q 318 1019 276 1019 m 364 685 q 322 452 364 668 q 247 92 279 236 l 351 92 l 351 25 q 164 -14 258 -14 q 90 3 113 -14 q 67 67 67 19 q 132 390 67 99 l 176 596 l 85 607 l 71 665 q 226 701 149 686 q 335 715 304 715 q 356 707 349 715 q 364 685 364 699 z "},"ı":{"ha":429,"x_min":67,"x_max":364,"o":"m 364 685 q 322 452 364 668 q 247 92 279 236 l 351 92 l 351 25 q 164 -14 258 -14 q 90 3 113 -14 q 67 67 67 19 q 132 390 67 99 l 176 596 l 85 607 l 71 665 q 226 701 149 686 q 335 715 304 715 q 356 707 349 715 q 364 685 364 699 z "},"í":{"ha":429,"x_min":67,"x_max":483,"o":"m 167 800 l 129 849 l 346 1031 l 483 983 l 483 951 l 167 800 m 164 -14 q 90 3 113 -14 q 67 67 67 19 q 132 390 67 99 l 176 596 l 85 607 l 71 665 q 226 701 149 686 q 335 715 304 715 q 356 707 349 715 q 364 685 364 699 q 322 452 364 668 q 247 92 279 236 l 351 92 l 351 25 q 164 -14 258 -14 z "},"ĭ":{"ha":429,"x_min":67,"x_max":501,"o":"m 67 0 m 364 685 q 322 452 364 668 q 247 92 279 236 l 351 92 l 351 25 q 164 -14 258 -14 q 90 3 113 -14 q 67 67 67 19 q 132 390 67 99 l 176 596 l 85 607 l 71 665 q 226 701 149 686 q 335 715 304 715 q 356 707 349 715 q 364 685 364 699 m 296 821 q 186 855 219 821 q 153 944 153 889 q 165 1011 153 976 l 243 1011 q 240 986 240 997 q 254 942 240 957 q 313 926 268 926 q 394 948 372 926 q 426 1011 415 969 l 501 1011 q 438 872 483 924 q 296 821 393 821 z "},"ǐ":{"ha":429,"x_min":67,"x_max":525,"o":"m 67 0 m 364 685 q 322 452 364 668 q 247 92 279 236 l 351 92 l 351 25 q 164 -14 258 -14 q 90 3 113 -14 q 67 67 67 19 q 132 390 67 99 l 176 596 l 85 607 l 71 665 q 226 701 149 686 q 335 715 304 715 q 356 707 349 715 q 364 685 364 699 m 188 1032 l 313 926 l 481 1032 l 525 986 l 353 801 l 235 801 l 131 997 l 188 1032 z "},"î":{"ha":429,"x_min":64,"x_max":451,"o":"m 104 799 l 64 842 l 236 1029 l 354 1029 l 451 831 l 397 799 l 276 907 l 104 799 m 164 -14 q 90 3 113 -14 q 67 67 67 19 q 132 390 67 99 l 176 596 l 85 607 l 71 665 q 226 701 149 686 q 335 715 304 715 q 356 707 349 715 q 364 685 364 699 q 322 452 364 668 q 247 92 279 236 l 351 92 l 351 25 q 164 -14 258 -14 z "},"ȉ":{"ha":429,"x_min":32,"x_max":474,"o":"m 32 0 m 364 685 q 322 452 364 668 q 247 92 279 236 l 351 92 l 351 25 q 164 -14 258 -14 q 90 3 113 -14 q 67 67 67 19 q 132 390 67 99 l 176 596 l 85 607 l 71 665 q 226 701 149 686 q 335 715 304 715 q 356 707 349 715 q 364 685 364 699 m 200 783 l 32 1007 l 38 1038 l 165 1038 l 250 815 l 200 783 m 424 783 l 256 1007 l 261 1038 l 389 1038 l 474 815 l 424 783 z "},"ï":{"ha":429,"x_min":3,"x_max":507,"o":"m 214 913 q 184 841 214 869 q 111 813 154 813 q 35 841 67 813 q 3 913 3 869 q 35 984 3 954 q 111 1014 68 1014 q 183 984 153 1014 q 214 913 214 954 m 507 913 q 476 841 507 869 q 406 813 446 813 q 330 841 361 813 q 299 913 299 869 q 330 985 299 956 q 406 1014 361 1014 q 476 984 446 1014 q 507 913 507 954 m 364 685 q 322 452 364 668 q 247 92 279 236 l 351 92 l 351 25 q 164 -14 258 -14 q 90 3 113 -14 q 67 67 67 19 q 132 390 67 99 l 176 596 l 85 607 l 71 665 q 226 701 149 686 q 335 715 304 715 q 356 707 349 715 q 364 685 364 699 z "},"ị":{"ha":429,"x_min":13,"x_max":424,"o":"m 13 0 m 318 1019 q 392 988 360 1019 q 424 915 424 957 q 392 843 424 874 q 318 813 361 813 q 245 843 276 813 q 214 915 214 874 q 245 989 214 958 q 318 1019 276 1019 m 364 685 q 322 452 364 668 q 247 92 279 236 l 351 92 l 351 25 q 164 -14 258 -14 q 90 3 113 -14 q 67 67 67 19 q 132 390 67 99 l 176 596 l 85 607 l 71 665 q 226 701 149 686 q 335 715 304 715 q 356 707 349 715 q 364 685 364 699 m 117 -56 q 190 -87 158 -56 q 222 -160 222 -118 q 191 -232 222 -201 q 117 -262 160 -262 q 44 -232 75 -262 q 13 -160 13 -201 q 44 -86 13 -117 q 117 -56 75 -56 z "},"ì":{"ha":429,"x_min":67,"x_max":431,"o":"m 399 800 l 76 951 l 82 983 l 217 1031 l 431 849 l 399 800 m 164 -14 q 90 3 113 -14 q 67 67 67 19 q 132 390 67 99 l 176 596 l 85 607 l 71 665 q 226 701 149 686 q 335 715 304 715 q 356 707 349 715 q 364 685 364 699 q 322 452 364 668 q 247 92 279 236 l 351 92 l 351 25 q 164 -14 258 -14 z "},"ỉ":{"ha":429,"x_min":67,"x_max":471,"o":"m 67 0 m 364 685 q 322 452 364 668 q 247 92 279 236 l 351 92 l 351 25 q 164 -14 258 -14 q 90 3 113 -14 q 67 67 67 19 q 132 390 67 99 l 176 596 l 85 607 l 71 665 q 226 701 149 686 q 335 715 304 715 q 356 707 349 715 q 364 685 364 699 m 265 782 q 277 806 265 797 q 315 825 289 814 q 353 843 340 835 q 365 865 365 851 q 318 890 365 890 q 279 888 310 890 l 263 850 l 207 850 l 213 924 q 343 939 285 939 q 438 921 404 939 q 471 871 471 903 q 453 831 471 847 q 410 806 436 814 q 381 797 403 804 q 347 781 360 790 q 335 757 335 771 l 267 757 l 265 782 z "},"ȋ":{"ha":429,"x_min":67,"x_max":476,"o":"m 67 0 m 364 685 q 322 452 364 668 q 247 92 279 236 l 351 92 l 351 25 q 164 -14 258 -14 q 90 3 113 -14 q 67 67 67 19 q 132 390 67 99 l 176 596 l 85 607 l 71 665 q 226 701 149 686 q 335 715 304 715 q 356 707 349 715 q 364 685 364 699 m 333 1018 q 443 984 410 1018 q 476 894 476 950 q 464 828 476 863 l 386 828 q 389 853 389 842 q 375 897 389 882 q 317 913 361 913 q 235 891 257 913 q 203 828 214 869 l 128 828 q 191 967 146 915 q 333 1018 236 1018 z "},"ĳ":{"ha":835,"x_min":67,"x_max":840,"o":"m 67 0 m 318 1019 q 392 988 360 1019 q 424 915 424 957 q 392 843 424 874 q 318 813 361 813 q 245 843 276 813 q 214 915 214 874 q 245 989 214 958 q 318 1019 276 1019 m 364 685 q 322 452 364 668 q 247 92 279 236 l 351 92 l 351 25 q 164 -14 258 -14 q 90 3 113 -14 q 67 67 67 19 q 132 390 67 99 l 176 596 l 85 607 l 71 665 q 226 701 149 686 q 335 715 304 715 q 356 707 349 715 q 364 685 364 699 m 735 813 q 662 843 693 813 q 631 915 631 874 q 662 989 631 958 q 735 1019 693 1019 q 808 988 776 1019 q 840 915 840 957 q 809 843 840 874 q 735 813 778 813 m 404 -256 q 319 -245 360 -256 q 253 -224 278 -235 q 222 -208 229 -212 l 246 -136 q 347 -157 297 -157 q 435 -125 399 -157 q 483 -22 471 -93 l 604 599 l 513 608 l 499 665 q 646 700 564 685 q 765 715 728 715 q 797 683 797 715 q 757 468 797 676 q 663 -35 690 119 q 579 -198 643 -140 q 404 -256 515 -256 z "},"ī":{"ha":429,"x_min":67,"x_max":453,"o":"m 118 968 l 453 968 l 438 858 l 103 858 l 118 968 m 364 685 q 322 452 364 668 q 247 92 279 236 l 351 92 l 351 25 q 164 -14 258 -14 q 90 3 113 -14 q 67 67 67 19 q 132 390 67 99 l 176 596 l 85 607 l 71 665 q 226 701 149 686 q 335 715 304 715 q 356 707 349 715 q 364 685 364 699 z "},"į":{"ha":429,"x_min":67,"x_max":424,"o":"m 318 1019 q 392 988 360 1019 q 424 915 424 957 q 392 843 424 874 q 318 813 361 813 q 245 843 276 813 q 214 915 214 874 q 245 989 214 958 q 318 1019 276 1019 m 364 685 q 322 452 364 668 q 247 92 279 236 l 351 92 l 351 25 q 223 -85 254 -26 q 192 -185 192 -144 q 206 -226 192 -211 q 244 -242 219 -242 q 333 -211 285 -242 l 361 -242 q 339 -267 361 -244 q 281 -308 317 -289 q 197 -328 244 -328 q 99 -297 128 -328 q 69 -221 69 -267 q 200 -12 69 -117 q 164 -14 188 -14 q 90 3 113 -14 q 67 67 67 19 q 132 390 67 99 l 176 596 l 85 607 l 71 665 q 226 701 149 686 q 335 715 304 715 q 356 707 349 715 q 364 685 364 699 z "},"ĩ":{"ha":429,"x_min":31,"x_max":503,"o":"m 383 824 q 254 851 343 824 q 151 875 178 875 q 124 865 136 875 q 105 845 113 856 q 96 832 97 835 l 31 858 q 151 1003 92 1003 q 279 975 190 1003 q 383 951 356 951 q 412 961 399 951 q 433 981 425 971 q 442 994 440 992 l 503 968 q 383 824 443 824 m 164 -14 q 90 3 113 -14 q 67 67 67 19 q 132 390 67 99 l 176 596 l 85 607 l 71 665 q 226 701 149 686 q 335 715 304 715 q 356 707 349 715 q 364 685 364 699 q 322 452 364 668 q 247 92 279 236 l 351 92 l 351 25 q 164 -14 258 -14 z "},"j":{"ha":406,"x_min":-207,"x_max":411,"o":"m 306 813 q 233 843 264 813 q 201 915 201 874 q 233 989 201 958 q 306 1019 264 1019 q 379 988 347 1019 q 411 915 411 957 q 380 843 411 874 q 306 813 349 813 m -25 -256 q -110 -245 -69 -256 q -176 -224 -151 -235 q -207 -208 -200 -212 l -183 -136 q -82 -157 -132 -157 q 6 -125 -31 -157 q 54 -22 42 -93 l 175 599 l 83 608 l 69 665 q 217 700 135 685 q 336 715 299 715 q 368 683 368 715 q 328 468 368 676 q 233 -35 261 119 q 150 -198 214 -140 q -25 -256 86 -256 z "},"ȷ":{"ha":406,"x_min":-207,"x_max":368,"o":"m 368 683 q 328 468 368 676 q 233 -35 261 119 q 150 -198 214 -140 q -25 -256 86 -256 q -110 -245 -69 -256 q -176 -224 -151 -235 q -207 -208 -200 -212 l -183 -136 q -82 -157 -132 -157 q 6 -125 -31 -157 q 54 -22 42 -93 l 175 599 l 83 608 l 69 665 q 217 700 135 685 q 336 715 299 715 q 368 683 368 715 z "},"ĵ":{"ha":406,"x_min":-207,"x_max":489,"o":"m 0 0 m 368 683 q 328 468 368 676 q 233 -35 261 119 q 150 -198 214 -140 q -25 -256 86 -256 q -110 -245 -69 -256 q -176 -224 -151 -235 q -207 -208 -200 -212 l -183 -136 q -82 -157 -132 -157 q 6 -125 -31 -157 q 54 -22 42 -93 l 175 599 l 83 608 l 69 665 q 217 700 135 685 q 336 715 299 715 q 368 683 368 715 m 435 799 l 314 907 l 142 799 l 101 842 l 274 1029 l 392 1029 l 489 831 l 435 799 z "},"k":{"ha":733,"x_min":44,"x_max":726,"o":"m 44 -14 l 226 904 l 126 917 l 113 974 q 254 1011 183 997 q 369 1025 325 1025 q 397 1015 388 1025 q 406 990 406 1006 q 356 682 406 964 l 339 583 q 463 673 382 631 q 622 715 544 715 q 726 619 726 715 q 668 471 726 542 q 488 358 610 400 l 571 92 l 679 92 l 679 25 q 464 -14 571 -14 q 397 68 428 -14 q 347 247 367 150 q 326 354 326 343 l 333 379 q 501 453 451 413 q 551 556 551 494 q 511 596 551 596 q 415 562 472 596 q 322 483 357 528 l 235 6 l 44 -14 z "},"ķ":{"ha":726,"x_min":38,"x_max":719,"o":"m 219 904 l 119 917 l 106 974 q 247 1011 176 997 q 363 1025 318 1025 q 390 1015 381 1025 q 399 990 399 1006 q 349 682 399 964 l 332 583 q 456 673 375 631 q 615 715 538 715 q 719 619 719 715 q 661 471 719 542 q 481 358 603 400 l 564 92 l 672 92 l 672 25 q 457 -14 564 -14 q 390 68 421 -14 q 340 247 360 150 q 319 354 319 343 l 326 379 q 494 453 444 413 q 544 556 544 494 q 504 596 544 596 q 408 562 465 596 q 315 483 350 528 l 228 6 l 38 -14 l 219 904 m 242 -328 l 186 -312 l 236 -61 l 364 -33 l 394 -67 l 242 -328 z "},"ĸ":{"ha":743,"x_min":54,"x_max":736,"o":"m 54 -14 l 174 590 l 75 603 l 61 660 q 203 695 121 679 q 325 711 286 711 q 352 701 343 711 q 361 676 361 692 q 354 622 361 660 l 349 583 q 473 673 392 631 q 632 715 554 715 q 736 619 736 715 q 678 471 736 542 q 497 358 619 400 l 581 92 l 689 92 l 689 25 q 474 -14 581 -14 q 407 68 438 -14 q 356 247 376 150 q 336 354 336 343 l 343 379 q 511 453 461 413 q 561 556 561 494 q 521 596 561 596 q 424 562 482 596 q 332 483 367 528 l 244 6 l 54 -14 z "},"l":{"ha":432,"x_min":61,"x_max":403,"o":"m 153 -14 q 61 68 61 -14 q 130 434 61 90 q 224 904 199 778 l 124 917 l 110 974 q 247 1010 171 994 q 368 1025 322 1025 q 394 1015 385 1025 q 403 990 403 1006 q 397 943 403 976 l 249 92 l 356 92 l 356 25 q 244 -4 300 6 q 153 -14 188 -14 z "},"ĺ":{"ha":432,"x_min":61,"x_max":481,"o":"m 146 1006 l 114 1058 l 349 1218 l 481 1153 l 476 1122 l 146 1006 m 153 -14 q 61 68 61 -14 q 130 434 61 90 q 224 904 199 778 l 124 917 l 110 974 q 247 1010 171 994 q 368 1025 322 1025 q 394 1015 385 1025 q 403 990 403 1006 q 397 943 403 976 l 249 92 l 356 92 l 356 25 q 244 -4 300 6 q 153 -14 188 -14 z "},"ľ":{"ha":482,"x_min":61,"x_max":574,"o":"m 453 732 l 432 1026 l 476 1026 l 574 999 l 510 732 l 453 732 m 153 -14 q 61 68 61 -14 q 130 434 61 90 q 224 904 199 778 l 124 917 l 110 974 q 247 1010 171 994 q 368 1025 322 1025 q 394 1015 385 1025 q 403 990 403 1006 q 397 943 403 976 l 249 92 l 356 92 l 356 25 q 244 -4 300 6 q 153 -14 188 -14 z "},"ļ":{"ha":432,"x_min":43,"x_max":403,"o":"m 153 -14 q 61 68 61 -14 q 130 434 61 90 q 224 904 199 778 l 124 917 l 110 974 q 247 1010 171 994 q 368 1025 322 1025 q 394 1015 385 1025 q 403 990 403 1006 q 397 943 403 976 l 249 92 l 356 92 l 356 25 q 244 -4 300 6 q 153 -14 188 -14 m 99 -328 l 43 -312 l 93 -61 l 221 -33 l 251 -67 l 99 -328 z "},"ŀ":{"ha":432,"x_min":61,"x_max":572,"o":"m 61 0 m 153 -14 q 61 68 61 -14 q 130 434 61 90 q 224 904 199 778 l 124 917 l 110 974 q 247 1010 171 994 q 368 1025 322 1025 q 394 1015 385 1025 q 403 990 403 1006 q 397 943 403 976 l 249 92 l 356 92 l 356 25 q 244 -4 300 6 q 153 -14 188 -14 m 572 571 q 540 494 572 525 q 460 464 507 464 q 381 495 415 464 q 347 571 347 526 q 381 650 347 617 q 460 683 415 683 q 540 651 507 683 q 572 571 572 618 z "},"ǉ":{"ha":838,"x_min":61,"x_max":843,"o":"m 61 0 m 153 -14 q 61 68 61 -14 q 130 434 61 90 q 224 904 199 778 l 124 917 l 110 974 q 247 1010 171 994 q 368 1025 322 1025 q 394 1015 385 1025 q 403 990 403 1006 q 397 943 403 976 l 249 92 l 356 92 l 356 25 q 244 -4 300 6 q 153 -14 188 -14 m 738 813 q 665 843 696 813 q 633 915 633 874 q 665 989 633 958 q 738 1019 696 1019 q 811 988 779 1019 q 843 915 843 957 q 812 843 843 874 q 738 813 781 813 m 407 -256 q 322 -245 363 -256 q 256 -224 281 -235 q 225 -208 232 -212 l 249 -136 q 350 -157 300 -157 q 438 -125 401 -157 q 486 -22 474 -93 l 607 599 l 515 608 l 501 665 q 649 700 567 685 q 768 715 731 715 q 800 683 800 715 q 760 468 800 676 q 665 -35 693 119 q 582 -198 646 -140 q 407 -256 518 -256 z "},"ł":{"ha":442,"x_min":-10,"x_max":493,"o":"m 256 92 l 363 92 l 363 25 q 251 -4 307 6 q 160 -14 194 -14 q 68 68 68 -14 q 132 410 68 93 l 25 363 l -10 444 l 153 518 q 202 767 181 661 q 231 904 224 872 l 131 917 l 117 974 q 253 1010 178 994 q 375 1025 329 1025 q 401 1015 392 1025 q 410 990 410 1006 q 404 943 410 976 l 344 604 l 457 654 l 493 572 l 326 497 l 256 92 z "},"m":{"ha":1150,"x_min":54,"x_max":1079,"o":"m 174 590 l 75 603 l 61 660 q 201 696 122 681 q 324 711 281 711 q 355 697 349 711 q 361 674 361 683 q 347 581 361 654 q 485 677 408 639 q 625 715 563 715 q 690 692 665 715 q 715 631 715 668 q 711 581 715 608 q 849 676 771 638 q 982 715 926 715 q 1053 694 1033 715 q 1074 625 1074 674 q 1040 426 1074 593 q 971 92 1007 260 l 1079 92 l 1079 25 q 990 -3 1040 8 q 901 -14 940 -14 q 842 -8 864 -14 q 806 19 819 -3 q 792 83 792 40 q 835 289 792 103 q 886 546 886 511 q 881 578 886 568 q 860 588 876 588 q 781 555 831 588 q 696 483 731 522 l 608 6 l 418 -14 l 461 207 q 503 418 483 318 q 522 538 522 518 q 517 576 522 564 q 493 588 513 588 q 419 556 465 588 q 332 483 372 524 l 244 6 l 54 -14 l 174 590 z "},"n":{"ha":790,"x_min":54,"x_max":719,"o":"m 347 581 q 499 681 422 647 q 628 715 575 715 q 696 693 678 715 q 714 622 714 671 q 611 92 714 561 l 719 92 l 719 25 q 631 -3 682 7 q 535 -14 579 -14 q 457 5 482 -14 q 432 78 432 24 q 478 303 432 103 q 528 553 528 519 q 523 578 528 568 q 501 588 518 588 q 421 556 474 588 q 332 483 368 524 l 244 6 l 54 -14 l 174 590 l 75 603 l 61 660 q 202 696 126 681 q 322 711 278 711 q 351 701 340 711 q 361 675 361 692 q 347 581 361 654 z "},"ń":{"ha":790,"x_min":54,"x_max":719,"o":"m 361 800 l 324 849 l 540 1031 l 678 983 l 678 951 l 361 800 m 347 581 q 499 681 422 647 q 628 715 575 715 q 696 693 678 715 q 714 622 714 671 q 611 92 714 561 l 719 92 l 719 25 q 631 -3 682 7 q 535 -14 579 -14 q 457 5 482 -14 q 432 78 432 24 q 478 303 432 103 q 528 553 528 519 q 523 578 528 568 q 501 588 518 588 q 421 556 474 588 q 332 483 368 524 l 244 6 l 54 -14 l 174 590 l 75 603 l 61 660 q 202 696 126 681 q 322 711 278 711 q 351 701 340 711 q 361 675 361 692 q 347 581 361 654 z "},"ŉ":{"ha":833,"x_min":54,"x_max":719,"o":"m 54 0 m 257 732 l 236 1026 l 281 1026 l 378 999 l 314 732 l 257 732 m 347 581 q 499 681 422 647 q 628 715 575 715 q 696 693 678 715 q 714 622 714 671 q 611 92 714 561 l 719 92 l 719 25 q 631 -3 682 7 q 535 -14 579 -14 q 457 5 482 -14 q 432 78 432 24 q 478 303 432 103 q 528 553 528 519 q 523 578 528 568 q 501 588 518 588 q 421 556 474 588 q 332 483 368 524 l 244 6 l 54 -14 l 174 590 l 75 603 l 61 660 q 202 696 126 681 q 322 711 278 711 q 351 701 340 711 q 361 675 361 692 q 347 581 361 654 z "},"ň":{"ha":790,"x_min":54,"x_max":719,"o":"m 351 1032 l 476 926 l 644 1032 l 689 986 l 517 801 l 399 801 l 294 997 l 351 1032 m 347 581 q 499 681 422 647 q 628 715 575 715 q 696 693 678 715 q 714 622 714 671 q 611 92 714 561 l 719 92 l 719 25 q 631 -3 682 7 q 535 -14 579 -14 q 457 5 482 -14 q 432 78 432 24 q 478 303 432 103 q 528 553 528 519 q 523 578 528 568 q 501 588 518 588 q 421 556 474 588 q 332 483 368 524 l 244 6 l 54 -14 l 174 590 l 75 603 l 61 660 q 202 696 126 681 q 322 711 278 711 q 351 701 340 711 q 361 675 361 692 q 347 581 361 654 z "},"ņ":{"ha":790,"x_min":54,"x_max":719,"o":"m 174 590 l 75 603 l 61 660 q 202 696 126 681 q 322 711 278 711 q 351 701 340 711 q 361 675 361 692 q 347 581 361 654 q 499 681 422 647 q 628 715 575 715 q 696 693 678 715 q 714 622 714 671 q 611 92 714 561 l 719 92 l 719 25 q 631 -3 682 7 q 535 -14 579 -14 q 457 5 482 -14 q 432 78 432 24 q 478 303 432 103 q 528 553 528 519 q 523 578 528 568 q 501 588 518 588 q 421 556 474 588 q 332 483 368 524 l 244 6 l 54 -14 l 174 590 m 288 -328 l 232 -312 l 282 -61 l 410 -33 l 440 -67 l 288 -328 z "},"ṅ":{"ha":790,"x_min":54,"x_max":719,"o":"m 54 0 m 347 581 q 499 681 422 647 q 628 715 575 715 q 696 693 678 715 q 714 622 714 671 q 611 92 714 561 l 719 92 l 719 25 q 631 -3 682 7 q 535 -14 579 -14 q 457 5 482 -14 q 432 78 432 24 q 478 303 432 103 q 528 553 528 519 q 523 578 528 568 q 501 588 518 588 q 421 556 474 588 q 332 483 368 524 l 244 6 l 54 -14 l 174 590 l 75 603 l 61 660 q 202 696 126 681 q 322 711 278 711 q 351 701 340 711 q 361 675 361 692 q 347 581 361 654 m 507 813 q 434 843 465 813 q 403 915 403 874 q 434 989 403 958 q 507 1019 465 1019 q 581 988 549 1019 q 613 915 613 957 q 581 843 613 874 q 507 813 550 813 z "},"ŋ":{"ha":790,"x_min":54,"x_max":714,"o":"m 628 715 q 696 693 678 715 q 714 622 714 671 q 694 460 714 578 q 606 -35 675 342 q 522 -198 586 -140 q 351 -256 458 -256 q 165 -208 251 -256 l 189 -136 q 288 -157 240 -157 q 426 -22 400 -157 q 510 418 493 321 q 528 553 528 515 q 523 578 528 568 q 501 588 518 588 q 421 556 474 588 q 332 483 368 524 l 244 6 l 54 -14 l 174 590 l 75 603 l 61 660 q 202 696 126 681 q 322 711 278 711 q 351 701 340 711 q 361 675 361 692 q 347 581 361 654 q 499 681 422 647 q 628 715 575 715 z "},"ɲ":{"ha":790,"x_min":-207,"x_max":719,"o":"m 719 92 l 719 25 q 631 -3 682 7 q 535 -14 579 -14 q 457 5 482 -14 q 432 78 432 24 q 478 303 432 103 q 528 553 528 519 q 523 578 528 568 q 501 588 518 588 q 420 555 474 588 q 331 482 367 522 q 242 8 289 271 l 233 -35 q 150 -198 214 -140 q -25 -256 86 -256 q -110 -245 -69 -256 q -176 -224 -151 -235 q -207 -208 -200 -212 l -183 -136 q -82 -157 -132 -157 q 6 -125 -31 -157 q 54 -22 42 -93 l 174 590 l 75 603 l 61 660 q 202 696 126 681 q 322 711 278 711 q 351 701 340 711 q 361 675 361 692 q 347 581 361 654 q 499 681 422 647 q 628 715 575 715 q 696 693 678 715 q 714 622 714 671 q 611 92 714 561 l 719 92 z "},"ǌ":{"ha":1196,"x_min":54,"x_max":1201,"o":"m 54 0 m 347 581 q 499 681 422 647 q 628 715 575 715 q 696 693 678 715 q 714 622 714 671 q 611 92 714 561 l 719 92 l 719 25 q 631 -3 682 7 q 535 -14 579 -14 q 457 5 482 -14 q 432 78 432 24 q 478 303 432 103 q 528 553 528 519 q 523 578 528 568 q 501 588 518 588 q 421 556 474 588 q 332 483 368 524 l 244 6 l 54 -14 l 174 590 l 75 603 l 61 660 q 202 696 126 681 q 322 711 278 711 q 351 701 340 711 q 361 675 361 692 q 347 581 361 654 m 1096 813 q 1023 843 1054 813 q 992 915 992 874 q 1023 989 992 958 q 1096 1019 1054 1019 q 1169 988 1138 1019 q 1201 915 1201 957 q 1170 843 1201 874 q 1096 813 1139 813 m 765 -256 q 680 -245 721 -256 q 615 -224 639 -235 q 583 -208 590 -212 l 607 -136 q 708 -157 658 -157 q 796 -125 760 -157 q 844 -22 832 -93 l 965 599 l 874 608 l 860 665 q 1007 700 925 685 q 1126 715 1089 715 q 1158 683 1158 715 q 1118 468 1158 676 q 1024 -35 1051 119 q 940 -198 1004 -140 q 765 -256 876 -256 z "},"ñ":{"ha":790,"x_min":54,"x_max":719,"o":"m 719 968 q 600 824 660 824 q 471 851 560 824 q 368 875 394 875 q 341 865 353 875 q 322 845 329 856 q 313 832 314 835 l 247 858 q 368 1003 308 1003 q 496 975 407 1003 q 600 951 572 951 q 628 961 615 951 q 649 981 642 971 q 658 994 657 992 l 719 968 m 347 581 q 499 681 422 647 q 628 715 575 715 q 696 693 678 715 q 714 622 714 671 q 611 92 714 561 l 719 92 l 719 25 q 631 -3 682 7 q 535 -14 579 -14 q 457 5 482 -14 q 432 78 432 24 q 478 303 432 103 q 528 553 528 519 q 523 578 528 568 q 501 588 518 588 q 421 556 474 588 q 332 483 368 524 l 244 6 l 54 -14 l 174 590 l 75 603 l 61 660 q 202 696 126 681 q 322 711 278 711 q 351 701 340 711 q 361 675 361 692 q 347 581 361 654 z "},"o":{"ha":700,"x_min":40,"x_max":660,"o":"m 447 715 q 608 656 556 715 q 660 501 660 597 q 609 225 660 342 q 465 47 558 108 q 249 -14 372 -14 q 92 43 144 -14 q 40 197 40 100 q 91 476 40 360 q 233 654 142 593 q 447 715 325 715 m 290 78 q 431 203 389 78 q 472 501 472 329 q 459 591 472 561 q 410 621 446 621 q 267 490 307 621 q 228 197 228 358 q 240 108 228 138 q 290 78 253 78 z "},"ó":{"ha":700,"x_min":40,"x_max":660,"o":"m 40 0 m 447 715 q 608 656 556 715 q 660 501 660 597 q 609 225 660 342 q 465 47 558 108 q 249 -14 372 -14 q 92 43 144 -14 q 40 197 40 100 q 91 476 40 360 q 233 654 142 593 q 447 715 325 715 m 290 78 q 431 203 389 78 q 472 501 472 329 q 459 591 472 561 q 410 621 446 621 q 267 490 307 621 q 228 197 228 358 q 240 108 228 138 q 290 78 253 78 m 329 800 l 292 849 l 508 1031 l 646 983 l 646 951 l 329 800 z "},"ŏ":{"ha":700,"x_min":40,"x_max":660,"o":"m 40 0 m 447 715 q 608 656 556 715 q 660 501 660 597 q 609 225 660 342 q 465 47 558 108 q 249 -14 372 -14 q 92 43 144 -14 q 40 197 40 100 q 91 476 40 360 q 233 654 142 593 q 447 715 325 715 m 290 78 q 431 203 389 78 q 472 501 472 329 q 459 591 472 561 q 410 621 446 621 q 267 490 307 621 q 228 197 228 358 q 240 108 228 138 q 290 78 253 78 m 431 821 q 321 855 354 821 q 288 944 288 889 q 300 1011 288 976 l 378 1011 q 375 986 375 997 q 389 942 375 957 q 447 926 403 926 q 528 948 507 926 q 561 1011 550 969 l 636 1011 q 573 872 618 924 q 431 821 528 821 z "},"ǒ":{"ha":700,"x_min":40,"x_max":660,"o":"m 40 0 m 447 715 q 608 656 556 715 q 660 501 660 597 q 609 225 660 342 q 465 47 558 108 q 249 -14 372 -14 q 92 43 144 -14 q 40 197 40 100 q 91 476 40 360 q 233 654 142 593 q 447 715 325 715 m 290 78 q 431 203 389 78 q 472 501 472 329 q 459 591 472 561 q 410 621 446 621 q 267 490 307 621 q 228 197 228 358 q 240 108 228 138 q 290 78 253 78 m 322 1032 l 447 926 l 615 1032 l 660 986 l 488 801 l 369 801 l 265 997 l 322 1032 z "},"ô":{"ha":700,"x_min":40,"x_max":660,"o":"m 571 799 l 450 907 l 278 799 l 238 842 l 410 1029 l 528 1029 l 625 831 l 571 799 m 447 715 q 608 656 556 715 q 660 501 660 597 q 609 225 660 342 q 465 47 558 108 q 249 -14 372 -14 q 92 43 144 -14 q 40 197 40 100 q 91 476 40 360 q 233 654 142 593 q 447 715 325 715 m 290 78 q 431 203 389 78 q 472 501 472 329 q 459 591 472 561 q 410 621 446 621 q 267 490 307 621 q 228 197 228 358 q 240 108 228 138 q 290 78 253 78 z "},"ố":{"ha":700,"x_min":40,"x_max":924,"o":"m 676 874 l 625 907 l 768 1153 l 914 1153 l 924 1122 l 676 874 m 582 799 l 461 907 l 289 799 l 249 842 l 421 1029 l 539 1029 l 636 831 l 582 799 m 447 715 q 608 656 556 715 q 660 501 660 597 q 609 225 660 342 q 465 47 558 108 q 249 -14 372 -14 q 92 43 144 -14 q 40 197 40 100 q 91 476 40 360 q 233 654 142 593 q 447 715 325 715 m 290 78 q 431 203 389 78 q 472 501 472 329 q 459 591 472 561 q 410 621 446 621 q 267 490 307 621 q 228 197 228 358 q 240 108 228 138 q 290 78 253 78 z "},"ộ":{"ha":700,"x_min":40,"x_max":660,"o":"m 40 0 m 447 715 q 608 656 556 715 q 660 501 660 597 q 609 225 660 342 q 465 47 558 108 q 249 -14 372 -14 q 92 43 144 -14 q 40 197 40 100 q 91 476 40 360 q 233 654 142 593 q 447 715 325 715 m 290 78 q 431 203 389 78 q 472 501 472 329 q 459 591 472 561 q 410 621 446 621 q 267 490 307 621 q 228 197 228 358 q 240 108 228 138 q 290 78 253 78 m 251 -56 q 325 -87 293 -56 q 357 -160 357 -118 q 326 -232 357 -201 q 251 -262 294 -262 q 178 -232 210 -262 q 147 -160 147 -201 q 178 -86 147 -117 q 251 -56 210 -56 m 582 799 l 461 907 l 289 799 l 249 842 l 421 1029 l 539 1029 l 636 831 l 582 799 z "},"ồ":{"ha":700,"x_min":40,"x_max":711,"o":"m 656 874 l 506 1129 l 529 1153 l 639 1153 l 711 897 l 656 874 m 568 799 l 447 907 l 275 799 l 235 842 l 407 1029 l 525 1029 l 622 831 l 568 799 m 447 715 q 608 656 556 715 q 660 501 660 597 q 609 225 660 342 q 465 47 558 108 q 249 -14 372 -14 q 92 43 144 -14 q 40 197 40 100 q 91 476 40 360 q 233 654 142 593 q 447 715 325 715 m 290 78 q 431 203 389 78 q 472 501 472 329 q 459 591 472 561 q 410 621 446 621 q 267 490 307 621 q 228 197 228 358 q 240 108 228 138 q 290 78 253 78 z "},"ổ":{"ha":700,"x_min":40,"x_max":828,"o":"m 40 0 m 447 715 q 608 656 556 715 q 660 501 660 597 q 609 225 660 342 q 465 47 558 108 q 249 -14 372 -14 q 92 43 144 -14 q 40 197 40 100 q 91 476 40 360 q 233 654 142 593 q 447 715 325 715 m 290 78 q 431 203 389 78 q 472 501 472 329 q 459 591 472 561 q 410 621 446 621 q 267 490 307 621 q 228 197 228 358 q 240 108 228 138 q 290 78 253 78 m 582 799 l 461 907 l 289 799 l 249 842 l 421 1029 l 539 1029 l 636 831 l 582 799 m 622 996 q 634 1019 622 1011 q 672 1039 646 1028 q 710 1057 697 1049 q 722 1079 722 1065 q 675 1104 722 1104 q 636 1101 667 1104 l 619 1064 l 564 1064 l 569 1138 q 700 1153 642 1153 q 794 1135 761 1153 q 828 1085 828 1117 q 810 1044 828 1061 q 767 1019 793 1028 q 738 1011 760 1018 q 704 994 717 1004 q 692 971 692 985 l 624 971 l 622 996 z "},"ỗ":{"ha":700,"x_min":40,"x_max":725,"o":"m 40 0 m 447 715 q 608 656 556 715 q 660 501 660 597 q 609 225 660 342 q 465 47 558 108 q 249 -14 372 -14 q 92 43 144 -14 q 40 197 40 100 q 91 476 40 360 q 233 654 142 593 q 447 715 325 715 m 290 78 q 431 203 389 78 q 472 501 472 329 q 459 591 472 561 q 410 621 446 621 q 267 490 307 621 q 228 197 228 358 q 240 108 228 138 q 290 78 253 78 m 592 718 l 442 813 l 256 718 l 224 760 l 401 935 l 519 935 l 633 754 l 592 718 m 725 1081 q 606 936 665 936 q 469 964 567 936 q 361 988 388 988 q 334 978 346 988 q 315 958 322 968 q 306 944 307 947 l 240 971 q 295 1074 263 1033 q 361 1115 328 1115 q 496 1088 401 1115 q 606 1064 578 1064 q 634 1074 621 1064 q 655 1094 647 1083 q 664 1107 663 1104 l 725 1081 z "},"ȍ":{"ha":700,"x_min":40,"x_max":660,"o":"m 40 0 m 447 715 q 608 656 556 715 q 660 501 660 597 q 609 225 660 342 q 465 47 558 108 q 249 -14 372 -14 q 92 43 144 -14 q 40 197 40 100 q 91 476 40 360 q 233 654 142 593 q 447 715 325 715 m 290 78 q 431 203 389 78 q 472 501 472 329 q 459 591 472 561 q 410 621 446 621 q 267 490 307 621 q 228 197 228 358 q 240 108 228 138 q 290 78 253 78 m 335 783 l 167 1007 l 172 1038 l 300 1038 l 385 815 l 335 783 m 558 783 l 390 1007 l 396 1038 l 524 1038 l 608 815 l 558 783 z "},"ö":{"ha":700,"x_min":40,"x_max":683,"o":"m 363 913 q 333 841 363 869 q 260 813 303 813 q 183 841 215 813 q 151 913 151 869 q 184 984 151 954 q 260 1014 217 1014 q 332 984 301 1014 q 363 913 363 954 m 683 913 q 653 841 683 869 q 582 813 622 813 q 506 841 538 813 q 475 913 475 869 q 506 985 475 956 q 582 1014 538 1014 q 653 984 622 1014 q 683 913 683 954 m 447 715 q 608 656 556 715 q 660 501 660 597 q 609 225 660 342 q 465 47 558 108 q 249 -14 372 -14 q 92 43 144 -14 q 40 197 40 100 q 91 476 40 360 q 233 654 142 593 q 447 715 325 715 m 290 78 q 431 203 389 78 q 472 501 472 329 q 459 591 472 561 q 410 621 446 621 q 267 490 307 621 q 228 197 228 358 q 240 108 228 138 q 290 78 253 78 z "},"ọ":{"ha":700,"x_min":40,"x_max":660,"o":"m 40 0 m 447 715 q 608 656 556 715 q 660 501 660 597 q 609 225 660 342 q 465 47 558 108 q 249 -14 372 -14 q 92 43 144 -14 q 40 197 40 100 q 91 476 40 360 q 233 654 142 593 q 447 715 325 715 m 290 78 q 431 203 389 78 q 472 501 472 329 q 459 591 472 561 q 410 621 446 621 q 267 490 307 621 q 228 197 228 358 q 240 108 228 138 q 290 78 253 78 m 251 -56 q 325 -87 293 -56 q 357 -160 357 -118 q 326 -232 357 -201 q 251 -262 294 -262 q 178 -232 210 -262 q 147 -160 147 -201 q 178 -86 147 -117 q 251 -56 210 -56 z "},"ò":{"ha":700,"x_min":40,"x_max":660,"o":"m 560 800 l 238 951 l 243 983 l 378 1031 l 592 849 l 560 800 m 249 -14 q 92 43 144 -14 q 40 197 40 100 q 91 476 40 360 q 233 654 142 593 q 447 715 325 715 q 608 656 556 715 q 660 501 660 597 q 609 225 660 342 q 465 47 558 108 q 249 -14 372 -14 m 290 78 q 431 203 389 78 q 472 501 472 329 q 459 591 472 561 q 410 621 446 621 q 267 490 307 621 q 228 197 228 358 q 240 108 228 138 q 290 78 253 78 z "},"ỏ":{"ha":700,"x_min":40,"x_max":660,"o":"m 40 0 m 447 715 q 608 656 556 715 q 660 501 660 597 q 609 225 660 342 q 465 47 558 108 q 249 -14 372 -14 q 92 43 144 -14 q 40 197 40 100 q 91 476 40 360 q 233 654 142 593 q 447 715 325 715 m 290 78 q 431 203 389 78 q 472 501 472 329 q 459 591 472 561 q 410 621 446 621 q 267 490 307 621 q 228 197 228 358 q 240 108 228 138 q 290 78 253 78 m 400 782 q 412 806 400 797 q 450 825 424 814 q 488 843 475 835 q 500 865 500 851 q 453 890 500 890 q 414 888 444 890 l 397 850 l 342 850 l 347 924 q 478 939 419 939 q 572 921 539 939 q 606 871 606 903 q 588 831 606 847 q 544 806 571 814 q 516 797 538 804 q 482 781 494 790 q 469 757 469 771 l 401 757 l 400 782 z "},"ơ":{"ha":700,"x_min":40,"x_max":788,"o":"m 788 772 q 744 679 788 718 q 632 622 700 640 q 660 501 660 575 q 609 225 660 342 q 465 47 558 108 q 249 -14 372 -14 q 92 43 144 -14 q 40 197 40 100 q 91 476 40 360 q 233 654 142 593 q 447 715 325 715 q 574 683 525 715 q 632 702 613 686 q 651 757 651 718 q 644 814 651 783 l 653 832 l 769 851 q 783 811 778 833 q 788 772 788 789 m 290 78 q 431 203 389 78 q 472 501 472 329 q 459 591 472 561 q 410 621 446 621 q 267 490 307 621 q 228 197 228 358 q 240 108 228 138 q 290 78 253 78 z "},"ớ":{"ha":700,"x_min":40,"x_max":788,"o":"m 40 0 m 788 772 q 744 679 788 718 q 632 622 700 640 q 660 501 660 575 q 609 225 660 342 q 465 47 558 108 q 249 -14 372 -14 q 92 43 144 -14 q 40 197 40 100 q 91 476 40 360 q 233 654 142 593 q 447 715 325 715 q 574 683 525 715 q 632 702 613 686 q 651 757 651 718 q 644 814 651 783 l 653 832 l 769 851 q 783 811 778 833 q 788 772 788 789 m 290 78 q 431 203 389 78 q 472 501 472 329 q 459 591 472 561 q 410 621 446 621 q 267 490 307 621 q 228 197 228 358 q 240 108 228 138 q 290 78 253 78 m 329 800 l 292 849 l 508 1031 l 646 983 l 646 951 l 329 800 z "},"ợ":{"ha":700,"x_min":40,"x_max":788,"o":"m 40 0 m 788 772 q 744 679 788 718 q 632 622 700 640 q 660 501 660 575 q 609 225 660 342 q 465 47 558 108 q 249 -14 372 -14 q 92 43 144 -14 q 40 197 40 100 q 91 476 40 360 q 233 654 142 593 q 447 715 325 715 q 574 683 525 715 q 632 702 613 686 q 651 757 651 718 q 644 814 651 783 l 653 832 l 769 851 q 783 811 778 833 q 788 772 788 789 m 290 78 q 431 203 389 78 q 472 501 472 329 q 459 591 472 561 q 410 621 446 621 q 267 490 307 621 q 228 197 228 358 q 240 108 228 138 q 290 78 253 78 m 251 -56 q 325 -87 293 -56 q 357 -160 357 -118 q 326 -232 357 -201 q 251 -262 294 -262 q 178 -232 210 -262 q 147 -160 147 -201 q 178 -86 147 -117 q 251 -56 210 -56 z "},"ờ":{"ha":700,"x_min":40,"x_max":788,"o":"m 40 0 m 788 772 q 744 679 788 718 q 632 622 700 640 q 660 501 660 575 q 609 225 660 342 q 465 47 558 108 q 249 -14 372 -14 q 92 43 144 -14 q 40 197 40 100 q 91 476 40 360 q 233 654 142 593 q 447 715 325 715 q 574 683 525 715 q 632 702 613 686 q 651 757 651 718 q 644 814 651 783 l 653 832 l 769 851 q 783 811 778 833 q 788 772 788 789 m 290 78 q 431 203 389 78 q 472 501 472 329 q 459 591 472 561 q 410 621 446 621 q 267 490 307 621 q 228 197 228 358 q 240 108 228 138 q 290 78 253 78 m 551 800 l 229 951 l 235 983 l 369 1031 l 583 849 l 551 800 z "},"ở":{"ha":700,"x_min":40,"x_max":788,"o":"m 40 0 m 788 772 q 744 679 788 718 q 632 622 700 640 q 660 501 660 575 q 609 225 660 342 q 465 47 558 108 q 249 -14 372 -14 q 92 43 144 -14 q 40 197 40 100 q 91 476 40 360 q 233 654 142 593 q 447 715 325 715 q 574 683 525 715 q 632 702 613 686 q 651 757 651 718 q 644 814 651 783 l 653 832 l 769 851 q 783 811 778 833 q 788 772 788 789 m 290 78 q 431 203 389 78 q 472 501 472 329 q 459 591 472 561 q 410 621 446 621 q 267 490 307 621 q 228 197 228 358 q 240 108 228 138 q 290 78 253 78 m 400 782 q 412 806 400 797 q 450 825 424 814 q 488 843 475 835 q 500 865 500 851 q 453 890 500 890 q 414 888 444 890 l 397 850 l 342 850 l 347 924 q 478 939 419 939 q 572 921 539 939 q 606 871 606 903 q 588 831 606 847 q 544 806 571 814 q 516 797 538 804 q 482 781 494 790 q 469 757 469 771 l 401 757 l 400 782 z "},"ỡ":{"ha":700,"x_min":40,"x_max":788,"o":"m 40 0 m 788 772 q 744 679 788 718 q 632 622 700 640 q 660 501 660 575 q 609 225 660 342 q 465 47 558 108 q 249 -14 372 -14 q 92 43 144 -14 q 40 197 40 100 q 91 476 40 360 q 233 654 142 593 q 447 715 325 715 q 574 683 525 715 q 632 702 613 686 q 651 757 651 718 q 644 814 651 783 l 653 832 l 769 851 q 783 811 778 833 q 788 772 788 789 m 290 78 q 431 203 389 78 q 472 501 472 329 q 459 591 472 561 q 410 621 446 621 q 267 490 307 621 q 228 197 228 358 q 240 108 228 138 q 290 78 253 78 m 697 968 q 578 824 638 824 q 449 851 538 824 q 346 875 372 875 q 319 865 331 875 q 299 845 307 856 q 290 832 292 835 l 225 858 q 346 1003 286 1003 q 474 975 385 1003 q 578 951 550 951 q 606 961 593 951 q 627 981 619 971 q 636 994 635 992 l 697 968 z "},"ő":{"ha":700,"x_min":40,"x_max":719,"o":"m 283 783 l 240 815 l 368 1038 l 496 1038 l 496 1007 l 283 783 m 507 783 l 464 815 l 592 1038 l 719 1038 l 719 1007 l 507 783 m 447 715 q 608 656 556 715 q 660 501 660 597 q 609 225 660 342 q 465 47 558 108 q 249 -14 372 -14 q 92 43 144 -14 q 40 197 40 100 q 91 476 40 360 q 233 654 142 593 q 447 715 325 715 m 290 78 q 431 203 389 78 q 472 501 472 329 q 459 591 472 561 q 410 621 446 621 q 267 490 307 621 q 228 197 228 358 q 240 108 228 138 q 290 78 253 78 z "},"ȏ":{"ha":700,"x_min":40,"x_max":660,"o":"m 40 0 m 447 715 q 608 656 556 715 q 660 501 660 597 q 609 225 660 342 q 465 47 558 108 q 249 -14 372 -14 q 92 43 144 -14 q 40 197 40 100 q 91 476 40 360 q 233 654 142 593 q 447 715 325 715 m 290 78 q 431 203 389 78 q 472 501 472 329 q 459 591 472 561 q 410 621 446 621 q 267 490 307 621 q 228 197 228 358 q 240 108 228 138 q 290 78 253 78 m 468 1018 q 578 984 544 1018 q 611 894 611 950 q 599 828 611 863 l 521 828 q 524 853 524 842 q 510 897 524 882 q 451 913 496 913 q 370 891 392 913 q 338 828 349 869 l 263 828 q 326 967 281 915 q 468 1018 371 1018 z "},"ō":{"ha":700,"x_min":40,"x_max":660,"o":"m 274 968 l 608 968 l 593 858 l 258 858 l 274 968 m 447 715 q 608 656 556 715 q 660 501 660 597 q 609 225 660 342 q 465 47 558 108 q 249 -14 372 -14 q 92 43 144 -14 q 40 197 40 100 q 91 476 40 360 q 233 654 142 593 q 447 715 325 715 m 290 78 q 431 203 389 78 q 472 501 472 329 q 459 591 472 561 q 410 621 446 621 q 267 490 307 621 q 228 197 228 358 q 240 108 228 138 q 290 78 253 78 z "},"ǫ":{"ha":700,"x_min":40,"x_max":660,"o":"m 417 -193 q 506 -162 457 -193 l 533 -193 q 511 -218 533 -196 q 453 -260 489 -240 q 369 -279 417 -279 q 272 -249 301 -279 q 242 -174 242 -219 q 267 -94 242 -139 q 343 -4 293 -50 q 249 -14 303 -14 q 92 43 144 -14 q 40 197 40 100 q 91 476 40 360 q 233 654 142 593 q 447 715 325 715 q 608 656 556 715 q 660 501 660 597 q 616 242 660 353 q 490 67 572 131 q 407 -35 450 32 q 364 -136 364 -103 q 417 -193 364 -193 m 228 197 q 240 108 228 138 q 290 78 253 78 q 431 203 389 78 q 472 501 472 329 q 459 591 472 561 q 410 621 446 621 q 267 490 307 621 q 228 197 228 358 z "},"ø":{"ha":700,"x_min":40,"x_max":660,"o":"m 188 -8 q 77 61 114 7 q 40 197 40 115 q 88 468 40 354 q 221 644 135 582 q 422 714 307 707 l 457 818 l 546 818 l 510 708 q 623 636 586 692 q 660 501 660 581 q 613 233 660 347 q 478 57 565 119 q 275 -12 392 -6 l 238 -128 l 149 -128 l 188 -8 m 392 619 q 264 478 300 607 q 228 197 228 350 q 232 131 228 149 l 392 619 m 304 78 q 433 212 394 88 q 472 501 472 336 q 465 572 472 549 l 304 78 z "},"ǿ":{"ha":700,"x_min":40,"x_max":660,"o":"m 40 0 m 188 -8 q 77 61 114 7 q 40 197 40 115 q 88 468 40 354 q 221 644 135 582 q 422 714 307 707 l 457 818 l 546 818 l 510 708 q 623 636 586 692 q 660 501 660 581 q 613 233 660 347 q 478 57 565 119 q 275 -12 392 -6 l 238 -128 l 149 -128 l 188 -8 m 392 619 q 264 478 300 607 q 228 197 228 350 q 232 131 228 149 l 392 619 m 304 78 q 433 212 394 88 q 472 501 472 336 q 465 572 472 549 l 304 78 m 329 800 l 292 849 l 508 1031 l 646 983 l 646 951 l 329 800 z "},"õ":{"ha":700,"x_min":40,"x_max":661,"o":"m 661 968 q 542 824 601 824 q 413 851 501 824 q 310 875 336 875 q 283 865 294 875 q 263 845 271 856 q 254 832 256 835 l 189 858 q 310 1003 250 1003 q 438 975 349 1003 q 542 951 514 951 q 570 961 557 951 q 591 981 583 971 q 600 994 599 992 l 661 968 m 447 715 q 608 656 556 715 q 660 501 660 597 q 609 225 660 342 q 465 47 558 108 q 249 -14 372 -14 q 92 43 144 -14 q 40 197 40 100 q 91 476 40 360 q 233 654 142 593 q 447 715 325 715 m 290 78 q 431 203 389 78 q 472 501 472 329 q 459 591 472 561 q 410 621 446 621 q 267 490 307 621 q 228 197 228 358 q 240 108 228 138 q 290 78 253 78 z "},"œ":{"ha":1014,"x_min":40,"x_max":1033,"o":"m 249 -14 q 92 43 144 -14 q 40 197 40 100 q 91 476 40 360 q 233 654 142 593 q 447 715 325 715 q 624 629 568 715 q 857 715 724 715 q 986 681 939 715 q 1033 578 1033 646 q 933 392 1033 458 q 646 325 832 325 q 640 239 640 282 q 667 130 640 167 q 758 93 694 93 q 904 118 838 93 l 921 50 q 821 4 878 22 q 678 -14 764 -14 q 572 8 619 -14 q 496 74 525 31 q 249 -14 393 -14 m 290 78 q 431 203 389 78 q 472 501 472 329 q 459 591 472 561 q 410 621 446 621 q 267 490 307 621 q 228 197 228 358 q 240 108 228 138 q 290 78 253 78 m 656 401 q 813 444 753 401 q 872 560 872 486 q 860 601 872 586 q 817 617 849 617 q 716 560 758 617 q 656 401 674 503 z "},"p":{"ha":763,"x_min":4,"x_max":722,"o":"m 175 596 l 72 608 l 58 664 q 199 701 119 686 q 325 717 278 717 q 355 707 343 717 q 367 682 367 697 q 353 597 367 663 q 449 685 400 654 q 560 715 497 715 q 680 672 638 715 q 722 524 722 628 q 682 260 722 383 q 556 62 642 138 q 344 -14 471 -14 q 243 -1 285 -14 l 204 -247 l 4 -269 l 175 596 m 344 83 q 491 208 447 83 q 535 501 535 333 q 489 600 535 600 q 408 567 450 600 q 333 486 367 533 l 263 104 q 344 83 285 83 z "},"þ":{"ha":733,"x_min":0,"x_max":693,"o":"m 207 906 l 107 917 l 93 974 q 231 1010 156 994 q 353 1025 306 1025 q 378 1015 369 1025 q 388 990 388 1006 q 374 900 388 976 q 324 607 349 761 q 416 687 368 658 q 519 715 464 715 q 693 522 693 715 q 653 269 693 390 q 525 67 614 147 q 294 -12 436 -12 q 228 -10 269 -12 q 189 -247 207 -147 l 0 -271 l 207 906 m 326 83 q 422 143 381 83 q 484 301 463 203 q 506 508 506 399 q 493 581 506 561 q 456 600 481 600 q 386 567 429 600 q 306 490 343 535 q 246 101 281 332 q 326 83 275 83 z "},"q":{"ha":715,"x_min":40,"x_max":697,"o":"m 697 724 q 615 310 671 593 q 535 -103 560 26 l 518 -250 l 326 -271 l 396 101 q 306 13 351 40 q 199 -14 261 -14 q 88 32 136 -14 q 40 186 40 78 q 87 463 40 343 q 218 649 133 583 q 411 715 303 715 q 485 709 454 715 q 554 690 517 703 l 610 736 l 697 724 m 419 222 q 451 382 421 222 q 473 492 463 436 q 494 597 483 547 q 462 614 483 607 q 415 621 440 621 q 272 494 315 621 q 228 190 228 367 q 240 123 228 144 q 276 101 251 101 q 349 139 306 101 q 419 222 393 176 z "},"r":{"ha":571,"x_min":54,"x_max":621,"o":"m 174 590 l 75 603 l 61 660 q 199 695 121 679 q 322 711 278 711 q 351 701 340 711 q 361 674 361 690 q 349 604 361 674 l 339 550 q 453 678 390 639 q 621 718 517 718 l 576 468 l 485 468 l 469 586 q 390 502 431 563 q 300 321 349 442 l 246 6 l 54 -14 l 174 590 z "},"ŕ":{"ha":571,"x_min":54,"x_max":621,"o":"m 299 800 l 261 849 l 478 1031 l 615 983 l 615 951 l 299 800 m 174 590 l 75 603 l 61 660 q 199 695 121 679 q 322 711 278 711 q 351 701 340 711 q 361 674 361 690 q 349 604 361 674 l 339 550 q 453 678 390 639 q 621 718 517 718 l 576 468 l 485 468 l 469 586 q 390 502 431 563 q 300 321 349 442 l 246 6 l 54 -14 l 174 590 z "},"ř":{"ha":571,"x_min":54,"x_max":622,"o":"m 332 801 l 228 997 l 285 1032 l 410 926 l 578 1032 l 622 986 l 450 801 l 332 801 m 174 590 l 75 603 l 61 660 q 199 695 121 679 q 322 711 278 711 q 351 701 340 711 q 361 674 361 690 q 349 604 361 674 l 339 550 q 453 678 390 639 q 621 718 517 718 l 576 468 l 485 468 l 469 586 q 390 502 431 563 q 300 321 349 442 l 246 6 l 54 -14 l 174 590 z "}}}
